<svg xmlns="http://www.w3.org/2000/svg" xmlns:xlink="http://www.w3.org/1999/xlink" width="1080" zoomAndPan="magnify" viewBox="0 0 810 149.999998" height="200" preserveAspectRatio="xMidYMid meet" version="1.0"><defs><g/></defs><rect x="-81" width="972" fill="#ffffff" y="-15" height="179.999997" fill-opacity="1"/><rect x="-81" width="972" fill="#ffffff" y="-15" height="179.999997" fill-opacity="1"/><g fill="#8f68ff" fill-opacity="1"><g transform="translate(35.746638, 77.30437)"><g><path d="M 0.890625 -20.703125 C 0.890625 -21.222656 1.519531 -21.484375 2.78125 -21.484375 C 4.039062 -21.484375 4.753906 -21.132812 4.921875 -20.4375 L 8.703125 -5.421875 L 11.390625 -17.671875 C 11.460938 -18.046875 11.617188 -18.296875 11.859375 -18.421875 C 12.097656 -18.554688 12.507812 -18.625 13.09375 -18.625 C 14.582031 -18.625 15.429688 -18.222656 15.640625 -17.421875 L 18.65625 -5.421875 L 21.984375 -20.4375 C 22.078125 -20.851562 22.242188 -21.128906 22.484375 -21.265625 C 22.722656 -21.410156 23.195312 -21.484375 23.90625 -21.484375 C 24.613281 -21.484375 25.078125 -21.4375 25.296875 -21.34375 C 25.515625 -21.25 25.625 -21.035156 25.625 -20.703125 C 25.625 -20.617188 25.613281 -20.53125 25.59375 -20.4375 L 20.921875 -0.5625 C 20.828125 -0.164062 20.691406 0.0976562 20.515625 0.234375 C 20.335938 0.378906 20.050781 0.453125 19.65625 0.453125 C 17.664062 0.453125 16.578125 0.113281 16.390625 -0.5625 L 13.421875 -10.484375 L 10.90625 -0.609375 C 10.8125 -0.203125 10.671875 0.0703125 10.484375 0.21875 C 10.296875 0.375 10.019531 0.453125 9.65625 0.453125 C 7.65625 0.453125 6.570312 0.113281 6.40625 -0.5625 L 0.921875 -20.53125 C 0.898438 -20.582031 0.890625 -20.640625 0.890625 -20.703125 Z M 0.890625 -20.703125 "/></g></g></g><g fill="#8f68ff" fill-opacity="1"><g transform="translate(62.267019, 77.30437)"><g><path d="M 1.65625 -3.390625 L 2.65625 -3.390625 L 2.65625 -17.671875 L 1.8125 -17.671875 C 1.445312 -17.691406 1.195312 -17.816406 1.0625 -18.046875 C 0.925781 -18.304688 0.859375 -18.78125 0.859375 -19.46875 C 0.859375 -20.507812 1.171875 -21.03125 1.796875 -21.03125 L 6.734375 -21.03125 C 7.554688 -21.03125 7.96875 -20.742188 7.96875 -20.171875 C 7.96875 -18.503906 7.640625 -17.671875 6.984375 -17.671875 L 6.296875 -17.671875 L 6.578125 -12.078125 L 6.59375 -3.390625 L 7.4375 -3.390625 C 8.09375 -3.367188 8.421875 -3.066406 8.421875 -2.484375 C 8.378906 -0.828125 7.921875 0 7.046875 0 L 1.765625 0 C 1.429688 -0.0195312 1.195312 -0.140625 1.0625 -0.359375 C 0.925781 -0.617188 0.859375 -1.101562 0.859375 -1.8125 C 0.859375 -2.863281 1.125 -3.390625 1.65625 -3.390625 Z M 1.65625 -3.390625 "/></g></g></g><g fill="#8f68ff" fill-opacity="1"><g transform="translate(71.358925, 77.30437)"><g><path d="M 1.265625 -20.4375 C 1.265625 -20.851562 1.359375 -21.128906 1.546875 -21.265625 C 1.742188 -21.410156 2.125 -21.484375 2.6875 -21.484375 C 4.03125 -21.484375 4.710938 -21.144531 4.734375 -20.46875 L 5.140625 -12.078125 L 5.171875 -3.390625 L 10.59375 -3.390625 C 11.507812 -3.390625 11.96875 -3.050781 11.96875 -2.375 C 11.96875 -1.164062 11.789062 -0.441406 11.4375 -0.203125 C 11.25 -0.0664062 11.007812 0 10.71875 0 L 1.703125 0 L 1.265625 -0.453125 Z M 1.265625 -20.4375 "/></g></g></g><g fill="#8f68ff" fill-opacity="1"><g transform="translate(83.528086, 77.30437)"><g><path d="M 7.390625 -21.484375 C 9.421875 -21.484375 10.957031 -21.191406 12 -20.609375 C 13.039062 -20.035156 13.796875 -18.988281 14.265625 -17.46875 C 14.734375 -15.945312 14.96875 -13.695312 14.96875 -10.71875 C 14.96875 -6.570312 14.425781 -3.671875 13.34375 -2.015625 C 12.257812 -0.367188 10.273438 0.453125 7.390625 0.453125 C 6.679688 0.453125 4.640625 0.300781 1.265625 0 L 1.265625 -21 C 4.097656 -21.320312 6.140625 -21.484375 7.390625 -21.484375 Z M 8.859375 -18.15625 C 7.242188 -18.15625 6.226562 -18.117188 5.8125 -18.046875 C 5.40625 -17.984375 5.203125 -17.804688 5.203125 -17.515625 L 5.203125 -3.46875 C 5.203125 -3.257812 5.328125 -3.132812 5.578125 -3.09375 C 5.828125 -3.0625 6.335938 -3.046875 7.109375 -3.046875 C 7.890625 -3.046875 8.4375 -3.085938 8.75 -3.171875 C 9.070312 -3.253906 9.367188 -3.398438 9.640625 -3.609375 C 9.910156 -3.828125 10.09375 -4.242188 10.1875 -4.859375 C 10.363281 -6.054688 10.453125 -7.90625 10.453125 -10.40625 C 10.453125 -15.570312 9.921875 -18.15625 8.859375 -18.15625 Z M 8.859375 -18.15625 "/></g></g></g><g fill="#8f68ff" fill-opacity="1"><g transform="translate(99.501857, 77.30437)"><g/></g></g><g fill="#8f68ff" fill-opacity="1"><g transform="translate(106.943229, 77.30437)"><g><path d="M 12.1875 -3.296875 C 12.65625 -3.296875 12.890625 -3 12.890625 -2.40625 C 12.890625 -1.8125 12.878906 -1.363281 12.859375 -1.0625 C 12.785156 -0.394531 12.488281 -0.015625 11.96875 0.078125 C 10.3125 0.328125 9.082031 0.453125 8.28125 0.453125 C 5.5 0.453125 3.585938 -0.328125 2.546875 -1.890625 C 1.503906 -3.460938 0.984375 -6.289062 0.984375 -10.375 C 0.984375 -13.351562 1.207031 -15.628906 1.65625 -17.203125 C 2.113281 -18.785156 2.847656 -19.894531 3.859375 -20.53125 C 4.878906 -21.164062 6.398438 -21.484375 8.421875 -21.484375 C 10.453125 -21.484375 11.929688 -21.164062 12.859375 -20.53125 C 13.046875 -20.394531 13.140625 -20.234375 13.140625 -20.046875 C 13.140625 -19.867188 13.050781 -19.519531 12.875 -19 C 12.695312 -18.488281 12.53125 -18.125 12.375 -17.90625 C 12.21875 -17.695312 12.054688 -17.59375 11.890625 -17.59375 C 11.722656 -17.59375 11.59375 -17.601562 11.5 -17.625 C 10.09375 -17.90625 8.878906 -18.046875 7.859375 -18.046875 C 6.847656 -18.046875 6.1875 -17.484375 5.875 -16.359375 C 5.570312 -15.242188 5.421875 -13.429688 5.421875 -10.921875 C 5.421875 -8.410156 5.484375 -6.660156 5.609375 -5.671875 C 5.742188 -4.679688 5.988281 -3.988281 6.34375 -3.59375 C 6.695312 -3.207031 7.257812 -3.015625 8.03125 -3.015625 C 8.8125 -3.015625 9.691406 -3.0625 10.671875 -3.15625 C 11.648438 -3.25 12.15625 -3.296875 12.1875 -3.296875 Z M 12.1875 -3.296875 "/></g></g></g><g fill="#8f68ff" fill-opacity="1"><g transform="translate(120.87482, 77.30437)"><g><path d="M 1.03125 -10.375 C 1.03125 -13.34375 1.265625 -15.617188 1.734375 -17.203125 C 2.203125 -18.785156 2.941406 -19.894531 3.953125 -20.53125 C 4.972656 -21.164062 6.441406 -21.484375 8.359375 -21.484375 C 10.285156 -21.484375 11.753906 -21.164062 12.765625 -20.53125 C 13.785156 -19.894531 14.519531 -18.785156 14.96875 -17.203125 C 15.425781 -15.628906 15.65625 -13.351562 15.65625 -10.375 C 15.65625 -6.289062 15.132812 -3.460938 14.09375 -1.890625 C 13.050781 -0.328125 11.140625 0.453125 8.359375 0.453125 C 5.578125 0.453125 3.660156 -0.328125 2.609375 -1.890625 C 1.554688 -3.460938 1.03125 -6.289062 1.03125 -10.375 Z M 5.703125 -15.59375 C 5.585938 -14.894531 5.519531 -14.1875 5.5 -13.46875 C 5.488281 -12.75 5.484375 -11.53125 5.484375 -9.8125 C 5.484375 -8.101562 5.535156 -6.671875 5.640625 -5.515625 C 5.753906 -4.359375 5.90625 -3.597656 6.09375 -3.234375 C 6.28125 -2.867188 6.535156 -2.6875 6.859375 -2.6875 C 8.492188 -2.6875 9.5625 -2.851562 10.0625 -3.1875 C 10.25 -3.320312 10.429688 -3.535156 10.609375 -3.828125 C 10.785156 -4.128906 10.910156 -4.4375 10.984375 -4.75 C 11.066406 -5.070312 11.132812 -5.539062 11.1875 -6.15625 C 11.257812 -6.957031 11.296875 -8.394531 11.296875 -10.46875 C 11.296875 -12.550781 11.242188 -14.191406 11.140625 -15.390625 C 11.035156 -16.597656 10.882812 -17.421875 10.6875 -17.859375 C 10.5 -18.296875 10.242188 -18.515625 9.921875 -18.515625 C 9.179688 -18.515625 8.582031 -18.476562 8.125 -18.40625 C 7.664062 -18.34375 7.257812 -18.1875 6.90625 -17.9375 C 6.550781 -17.6875 6.289062 -17.40625 6.125 -17.09375 C 5.957031 -16.789062 5.816406 -16.289062 5.703125 -15.59375 Z M 5.703125 -15.59375 "/></g></g></g><g fill="#8f68ff" fill-opacity="1"><g transform="translate(137.575946, 77.30437)"><g><path d="M 7.390625 -21.484375 C 9.421875 -21.484375 10.957031 -21.191406 12 -20.609375 C 13.039062 -20.035156 13.796875 -18.988281 14.265625 -17.46875 C 14.734375 -15.945312 14.96875 -13.695312 14.96875 -10.71875 C 14.96875 -6.570312 14.425781 -3.671875 13.34375 -2.015625 C 12.257812 -0.367188 10.273438 0.453125 7.390625 0.453125 C 6.679688 0.453125 4.640625 0.300781 1.265625 0 L 1.265625 -21 C 4.097656 -21.320312 6.140625 -21.484375 7.390625 -21.484375 Z M 8.859375 -18.15625 C 7.242188 -18.15625 6.226562 -18.117188 5.8125 -18.046875 C 5.40625 -17.984375 5.203125 -17.804688 5.203125 -17.515625 L 5.203125 -3.46875 C 5.203125 -3.257812 5.328125 -3.132812 5.578125 -3.09375 C 5.828125 -3.0625 6.335938 -3.046875 7.109375 -3.046875 C 7.890625 -3.046875 8.4375 -3.085938 8.75 -3.171875 C 9.070312 -3.253906 9.367188 -3.398438 9.640625 -3.609375 C 9.910156 -3.828125 10.09375 -4.242188 10.1875 -4.859375 C 10.363281 -6.054688 10.453125 -7.90625 10.453125 -10.40625 C 10.453125 -15.570312 9.921875 -18.15625 8.859375 -18.15625 Z M 8.859375 -18.15625 "/></g></g></g><g fill="#8f68ff" fill-opacity="1"><g transform="translate(153.549717, 77.30437)"><g><path d="M 10.578125 -12.71875 C 11.316406 -12.71875 11.6875 -12.382812 11.6875 -11.71875 C 11.6875 -10.800781 11.628906 -10.175781 11.515625 -9.84375 C 11.410156 -9.507812 11.125 -9.34375 10.65625 -9.34375 L 5.171875 -9.34375 L 5.171875 -3.390625 L 11.640625 -3.390625 C 12.085938 -3.367188 12.394531 -3.273438 12.5625 -3.109375 C 12.726562 -2.953125 12.8125 -2.71875 12.8125 -2.40625 C 12.8125 -1.488281 12.726562 -0.859375 12.5625 -0.515625 C 12.394531 -0.171875 12.054688 0 11.546875 0 L 1.703125 0 L 1.265625 -0.453125 L 1.265625 -21.03125 L 11.1875 -21.03125 C 11.988281 -21.007812 12.390625 -20.710938 12.390625 -20.140625 C 12.367188 -19.628906 12.335938 -19.226562 12.296875 -18.9375 C 12.265625 -18.65625 12.148438 -18.375 11.953125 -18.09375 C 11.753906 -17.8125 11.472656 -17.671875 11.109375 -17.671875 L 4.859375 -17.671875 L 5.171875 -12.71875 Z M 10.578125 -12.71875 "/></g></g></g><g fill="#8f68ff" fill-opacity="1"><g transform="translate(167.061685, 77.30437)"><g/></g></g><g fill="#8f68ff" fill-opacity="1"><g transform="translate(174.503058, 77.30437)"><g><path d="M 1.34375 -2.046875 C 0.945312 -2.523438 0.75 -2.890625 0.75 -3.140625 C 0.75 -3.398438 0.96875 -3.75 1.40625 -4.1875 C 1.84375 -4.625 2.128906 -4.859375 2.265625 -4.890625 C 2.410156 -4.929688 2.546875 -4.953125 2.671875 -4.953125 C 2.804688 -4.953125 3.023438 -4.867188 3.328125 -4.703125 C 4.703125 -3.617188 5.910156 -3.078125 6.953125 -3.078125 C 8.003906 -3.078125 8.6875 -3.316406 9 -3.796875 C 9.320312 -4.285156 9.484375 -4.921875 9.484375 -5.703125 C 9.484375 -6.484375 9.203125 -7.113281 8.640625 -7.59375 C 8.078125 -8.082031 7.15625 -8.671875 5.875 -9.359375 C 4.601562 -10.054688 3.492188 -10.953125 2.546875 -12.046875 C 1.597656 -13.148438 1.125 -14.289062 1.125 -15.46875 C 1.125 -17.550781 1.664062 -19.070312 2.75 -20.03125 C 3.84375 -21 5.441406 -21.484375 7.546875 -21.484375 C 8.835938 -21.484375 10.097656 -21.175781 11.328125 -20.5625 C 11.984375 -20.300781 12.289062 -20.03125 12.25 -19.75 C 12.226562 -19.632812 12.207031 -19.46875 12.1875 -19.25 C 11.832031 -18.238281 11.566406 -17.660156 11.390625 -17.515625 C 11.328125 -17.472656 11.195312 -17.453125 11 -17.453125 C 10.8125 -17.453125 10.296875 -17.601562 9.453125 -17.90625 C 8.609375 -18.21875 7.894531 -18.375 7.3125 -18.375 C 6.726562 -18.375 6.238281 -18.164062 5.84375 -17.75 C 5.457031 -17.34375 5.265625 -16.765625 5.265625 -16.015625 C 5.265625 -15.273438 5.597656 -14.601562 6.265625 -14 C 6.929688 -13.394531 7.96875 -12.765625 9.375 -12.109375 C 10.84375 -11.347656 11.941406 -10.554688 12.671875 -9.734375 C 13.410156 -8.910156 13.78125 -7.8125 13.78125 -6.4375 C 13.78125 -1.84375 11.84375 0.453125 7.96875 0.453125 C 5.082031 0.453125 2.875 -0.378906 1.34375 -2.046875 Z M 1.34375 -2.046875 "/></g></g></g><g fill="#8f68ff" fill-opacity="1"><g transform="translate(189.106061, 77.30437)"><g><path d="M 12.1875 -3.296875 C 12.65625 -3.296875 12.890625 -3 12.890625 -2.40625 C 12.890625 -1.8125 12.878906 -1.363281 12.859375 -1.0625 C 12.785156 -0.394531 12.488281 -0.015625 11.96875 0.078125 C 10.3125 0.328125 9.082031 0.453125 8.28125 0.453125 C 5.5 0.453125 3.585938 -0.328125 2.546875 -1.890625 C 1.503906 -3.460938 0.984375 -6.289062 0.984375 -10.375 C 0.984375 -13.351562 1.207031 -15.628906 1.65625 -17.203125 C 2.113281 -18.785156 2.847656 -19.894531 3.859375 -20.53125 C 4.878906 -21.164062 6.398438 -21.484375 8.421875 -21.484375 C 10.453125 -21.484375 11.929688 -21.164062 12.859375 -20.53125 C 13.046875 -20.394531 13.140625 -20.234375 13.140625 -20.046875 C 13.140625 -19.867188 13.050781 -19.519531 12.875 -19 C 12.695312 -18.488281 12.53125 -18.125 12.375 -17.90625 C 12.21875 -17.695312 12.054688 -17.59375 11.890625 -17.59375 C 11.722656 -17.59375 11.59375 -17.601562 11.5 -17.625 C 10.09375 -17.90625 8.878906 -18.046875 7.859375 -18.046875 C 6.847656 -18.046875 6.1875 -17.484375 5.875 -16.359375 C 5.570312 -15.242188 5.421875 -13.429688 5.421875 -10.921875 C 5.421875 -8.410156 5.484375 -6.660156 5.609375 -5.671875 C 5.742188 -4.679688 5.988281 -3.988281 6.34375 -3.59375 C 6.695312 -3.207031 7.257812 -3.015625 8.03125 -3.015625 C 8.8125 -3.015625 9.691406 -3.0625 10.671875 -3.15625 C 11.648438 -3.25 12.15625 -3.296875 12.1875 -3.296875 Z M 12.1875 -3.296875 "/></g></g></g><g fill="#8f68ff" fill-opacity="1"><g transform="translate(203.037659, 77.30437)"><g><path d="M 9.734375 -20.53125 C 9.734375 -20.914062 9.820312 -21.171875 10 -21.296875 C 10.175781 -21.421875 10.546875 -21.484375 11.109375 -21.484375 C 12.453125 -21.484375 13.128906 -21.132812 13.140625 -20.4375 L 13.671875 -12.046875 L 13.671875 -0.59375 C 13.671875 -0.269531 13.664062 -0.0507812 13.65625 0.0625 C 13.570312 0.320312 13.207031 0.453125 12.5625 0.453125 C 10.675781 0.453125 9.734375 0.113281 9.734375 -0.5625 L 9.734375 -8.671875 L 5.140625 -8.671875 L 5.171875 -0.59375 C 5.171875 -0.269531 5.160156 -0.0507812 5.140625 0.0625 C 5.066406 0.320312 4.707031 0.453125 4.0625 0.453125 C 2.195312 0.453125 1.265625 0.0976562 1.265625 -0.609375 L 1.265625 -20.5 C 1.265625 -20.90625 1.351562 -21.171875 1.53125 -21.296875 C 1.707031 -21.421875 2.070312 -21.484375 2.625 -21.484375 C 3.96875 -21.484375 4.648438 -21.15625 4.671875 -20.5 L 5.140625 -12.03125 L 9.734375 -12.03125 Z M 9.734375 -20.53125 "/></g></g></g><g fill="#8f68ff" fill-opacity="1"><g transform="translate(217.948372, 77.30437)"><g><path d="M 1.03125 -10.375 C 1.03125 -13.34375 1.265625 -15.617188 1.734375 -17.203125 C 2.203125 -18.785156 2.941406 -19.894531 3.953125 -20.53125 C 4.972656 -21.164062 6.441406 -21.484375 8.359375 -21.484375 C 10.285156 -21.484375 11.753906 -21.164062 12.765625 -20.53125 C 13.785156 -19.894531 14.519531 -18.785156 14.96875 -17.203125 C 15.425781 -15.628906 15.65625 -13.351562 15.65625 -10.375 C 15.65625 -6.289062 15.132812 -3.460938 14.09375 -1.890625 C 13.050781 -0.328125 11.140625 0.453125 8.359375 0.453125 C 5.578125 0.453125 3.660156 -0.328125 2.609375 -1.890625 C 1.554688 -3.460938 1.03125 -6.289062 1.03125 -10.375 Z M 5.703125 -15.59375 C 5.585938 -14.894531 5.519531 -14.1875 5.5 -13.46875 C 5.488281 -12.75 5.484375 -11.53125 5.484375 -9.8125 C 5.484375 -8.101562 5.535156 -6.671875 5.640625 -5.515625 C 5.753906 -4.359375 5.90625 -3.597656 6.09375 -3.234375 C 6.28125 -2.867188 6.535156 -2.6875 6.859375 -2.6875 C 8.492188 -2.6875 9.5625 -2.851562 10.0625 -3.1875 C 10.25 -3.320312 10.429688 -3.535156 10.609375 -3.828125 C 10.785156 -4.128906 10.910156 -4.4375 10.984375 -4.75 C 11.066406 -5.070312 11.132812 -5.539062 11.1875 -6.15625 C 11.257812 -6.957031 11.296875 -8.394531 11.296875 -10.46875 C 11.296875 -12.550781 11.242188 -14.191406 11.140625 -15.390625 C 11.035156 -16.597656 10.882812 -17.421875 10.6875 -17.859375 C 10.5 -18.296875 10.242188 -18.515625 9.921875 -18.515625 C 9.179688 -18.515625 8.582031 -18.476562 8.125 -18.40625 C 7.664062 -18.34375 7.257812 -18.1875 6.90625 -17.9375 C 6.550781 -17.6875 6.289062 -17.40625 6.125 -17.09375 C 5.957031 -16.789062 5.816406 -16.289062 5.703125 -15.59375 Z M 5.703125 -15.59375 "/></g></g></g><g fill="#8f68ff" fill-opacity="1"><g transform="translate(234.649506, 77.30437)"><g><path d="M 1.03125 -10.375 C 1.03125 -13.34375 1.265625 -15.617188 1.734375 -17.203125 C 2.203125 -18.785156 2.941406 -19.894531 3.953125 -20.53125 C 4.972656 -21.164062 6.441406 -21.484375 8.359375 -21.484375 C 10.285156 -21.484375 11.753906 -21.164062 12.765625 -20.53125 C 13.785156 -19.894531 14.519531 -18.785156 14.96875 -17.203125 C 15.425781 -15.628906 15.65625 -13.351562 15.65625 -10.375 C 15.65625 -6.289062 15.132812 -3.460938 14.09375 -1.890625 C 13.050781 -0.328125 11.140625 0.453125 8.359375 0.453125 C 5.578125 0.453125 3.660156 -0.328125 2.609375 -1.890625 C 1.554688 -3.460938 1.03125 -6.289062 1.03125 -10.375 Z M 5.703125 -15.59375 C 5.585938 -14.894531 5.519531 -14.1875 5.5 -13.46875 C 5.488281 -12.75 5.484375 -11.53125 5.484375 -9.8125 C 5.484375 -8.101562 5.535156 -6.671875 5.640625 -5.515625 C 5.753906 -4.359375 5.90625 -3.597656 6.09375 -3.234375 C 6.28125 -2.867188 6.535156 -2.6875 6.859375 -2.6875 C 8.492188 -2.6875 9.5625 -2.851562 10.0625 -3.1875 C 10.25 -3.320312 10.429688 -3.535156 10.609375 -3.828125 C 10.785156 -4.128906 10.910156 -4.4375 10.984375 -4.75 C 11.066406 -5.070312 11.132812 -5.539062 11.1875 -6.15625 C 11.257812 -6.957031 11.296875 -8.394531 11.296875 -10.46875 C 11.296875 -12.550781 11.242188 -14.191406 11.140625 -15.390625 C 11.035156 -16.597656 10.882812 -17.421875 10.6875 -17.859375 C 10.5 -18.296875 10.242188 -18.515625 9.921875 -18.515625 C 9.179688 -18.515625 8.582031 -18.476562 8.125 -18.40625 C 7.664062 -18.34375 7.257812 -18.1875 6.90625 -17.9375 C 6.550781 -17.6875 6.289062 -17.40625 6.125 -17.09375 C 5.957031 -16.789062 5.816406 -16.289062 5.703125 -15.59375 Z M 5.703125 -15.59375 "/></g></g></g><g fill="#8f68ff" fill-opacity="1"><g transform="translate(251.35064, 77.30437)"><g><path d="M 1.265625 -20.4375 C 1.265625 -20.851562 1.359375 -21.128906 1.546875 -21.265625 C 1.742188 -21.410156 2.125 -21.484375 2.6875 -21.484375 C 4.03125 -21.484375 4.710938 -21.144531 4.734375 -20.46875 L 5.140625 -12.078125 L 5.171875 -3.390625 L 10.59375 -3.390625 C 11.507812 -3.390625 11.96875 -3.050781 11.96875 -2.375 C 11.96875 -1.164062 11.789062 -0.441406 11.4375 -0.203125 C 11.25 -0.0664062 11.007812 0 10.71875 0 L 1.703125 0 L 1.265625 -0.453125 Z M 1.265625 -20.4375 "/></g></g></g><g fill="#8f68ff" fill-opacity="1"><g transform="translate(299.579521, 77.54777)"><g><path d="M 0.640625 -11.5625 C 0.640625 -14.90625 1.773438 -17.734375 4.046875 -20.046875 C 6.328125 -22.359375 9.078125 -23.515625 12.296875 -23.515625 C 15.523438 -23.515625 18.265625 -22.363281 20.515625 -20.0625 C 22.773438 -17.757812 23.90625 -14.925781 23.90625 -11.5625 C 23.90625 -8.1875 22.796875 -5.34375 20.578125 -3.03125 C 18.359375 -0.726562 15.597656 0.421875 12.296875 0.421875 C 8.910156 0.421875 6.117188 -0.71875 3.921875 -3 C 1.734375 -5.289062 0.640625 -8.144531 0.640625 -11.5625 Z M 6.328125 -11.5625 C 6.328125 -10.351562 6.515625 -9.25 6.890625 -8.25 C 7.265625 -7.25 7.914062 -6.398438 8.84375 -5.703125 C 9.78125 -5.015625 10.929688 -4.671875 12.296875 -4.671875 C 14.253906 -4.671875 15.734375 -5.34375 16.734375 -6.6875 C 17.734375 -8.03125 18.234375 -9.65625 18.234375 -11.5625 C 18.234375 -13.445312 17.722656 -15.066406 16.703125 -16.421875 C 15.679688 -17.773438 14.210938 -18.453125 12.296875 -18.453125 C 10.390625 -18.453125 8.914062 -17.773438 7.875 -16.421875 C 6.84375 -15.066406 6.328125 -13.445312 6.328125 -11.5625 Z M 6.328125 -11.5625 "/></g></g></g><g fill="#8f68ff" fill-opacity="1"><g transform="translate(324.132166, 77.54777)"><g><path d="M 1.6875 -23.09375 L 10.109375 -23.09375 C 12.460938 -23.09375 14.363281 -22.484375 15.8125 -21.265625 C 17.269531 -20.054688 18 -18.296875 18 -15.984375 C 18 -13.671875 17.257812 -11.851562 15.78125 -10.53125 C 14.3125 -9.21875 12.421875 -8.5625 10.109375 -8.5625 L 6.9375 -8.5625 L 6.9375 0 L 1.6875 0 Z M 6.9375 -12.765625 L 8.421875 -12.765625 C 9.597656 -12.765625 10.5625 -13.003906 11.3125 -13.484375 C 12.070312 -13.960938 12.453125 -14.738281 12.453125 -15.8125 C 12.453125 -16.914062 12.070312 -17.707031 11.3125 -18.1875 C 10.5625 -18.664062 9.597656 -18.90625 8.421875 -18.90625 L 6.9375 -18.90625 Z M 6.9375 -12.765625 "/></g></g></g><g fill="#8f68ff" fill-opacity="1"><g transform="translate(342.777624, 77.54777)"><g><path d="M 14.890625 -23.09375 L 14.890625 -18.484375 L 6.9375 -18.484375 L 6.9375 -13.890625 L 14.5625 -13.890625 L 14.5625 -9.265625 L 6.9375 -9.265625 L 6.9375 -4.625 L 14.890625 -4.625 L 14.890625 0 L 1.6875 0 L 1.6875 -23.09375 Z M 14.890625 -23.09375 "/></g></g></g><g fill="#8f68ff" fill-opacity="1"><g transform="translate(359.015404, 77.54777)"><g><path d="M 6.9375 -14.34375 L 6.9375 0 L 1.6875 0 L 1.6875 -23.09375 L 6.9375 -23.09375 L 16.125 -8.765625 L 16.1875 -8.765625 L 16.1875 -23.09375 L 21.453125 -23.09375 L 21.453125 0 L 16.1875 0 L 7 -14.34375 Z M 6.9375 -14.34375 "/></g></g></g><g fill="#8f68ff" fill-opacity="1"><g transform="translate(382.14025, 77.54777)"><g><path d="M 13.96875 -4.765625 C 14.769531 -4.765625 15.546875 -4.882812 16.296875 -5.125 C 17.054688 -5.363281 17.613281 -5.597656 17.96875 -5.828125 L 18.515625 -6.1875 L 20.75 -1.703125 C 20.675781 -1.648438 20.570312 -1.578125 20.4375 -1.484375 C 20.3125 -1.390625 20.007812 -1.21875 19.53125 -0.96875 C 19.050781 -0.71875 18.539062 -0.5 18 -0.3125 C 17.457031 -0.125 16.75 0.0390625 15.875 0.1875 C 15 0.34375 14.09375 0.421875 13.15625 0.421875 C 11.007812 0.421875 8.972656 -0.101562 7.046875 -1.15625 C 5.128906 -2.21875 3.582031 -3.671875 2.40625 -5.515625 C 1.226562 -7.359375 0.640625 -9.359375 0.640625 -11.515625 C 0.640625 -13.128906 0.984375 -14.679688 1.671875 -16.171875 C 2.367188 -17.671875 3.289062 -18.953125 4.4375 -20.015625 C 5.582031 -21.078125 6.921875 -21.925781 8.453125 -22.5625 C 9.984375 -23.195312 11.550781 -23.515625 13.15625 -23.515625 C 14.65625 -23.515625 16.035156 -23.335938 17.296875 -22.984375 C 18.554688 -22.628906 19.445312 -22.273438 19.96875 -21.921875 L 20.75 -21.390625 L 18.515625 -16.90625 C 18.378906 -17.019531 18.179688 -17.15625 17.921875 -17.3125 C 17.660156 -17.476562 17.132812 -17.691406 16.34375 -17.953125 C 15.5625 -18.210938 14.769531 -18.34375 13.96875 -18.34375 C 12.695312 -18.34375 11.554688 -18.132812 10.546875 -17.71875 C 9.546875 -17.3125 8.75 -16.769531 8.15625 -16.09375 C 7.570312 -15.425781 7.125 -14.703125 6.8125 -13.921875 C 6.507812 -13.148438 6.359375 -12.363281 6.359375 -11.5625 C 6.359375 -9.8125 7.015625 -8.238281 8.328125 -6.84375 C 9.640625 -5.457031 11.519531 -4.765625 13.96875 -4.765625 Z M 13.96875 -4.765625 "/></g></g></g><g fill="#8f68ff" fill-opacity="1"><g transform="translate(403.221376, 77.54777)"><g><path d="M 6.9375 -23.09375 L 6.9375 -4.625 L 14.890625 -4.625 L 14.890625 0 L 1.6875 0 L 1.6875 -23.09375 Z M 6.9375 -23.09375 "/></g></g></g><g fill="#8f68ff" fill-opacity="1"><g transform="translate(419.039216, 77.54777)"><g><path d="M 13.40625 -23.09375 L 22.734375 0 L 17.078125 0 L 15.375 -4.625 L 6.578125 -4.625 L 4.875 0 L -0.78125 0 L 8.546875 -23.09375 Z M 13.578125 -9.234375 L 11 -15.953125 L 10.953125 -15.953125 L 8.375 -9.234375 Z M 13.578125 -9.234375 "/></g></g></g><g fill="#8f68ff" fill-opacity="1"><g transform="translate(440.988227, 77.54777)"><g><path d="M 10.1875 -23.515625 C 11.4375 -23.515625 12.660156 -23.332031 13.859375 -22.96875 C 15.054688 -22.601562 15.941406 -22.242188 16.515625 -21.890625 L 17.359375 -21.34375 L 15.234375 -17.140625 C 15.066406 -17.242188 14.832031 -17.382812 14.53125 -17.5625 C 14.226562 -17.75 13.664062 -17.988281 12.84375 -18.28125 C 12.03125 -18.582031 11.269531 -18.734375 10.5625 -18.734375 C 9.675781 -18.734375 8.992188 -18.546875 8.515625 -18.171875 C 8.046875 -17.796875 7.8125 -17.289062 7.8125 -16.65625 C 7.8125 -16.34375 7.921875 -16.050781 8.140625 -15.78125 C 8.367188 -15.507812 8.753906 -15.21875 9.296875 -14.90625 C 9.835938 -14.601562 10.3125 -14.359375 10.71875 -14.171875 C 11.132812 -13.984375 11.769531 -13.703125 12.625 -13.328125 C 14.125 -12.691406 15.398438 -11.828125 16.453125 -10.734375 C 17.503906 -9.640625 18.03125 -8.40625 18.03125 -7.03125 C 18.03125 -5.707031 17.789062 -4.550781 17.3125 -3.5625 C 16.84375 -2.570312 16.191406 -1.796875 15.359375 -1.234375 C 14.523438 -0.671875 13.601562 -0.253906 12.59375 0.015625 C 11.59375 0.285156 10.503906 0.421875 9.328125 0.421875 C 8.316406 0.421875 7.328125 0.316406 6.359375 0.109375 C 5.390625 -0.0976562 4.578125 -0.351562 3.921875 -0.65625 C 3.265625 -0.96875 2.675781 -1.269531 2.15625 -1.5625 C 1.632812 -1.863281 1.253906 -2.117188 1.015625 -2.328125 L 0.640625 -2.625 L 3.28125 -7.0625 C 3.5 -6.875 3.800781 -6.632812 4.1875 -6.34375 C 4.582031 -6.050781 5.28125 -5.660156 6.28125 -5.171875 C 7.28125 -4.691406 8.164062 -4.453125 8.9375 -4.453125 C 11.15625 -4.453125 12.265625 -5.207031 12.265625 -6.71875 C 12.265625 -7.039062 12.179688 -7.335938 12.015625 -7.609375 C 11.859375 -7.878906 11.578125 -8.144531 11.171875 -8.40625 C 10.773438 -8.675781 10.421875 -8.890625 10.109375 -9.046875 C 9.804688 -9.210938 9.304688 -9.457031 8.609375 -9.78125 C 7.910156 -10.113281 7.394531 -10.363281 7.0625 -10.53125 C 5.65625 -11.21875 4.566406 -12.078125 3.796875 -13.109375 C 3.035156 -14.148438 2.65625 -15.269531 2.65625 -16.46875 C 2.65625 -18.539062 3.421875 -20.234375 4.953125 -21.546875 C 6.484375 -22.859375 8.226562 -23.515625 10.1875 -23.515625 Z M 10.1875 -23.515625 "/></g></g></g><g fill="#8f68ff" fill-opacity="1"><g transform="translate(459.80166, 77.54777)"><g><path d="M 10.1875 -23.515625 C 11.4375 -23.515625 12.660156 -23.332031 13.859375 -22.96875 C 15.054688 -22.601562 15.941406 -22.242188 16.515625 -21.890625 L 17.359375 -21.34375 L 15.234375 -17.140625 C 15.066406 -17.242188 14.832031 -17.382812 14.53125 -17.5625 C 14.226562 -17.75 13.664062 -17.988281 12.84375 -18.28125 C 12.03125 -18.582031 11.269531 -18.734375 10.5625 -18.734375 C 9.675781 -18.734375 8.992188 -18.546875 8.515625 -18.171875 C 8.046875 -17.796875 7.8125 -17.289062 7.8125 -16.65625 C 7.8125 -16.34375 7.921875 -16.050781 8.140625 -15.78125 C 8.367188 -15.507812 8.753906 -15.21875 9.296875 -14.90625 C 9.835938 -14.601562 10.3125 -14.359375 10.71875 -14.171875 C 11.132812 -13.984375 11.769531 -13.703125 12.625 -13.328125 C 14.125 -12.691406 15.398438 -11.828125 16.453125 -10.734375 C 17.503906 -9.640625 18.03125 -8.40625 18.03125 -7.03125 C 18.03125 -5.707031 17.789062 -4.550781 17.3125 -3.5625 C 16.84375 -2.570312 16.191406 -1.796875 15.359375 -1.234375 C 14.523438 -0.671875 13.601562 -0.253906 12.59375 0.015625 C 11.59375 0.285156 10.503906 0.421875 9.328125 0.421875 C 8.316406 0.421875 7.328125 0.316406 6.359375 0.109375 C 5.390625 -0.0976562 4.578125 -0.351562 3.921875 -0.65625 C 3.265625 -0.96875 2.675781 -1.269531 2.15625 -1.5625 C 1.632812 -1.863281 1.253906 -2.117188 1.015625 -2.328125 L 0.640625 -2.625 L 3.28125 -7.0625 C 3.5 -6.875 3.800781 -6.632812 4.1875 -6.34375 C 4.582031 -6.050781 5.28125 -5.660156 6.28125 -5.171875 C 7.28125 -4.691406 8.164062 -4.453125 8.9375 -4.453125 C 11.15625 -4.453125 12.265625 -5.207031 12.265625 -6.71875 C 12.265625 -7.039062 12.179688 -7.335938 12.015625 -7.609375 C 11.859375 -7.878906 11.578125 -8.144531 11.171875 -8.40625 C 10.773438 -8.675781 10.421875 -8.890625 10.109375 -9.046875 C 9.804688 -9.210938 9.304688 -9.457031 8.609375 -9.78125 C 7.910156 -10.113281 7.394531 -10.363281 7.0625 -10.53125 C 5.65625 -11.21875 4.566406 -12.078125 3.796875 -13.109375 C 3.035156 -14.148438 2.65625 -15.269531 2.65625 -16.46875 C 2.65625 -18.539062 3.421875 -20.234375 4.953125 -21.546875 C 6.484375 -22.859375 8.226562 -23.515625 10.1875 -23.515625 Z M 10.1875 -23.515625 "/></g></g></g><g fill="#8f68ff" fill-opacity="1"><g transform="translate(478.615093, 77.54777)"><g><path d="M 1.6875 -23.09375 L 9.9375 -23.09375 C 12.15625 -23.09375 13.960938 -22.5 15.359375 -21.3125 C 16.765625 -20.132812 17.46875 -18.441406 17.46875 -16.234375 C 17.46875 -14.535156 17.039062 -13.113281 16.1875 -11.96875 C 15.34375 -10.820312 14.191406 -10.015625 12.734375 -9.546875 L 20.6875 0 L 14 0 L 6.9375 -9.125 L 6.9375 0 L 1.6875 0 Z M 6.9375 -12.859375 L 7.5625 -12.859375 C 8.039062 -12.859375 8.445312 -12.863281 8.78125 -12.875 C 9.125 -12.894531 9.507812 -12.960938 9.9375 -13.078125 C 10.363281 -13.191406 10.707031 -13.347656 10.96875 -13.546875 C 11.238281 -13.753906 11.460938 -14.050781 11.640625 -14.4375 C 11.828125 -14.832031 11.921875 -15.3125 11.921875 -15.875 C 11.921875 -16.4375 11.828125 -16.910156 11.640625 -17.296875 C 11.460938 -17.691406 11.238281 -17.992188 10.96875 -18.203125 C 10.707031 -18.410156 10.363281 -18.566406 9.9375 -18.671875 C 9.507812 -18.785156 9.125 -18.851562 8.78125 -18.875 C 8.445312 -18.894531 8.039062 -18.90625 7.5625 -18.90625 L 6.9375 -18.90625 Z M 6.9375 -12.859375 "/></g></g></g><g fill="#8f68ff" fill-opacity="1"><g transform="translate(498.660357, 77.54777)"><g><path d="M 0.640625 -11.5625 C 0.640625 -14.90625 1.773438 -17.734375 4.046875 -20.046875 C 6.328125 -22.359375 9.078125 -23.515625 12.296875 -23.515625 C 15.523438 -23.515625 18.265625 -22.363281 20.515625 -20.0625 C 22.773438 -17.757812 23.90625 -14.925781 23.90625 -11.5625 C 23.90625 -8.1875 22.796875 -5.34375 20.578125 -3.03125 C 18.359375 -0.726562 15.597656 0.421875 12.296875 0.421875 C 8.910156 0.421875 6.117188 -0.71875 3.921875 -3 C 1.734375 -5.289062 0.640625 -8.144531 0.640625 -11.5625 Z M 6.328125 -11.5625 C 6.328125 -10.351562 6.515625 -9.25 6.890625 -8.25 C 7.265625 -7.25 7.914062 -6.398438 8.84375 -5.703125 C 9.78125 -5.015625 10.929688 -4.671875 12.296875 -4.671875 C 14.253906 -4.671875 15.734375 -5.34375 16.734375 -6.6875 C 17.734375 -8.03125 18.234375 -9.65625 18.234375 -11.5625 C 18.234375 -13.445312 17.722656 -15.066406 16.703125 -16.421875 C 15.679688 -17.773438 14.210938 -18.453125 12.296875 -18.453125 C 10.390625 -18.453125 8.914062 -17.773438 7.875 -16.421875 C 6.84375 -15.066406 6.328125 -13.445312 6.328125 -11.5625 Z M 6.328125 -11.5625 "/></g></g></g><g fill="#8f68ff" fill-opacity="1"><g transform="translate(523.212991, 77.54777)"><g><path d="M 0.640625 -11.5625 C 0.640625 -14.90625 1.773438 -17.734375 4.046875 -20.046875 C 6.328125 -22.359375 9.078125 -23.515625 12.296875 -23.515625 C 15.523438 -23.515625 18.265625 -22.363281 20.515625 -20.0625 C 22.773438 -17.757812 23.90625 -14.925781 23.90625 -11.5625 C 23.90625 -8.1875 22.796875 -5.34375 20.578125 -3.03125 C 18.359375 -0.726562 15.597656 0.421875 12.296875 0.421875 C 8.910156 0.421875 6.117188 -0.71875 3.921875 -3 C 1.734375 -5.289062 0.640625 -8.144531 0.640625 -11.5625 Z M 6.328125 -11.5625 C 6.328125 -10.351562 6.515625 -9.25 6.890625 -8.25 C 7.265625 -7.25 7.914062 -6.398438 8.84375 -5.703125 C 9.78125 -5.015625 10.929688 -4.671875 12.296875 -4.671875 C 14.253906 -4.671875 15.734375 -5.34375 16.734375 -6.6875 C 17.734375 -8.03125 18.234375 -9.65625 18.234375 -11.5625 C 18.234375 -13.445312 17.722656 -15.066406 16.703125 -16.421875 C 15.679688 -17.773438 14.210938 -18.453125 12.296875 -18.453125 C 10.390625 -18.453125 8.914062 -17.773438 7.875 -16.421875 C 6.84375 -15.066406 6.328125 -13.445312 6.328125 -11.5625 Z M 6.328125 -11.5625 "/></g></g></g><g fill="#8f68ff" fill-opacity="1"><g transform="translate(547.765647, 77.54777)"><g><path d="M 20.78125 0 L 19.6875 -13.6875 L 19.546875 -13.6875 L 14.8125 -0.140625 L 11.671875 -0.140625 L 6.9375 -13.6875 L 6.796875 -13.6875 L 5.71875 0 L 0.453125 0 L 2.515625 -23.09375 L 8.125 -23.09375 L 13.25 -9.765625 L 18.375 -23.09375 L 23.96875 -23.09375 L 26.046875 0 Z M 20.78125 0 "/></g></g></g><g fill="#8f68ff" fill-opacity="1"><g transform="translate(610.267003, 78.124274)"><g><path d="M 7.390625 -8.984375 C 3.503906 -9.878906 1.5625 -11.539062 1.5625 -13.96875 C 1.5625 -15.757812 2.1875 -17.101562 3.4375 -18 C 4.6875 -18.875 6.15625 -19.3125 7.84375 -19.3125 C 11.550781 -19.3125 13.753906 -17.929688 14.453125 -15.171875 L 12.3125 -15.171875 C 11.945312 -16.816406 10.457031 -17.640625 7.84375 -17.640625 C 6.007812 -17.640625 4.726562 -17.097656 4 -16.015625 C 3.71875 -15.609375 3.578125 -15.09375 3.578125 -14.46875 C 3.578125 -13.300781 4.210938 -12.398438 5.484375 -11.765625 C 6.085938 -11.441406 7.359375 -11.03125 9.296875 -10.53125 C 11.234375 -10.019531 12.644531 -9.457031 13.53125 -8.84375 C 14.738281 -7.988281 15.34375 -6.785156 15.34375 -5.234375 C 15.34375 -3.316406 14.585938 -1.863281 13.078125 -0.875 C 11.804688 -0.0507812 10.238281 0.359375 8.375 0.359375 C 4.15625 0.359375 1.707031 -1.242188 1.03125 -4.453125 L 3.359375 -4.453125 C 3.710938 -2.429688 5.382812 -1.421875 8.375 -1.421875 C 10.5 -1.421875 11.984375 -2.007812 12.828125 -3.1875 C 13.160156 -3.65625 13.328125 -4.289062 13.328125 -5.09375 C 13.328125 -5.875 13.019531 -6.519531 12.40625 -7.03125 C 11.53125 -7.738281 9.859375 -8.390625 7.390625 -8.984375 Z M 7.390625 -8.984375 "/></g></g></g><g fill="#8f68ff" fill-opacity="1"><g transform="translate(626.336807, 78.124274)"><g><path d="M 12.1875 -6.21875 C 12.1875 -7.445312 11.742188 -8.5 10.859375 -9.375 C 9.984375 -10.257812 8.929688 -10.703125 7.703125 -10.703125 C 6.472656 -10.703125 5.414062 -10.257812 4.53125 -9.375 C 3.65625 -8.5 3.21875 -7.445312 3.21875 -6.21875 C 3.21875 -5 3.65625 -3.953125 4.53125 -3.078125 C 5.414062 -2.203125 6.472656 -1.765625 7.703125 -1.765625 C 8.929688 -1.765625 9.984375 -2.203125 10.859375 -3.078125 C 11.742188 -3.953125 12.1875 -5 12.1875 -6.21875 Z M 14.140625 -6.21875 C 14.140625 -4.425781 13.515625 -2.914062 12.265625 -1.6875 C 10.972656 -0.425781 9.453125 0.203125 7.703125 0.203125 C 5.941406 0.203125 4.425781 -0.425781 3.15625 -1.6875 C 1.894531 -2.914062 1.265625 -4.425781 1.265625 -6.21875 C 1.265625 -7.988281 1.894531 -9.507812 3.15625 -10.78125 C 4.414062 -12.03125 5.929688 -12.65625 7.703125 -12.65625 C 9.472656 -12.65625 10.992188 -12.03125 12.265625 -10.78125 C 13.515625 -9.507812 14.140625 -7.988281 14.140625 -6.21875 Z M 14.140625 -6.21875 "/></g></g></g><g fill="#8f68ff" fill-opacity="1"><g transform="translate(641.734706, 78.124274)"><g><path d="M 13.609375 -7.890625 L 11.484375 -7.890625 C 11.140625 -8.679688 10.613281 -9.316406 9.90625 -9.796875 C 9.195312 -10.285156 8.476562 -10.53125 7.75 -10.53125 C 7.019531 -10.53125 6.394531 -10.414062 5.875 -10.1875 C 5.351562 -9.945312 4.90625 -9.628906 4.53125 -9.234375 C 3.695312 -8.359375 3.28125 -7.332031 3.28125 -6.15625 C 3.28125 -4.96875 3.695312 -3.941406 4.53125 -3.078125 C 5.351562 -2.203125 6.363281 -1.765625 7.5625 -1.765625 C 8.34375 -1.765625 9.070312 -1.96875 9.75 -2.375 C 10.394531 -2.789062 10.90625 -3.34375 11.28125 -4.03125 L 13.5 -4.03125 C 12.800781 -2.050781 11.460938 -0.726562 9.484375 -0.0625 C 8.867188 0.164062 8.171875 0.28125 7.390625 0.28125 C 6.609375 0.28125 5.832031 0.101562 5.0625 -0.25 C 4.300781 -0.582031 3.640625 -1.050781 3.078125 -1.65625 C 1.867188 -2.925781 1.265625 -4.425781 1.265625 -6.15625 C 1.265625 -7.914062 1.867188 -9.421875 3.078125 -10.671875 C 4.304688 -11.941406 5.800781 -12.578125 7.5625 -12.578125 C 8.976562 -12.578125 10.253906 -12.132812 11.390625 -11.25 C 12.472656 -10.414062 13.210938 -9.296875 13.609375 -7.890625 Z M 13.609375 -7.890625 "/></g></g></g><g fill="#8f68ff" fill-opacity="1"><g transform="translate(656.320715, 78.124274)"><g><path d="M 4.09375 -16.578125 C 4.332031 -16.335938 4.453125 -16.046875 4.453125 -15.703125 C 4.453125 -15.347656 4.332031 -15.050781 4.09375 -14.8125 C 3.84375 -14.570312 3.550781 -14.453125 3.21875 -14.453125 C 2.863281 -14.453125 2.566406 -14.570312 2.328125 -14.8125 C 2.078125 -15.050781 1.953125 -15.347656 1.953125 -15.703125 C 1.953125 -16.046875 2.078125 -16.335938 2.328125 -16.578125 C 2.566406 -16.816406 2.863281 -16.9375 3.21875 -16.9375 C 3.550781 -16.9375 3.84375 -16.816406 4.09375 -16.578125 Z M 4.203125 0 L 2.234375 0 L 2.234375 -12.3125 L 4.203125 -12.3125 Z M 4.203125 0 "/></g></g></g><g fill="#8f68ff" fill-opacity="1"><g transform="translate(662.731844, 78.124274)"><g><path d="M 11.90625 -6.15625 C 11.90625 -7.351562 11.492188 -8.398438 10.671875 -9.296875 C 9.828125 -10.191406 8.789062 -10.640625 7.5625 -10.640625 C 6.332031 -10.640625 5.304688 -10.191406 4.484375 -9.296875 C 3.640625 -8.398438 3.21875 -7.351562 3.21875 -6.15625 C 3.21875 -4.96875 3.640625 -3.925781 4.484375 -3.03125 C 5.304688 -2.132812 6.332031 -1.6875 7.5625 -1.6875 C 8.789062 -1.6875 9.828125 -2.132812 10.671875 -3.03125 C 11.492188 -3.925781 11.90625 -4.96875 11.90625 -6.15625 Z M 13.859375 0 L 11.90625 0 L 11.90625 -2.09375 C 11.789062 -1.945312 11.675781 -1.8125 11.5625 -1.6875 C 10.382812 -0.375 8.945312 0.28125 7.25 0.28125 C 5.550781 0.28125 4.125 -0.375 2.96875 -1.6875 C 1.832031 -2.945312 1.265625 -4.4375 1.265625 -6.15625 C 1.265625 -7.875 1.832031 -9.367188 2.96875 -10.640625 C 4.125 -11.941406 5.550781 -12.59375 7.25 -12.59375 C 8.945312 -12.59375 10.382812 -11.941406 11.5625 -10.640625 C 11.675781 -10.503906 11.789062 -10.363281 11.90625 -10.21875 L 11.90625 -12.3125 L 13.859375 -12.3125 Z M 13.859375 0 "/></g></g></g><g fill="#8f68ff" fill-opacity="1"><g transform="translate(678.689668, 78.124274)"><g><path d="M 4.0625 0 L 2.09375 0 L 2.09375 -21 L 4.0625 -21 Z M 4.0625 0 "/></g></g></g><g fill="#8f68ff" fill-opacity="1"><g transform="translate(684.848832, 78.124274)"><g/></g></g><g fill="#8f68ff" fill-opacity="1"><g transform="translate(692.407803, 78.124274)"><g><path d="M 14.53125 -5.3125 C 14.53125 -4.53125 14.351562 -3.785156 14 -3.078125 C 13.644531 -2.367188 13.171875 -1.789062 12.578125 -1.34375 C 11.421875 -0.445312 9.867188 0 7.921875 0 L 2.09375 0 L 2.09375 -19.046875 L 7.25 -19.046875 C 10.03125 -19.046875 11.84375 -18.1875 12.6875 -16.46875 C 12.976562 -15.851562 13.125 -15.226562 13.125 -14.59375 C 13.125 -13.957031 13.078125 -13.460938 12.984375 -13.109375 C 12.878906 -12.734375 12.734375 -12.378906 12.546875 -12.046875 C 12.117188 -11.316406 11.566406 -10.800781 10.890625 -10.5 C 12.015625 -10.195312 12.898438 -9.597656 13.546875 -8.703125 C 14.203125 -7.796875 14.53125 -6.664062 14.53125 -5.3125 Z M 11.171875 -14.28125 C 11.171875 -16.207031 9.863281 -17.171875 7.25 -17.171875 L 4.0625 -17.171875 L 4.0625 -11.234375 L 7.8125 -11.234375 C 8.820312 -11.234375 9.632812 -11.484375 10.25 -11.984375 C 10.863281 -12.484375 11.171875 -13.25 11.171875 -14.28125 Z M 12.578125 -5.6875 C 12.578125 -6.25 12.472656 -6.742188 12.265625 -7.171875 C 12.035156 -7.597656 11.753906 -7.96875 11.421875 -8.28125 C 10.671875 -8.9375 9.796875 -9.265625 8.796875 -9.265625 L 4.0625 -9.265625 L 4.0625 -1.875 L 8.484375 -1.875 C 9.679688 -1.875 10.660156 -2.21875 11.421875 -2.90625 C 12.191406 -3.613281 12.578125 -4.539062 12.578125 -5.6875 Z M 12.578125 -5.6875 "/></g></g></g><g fill="#8f68ff" fill-opacity="1"><g transform="translate(707.497741, 78.124274)"><g><path d="M 10.609375 -2.09375 C 9.691406 -0.53125 8.320312 0.25 6.5 0.25 C 5.113281 0.25 4.03125 -0.207031 3.25 -1.125 C 2.476562 -2.03125 2.09375 -3.195312 2.09375 -4.625 L 2.09375 -12.3125 L 4.0625 -12.3125 L 4.0625 -4.625 C 4.0625 -3.820312 4.25 -3.140625 4.625 -2.578125 C 4.976562 -1.992188 5.570312 -1.703125 6.40625 -1.703125 C 7.9375 -1.703125 9.019531 -2.1875 9.65625 -3.15625 C 10.289062 -4.113281 10.609375 -5.453125 10.609375 -7.171875 L 10.609375 -12.3125 L 12.578125 -12.3125 L 12.578125 0 L 10.609375 0 Z M 10.609375 -2.09375 "/></g></g></g><g fill="#8f68ff" fill-opacity="1"><g transform="translate(721.747797, 78.124274)"><g><path d="M 4.09375 -16.578125 C 4.332031 -16.335938 4.453125 -16.046875 4.453125 -15.703125 C 4.453125 -15.347656 4.332031 -15.050781 4.09375 -14.8125 C 3.84375 -14.570312 3.550781 -14.453125 3.21875 -14.453125 C 2.863281 -14.453125 2.566406 -14.570312 2.328125 -14.8125 C 2.078125 -15.050781 1.953125 -15.347656 1.953125 -15.703125 C 1.953125 -16.046875 2.078125 -16.335938 2.328125 -16.578125 C 2.566406 -16.816406 2.863281 -16.9375 3.21875 -16.9375 C 3.550781 -16.9375 3.84375 -16.816406 4.09375 -16.578125 Z M 4.203125 0 L 2.234375 0 L 2.234375 -12.3125 L 4.203125 -12.3125 Z M 4.203125 0 "/></g></g></g><g fill="#8f68ff" fill-opacity="1"><g transform="translate(728.158926, 78.124274)"><g><path d="M 4.0625 0 L 2.09375 0 L 2.09375 -21 L 4.0625 -21 Z M 4.0625 0 "/></g></g></g><g fill="#8f68ff" fill-opacity="1"><g transform="translate(734.31809, 78.124274)"><g><path d="M 11.90625 -6.15625 C 11.90625 -7.351562 11.492188 -8.398438 10.671875 -9.296875 C 9.828125 -10.191406 8.789062 -10.640625 7.5625 -10.640625 C 6.332031 -10.640625 5.304688 -10.191406 4.484375 -9.296875 C 3.640625 -8.398438 3.21875 -7.351562 3.21875 -6.15625 C 3.21875 -4.96875 3.640625 -3.925781 4.484375 -3.03125 C 5.304688 -2.132812 6.332031 -1.6875 7.5625 -1.6875 C 8.789062 -1.6875 9.828125 -2.132812 10.671875 -3.03125 C 11.492188 -3.925781 11.90625 -4.96875 11.90625 -6.15625 Z M 13.859375 0 L 11.90625 0 L 11.90625 -2.09375 C 11.789062 -1.945312 11.675781 -1.8125 11.5625 -1.6875 C 10.382812 -0.375 8.945312 0.28125 7.25 0.28125 C 5.550781 0.28125 4.125 -0.375 2.96875 -1.6875 C 1.832031 -2.945312 1.265625 -4.4375 1.265625 -6.15625 C 1.265625 -7.875 1.832031 -9.367188 2.96875 -10.640625 C 4.125 -11.941406 5.550781 -12.59375 7.25 -12.59375 C 8.945312 -12.59375 10.382812 -11.941406 11.5625 -10.640625 C 11.675781 -10.503906 11.789062 -10.363281 11.90625 -10.21875 L 11.90625 -21 L 13.859375 -21 Z M 13.859375 0 "/></g></g></g><g fill="#8f68ff" fill-opacity="1"><g transform="translate(750.275914, 78.124274)"><g><path d="M 14.140625 -6.4375 L 14.140625 -5.40625 L 3.296875 -5.40625 C 3.484375 -4.34375 4 -3.472656 4.84375 -2.796875 C 5.695312 -2.109375 6.648438 -1.765625 7.703125 -1.765625 C 8.410156 -1.765625 9.09375 -1.929688 9.75 -2.265625 C 10.382812 -2.585938 10.914062 -3.035156 11.34375 -3.609375 L 13.578125 -3.609375 C 13.054688 -2.429688 12.273438 -1.507812 11.234375 -0.84375 C 10.160156 -0.144531 9.085938 0.203125 8.015625 0.203125 C 6.910156 0.203125 5.972656 0.03125 5.203125 -0.3125 C 4.421875 -0.644531 3.738281 -1.101562 3.15625 -1.6875 C 1.894531 -2.914062 1.265625 -4.425781 1.265625 -6.21875 C 1.265625 -7.988281 1.894531 -9.507812 3.15625 -10.78125 C 4.414062 -12.03125 5.929688 -12.65625 7.703125 -12.65625 C 9.421875 -12.65625 10.921875 -12.050781 12.203125 -10.84375 C 13.492188 -9.601562 14.140625 -8.132812 14.140625 -6.4375 Z M 12.0625 -7.078125 C 11.84375 -8.128906 11.320312 -9 10.5 -9.6875 C 9.675781 -10.363281 8.742188 -10.703125 7.703125 -10.703125 C 6.097656 -10.703125 4.835938 -9.984375 3.921875 -8.546875 C 3.640625 -8.097656 3.441406 -7.609375 3.328125 -7.078125 Z M 12.0625 -7.078125 "/></g></g></g><g fill="#8f68ff" fill-opacity="1"><g transform="translate(765.533829, 78.124274)"><g><path d="M 8.421875 -9.765625 C 7.972656 -10.179688 7.488281 -10.390625 6.96875 -10.390625 C 6.46875 -10.390625 6.039062 -10.25 5.6875 -9.96875 C 5.3125 -9.664062 5.003906 -9.3125 4.765625 -8.90625 C 4.296875 -8.082031 4.0625 -7.164062 4.0625 -6.15625 L 4.0625 0 L 2.09375 0 L 2.09375 -12.3125 L 4.0625 -12.3125 L 4.0625 -9.765625 L 4.140625 -10.28125 C 4.796875 -11.8125 5.816406 -12.578125 7.203125 -12.578125 C 7.628906 -12.578125 8.035156 -12.488281 8.421875 -12.3125 Z M 8.421875 -9.765625 "/></g></g></g></svg>