<svg xmlns="http://www.w3.org/2000/svg" xmlns:xlink="http://www.w3.org/1999/xlink" width="1080" zoomAndPan="magnify" viewBox="0 0 810 149.999998" height="200" preserveAspectRatio="xMidYMid meet" version="1.0"><defs><g/></defs><rect x="-81" width="972" fill="#ffffff" y="-15" height="179.999997" fill-opacity="1"/><rect x="-81" width="972" fill="#ffffff" y="-15" height="179.999997" fill-opacity="1"/><g fill="#8f68ff" fill-opacity="1"><g transform="translate(47.354315, 83.999997)"><g><path d="M 1.6875 0.078125 C 1.53125 0.078125 1.410156 0.0195312 1.328125 -0.09375 C 1.242188 -0.21875 1.203125 -0.363281 1.203125 -0.53125 C 1.222656 -0.8125 1.28125 -0.976562 1.375 -1.03125 C 1.46875 -1.09375 1.644531 -1.125 1.90625 -1.125 C 2.445312 -1.125 2.847656 -1.21875 3.109375 -1.40625 C 3.367188 -1.601562 3.53125 -1.847656 3.59375 -2.140625 C 3.664062 -2.429688 3.707031 -2.8125 3.71875 -3.28125 L 3.71875 -14.390625 C 3.707031 -14.859375 3.664062 -15.234375 3.59375 -15.515625 C 3.53125 -15.804688 3.367188 -16.050781 3.109375 -16.25 C 2.847656 -16.445312 2.445312 -16.546875 1.90625 -16.546875 L 1.734375 -16.546875 C 1.546875 -16.546875 1.414062 -16.578125 1.34375 -16.640625 C 1.269531 -16.710938 1.222656 -16.878906 1.203125 -17.140625 C 1.203125 -17.304688 1.242188 -17.445312 1.328125 -17.5625 C 1.410156 -17.6875 1.53125 -17.75 1.6875 -17.75 C 2.914062 -17.695312 4.023438 -17.671875 5.015625 -17.671875 C 6.128906 -17.671875 7.296875 -17.695312 8.515625 -17.75 C 8.679688 -17.75 8.804688 -17.6875 8.890625 -17.5625 C 8.972656 -17.445312 9.015625 -17.304688 9.015625 -17.140625 C 8.992188 -16.859375 8.929688 -16.6875 8.828125 -16.625 C 8.734375 -16.570312 8.5625 -16.546875 8.3125 -16.546875 C 7.769531 -16.546875 7.367188 -16.445312 7.109375 -16.25 C 6.847656 -16.050781 6.6875 -15.804688 6.625 -15.515625 C 6.5625 -15.234375 6.519531 -14.859375 6.5 -14.390625 L 6.5 -2.859375 C 6.53125 -2.460938 6.570312 -2.15625 6.625 -1.9375 C 6.6875 -1.726562 6.859375 -1.535156 7.140625 -1.359375 C 7.421875 -1.179688 7.859375 -1.101562 8.453125 -1.125 L 10.96875 -1.125 C 11.625 -1.132812 12.117188 -1.238281 12.453125 -1.4375 C 12.796875 -1.632812 13.0625 -1.9375 13.25 -2.34375 C 13.445312 -2.757812 13.6875 -3.4375 13.96875 -4.375 C 14.101562 -4.707031 14.421875 -4.835938 14.921875 -4.765625 C 15.085938 -4.722656 15.242188 -4.644531 15.390625 -4.53125 C 15.546875 -4.425781 15.613281 -4.285156 15.59375 -4.109375 L 15.03125 -0.59375 C 14.976562 -0.34375 14.894531 -0.179688 14.78125 -0.109375 C 14.664062 -0.0351562 14.476562 0 14.21875 0 L 5.046875 0 C 4.035156 0 2.914062 0.0234375 1.6875 0.078125 Z M 1.6875 0.078125 "/></g></g></g><g fill="#8f68ff" fill-opacity="1"><g transform="translate(63.340132, 83.999997)"><g><path d="M 1.421875 -12.90625 C 1.253906 -12.832031 1.101562 -12.847656 0.96875 -12.953125 C 0.84375 -13.066406 0.78125 -13.210938 0.78125 -13.390625 C 0.78125 -13.566406 0.875 -13.695312 1.0625 -13.78125 C 1.863281 -14.070312 2.457031 -14.414062 2.84375 -14.8125 C 3.238281 -15.21875 3.4375 -15.703125 3.4375 -16.265625 C 3.4375 -16.585938 3.34375 -16.84375 3.15625 -17.03125 C 2.976562 -17.226562 2.71875 -17.441406 2.375 -17.671875 C 2.039062 -17.890625 1.785156 -18.09375 1.609375 -18.28125 C 1.429688 -18.46875 1.34375 -18.703125 1.34375 -18.984375 C 1.34375 -19.335938 1.476562 -19.660156 1.75 -19.953125 C 2.019531 -20.242188 2.351562 -20.390625 2.75 -20.390625 C 3.269531 -20.390625 3.742188 -20.222656 4.171875 -19.890625 C 4.597656 -19.566406 4.9375 -19.144531 5.1875 -18.625 C 5.445312 -18.101562 5.578125 -17.578125 5.578125 -17.046875 C 5.578125 -15.984375 5.171875 -15.109375 4.359375 -14.421875 C 3.554688 -13.742188 2.578125 -13.238281 1.421875 -12.90625 Z M 1.421875 -12.90625 "/></g></g></g><g fill="#8f68ff" fill-opacity="1"><g transform="translate(70.031217, 83.999997)"><g><path d="M 1.6875 0.078125 C 1.53125 0.078125 1.410156 0.0195312 1.328125 -0.09375 C 1.242188 -0.21875 1.203125 -0.363281 1.203125 -0.53125 C 1.222656 -0.8125 1.28125 -0.976562 1.375 -1.03125 C 1.46875 -1.09375 1.644531 -1.125 1.90625 -1.125 C 2.445312 -1.125 2.847656 -1.21875 3.109375 -1.40625 C 3.367188 -1.601562 3.53125 -1.847656 3.59375 -2.140625 C 3.664062 -2.429688 3.707031 -2.8125 3.71875 -3.28125 L 3.71875 -14.390625 C 3.707031 -14.859375 3.664062 -15.234375 3.59375 -15.515625 C 3.53125 -15.804688 3.367188 -16.050781 3.109375 -16.25 C 2.847656 -16.445312 2.445312 -16.546875 1.90625 -16.546875 L 1.734375 -16.546875 C 1.546875 -16.546875 1.414062 -16.578125 1.34375 -16.640625 C 1.269531 -16.710938 1.222656 -16.878906 1.203125 -17.140625 C 1.203125 -17.304688 1.242188 -17.445312 1.328125 -17.5625 C 1.410156 -17.6875 1.53125 -17.75 1.6875 -17.75 C 2.914062 -17.695312 4.023438 -17.671875 5.015625 -17.671875 L 13.796875 -17.671875 C 14.285156 -17.671875 14.53125 -17.445312 14.53125 -17 L 14.609375 -13.078125 C 14.609375 -12.910156 14.523438 -12.773438 14.359375 -12.671875 C 14.191406 -12.566406 14.023438 -12.515625 13.859375 -12.515625 C 13.640625 -12.515625 13.441406 -12.554688 13.265625 -12.640625 C 13.097656 -12.722656 13.003906 -12.847656 12.984375 -13.015625 C 12.835938 -13.929688 12.675781 -14.625 12.5 -15.09375 C 12.320312 -15.570312 12.0625 -15.925781 11.71875 -16.15625 C 11.375 -16.394531 10.882812 -16.523438 10.25 -16.546875 L 6.5 -16.546875 L 6.5 -9.4375 L 11.5625 -9.4375 C 11.695312 -9.414062 11.800781 -9.34375 11.875 -9.21875 C 11.945312 -9.101562 11.984375 -8.960938 11.984375 -8.796875 C 11.984375 -8.640625 11.945312 -8.503906 11.875 -8.390625 C 11.800781 -8.285156 11.695312 -8.234375 11.5625 -8.234375 L 6.5 -8.234375 L 6.5 -2.9375 C 6.53125 -2.550781 6.570312 -2.238281 6.625 -2 C 6.6875 -1.769531 6.859375 -1.5625 7.140625 -1.375 C 7.421875 -1.1875 7.859375 -1.101562 8.453125 -1.125 L 11.03125 -1.125 C 11.6875 -1.132812 12.179688 -1.238281 12.515625 -1.4375 C 12.847656 -1.632812 13.113281 -1.9375 13.3125 -2.34375 C 13.507812 -2.757812 13.75 -3.4375 14.03125 -4.375 C 14.15625 -4.707031 14.472656 -4.835938 14.984375 -4.765625 C 15.171875 -4.722656 15.332031 -4.644531 15.46875 -4.53125 C 15.613281 -4.425781 15.675781 -4.285156 15.65625 -4.109375 L 15.09375 -0.59375 C 15.039062 -0.34375 14.957031 -0.179688 14.84375 -0.109375 C 14.726562 -0.0351562 14.539062 0 14.28125 0 L 5.046875 0 C 4.035156 0 2.914062 0.0234375 1.6875 0.078125 Z M 8.875 -19.375 C 8.820312 -19.332031 8.738281 -19.3125 8.625 -19.3125 C 8.4375 -19.3125 8.269531 -19.378906 8.125 -19.515625 C 7.988281 -19.660156 7.921875 -19.816406 7.921875 -19.984375 C 7.921875 -20.117188 7.96875 -20.234375 8.0625 -20.328125 C 8.15625 -20.421875 8.523438 -20.789062 9.171875 -21.4375 C 9.816406 -22.09375 10.4375 -22.644531 11.03125 -23.09375 C 11.332031 -23.320312 11.582031 -23.488281 11.78125 -23.59375 C 11.988281 -23.707031 12.1875 -23.765625 12.375 -23.765625 C 12.65625 -23.765625 12.894531 -23.632812 13.09375 -23.375 C 13.28125 -23.175781 13.375 -22.960938 13.375 -22.734375 C 13.375 -22.335938 13.03125 -21.910156 12.34375 -21.453125 C 10.925781 -20.535156 9.769531 -19.84375 8.875 -19.375 Z M 8.875 -19.375 "/></g></g></g><g fill="#8f68ff" fill-opacity="1"><g transform="translate(86.660946, 83.999997)"><g><path d="M 7.25 0.34375 C 5.34375 0.34375 3.847656 -0.257812 2.765625 -1.46875 C 1.679688 -2.6875 1.140625 -4.316406 1.140625 -6.359375 C 1.179688 -7.628906 1.492188 -8.757812 2.078125 -9.75 C 2.671875 -10.75 3.460938 -11.535156 4.453125 -12.109375 C 5.441406 -12.679688 6.535156 -12.984375 7.734375 -13.015625 C 8.921875 -13.015625 9.945312 -12.789062 10.8125 -12.34375 C 11.6875 -11.894531 12.125 -11.148438 12.125 -10.109375 C 12.125 -9.523438 11.953125 -9.015625 11.609375 -8.578125 C 11.265625 -8.140625 10.800781 -7.921875 10.21875 -7.921875 C 9.863281 -7.921875 9.5625 -8.015625 9.3125 -8.203125 C 9.0625 -8.390625 8.9375 -8.550781 8.9375 -8.6875 C 8.9375 -8.695312 9.019531 -8.773438 9.1875 -8.921875 C 9.351562 -9.078125 9.503906 -9.257812 9.640625 -9.46875 C 9.785156 -9.6875 9.859375 -9.9375 9.859375 -10.21875 C 9.859375 -10.800781 9.644531 -11.238281 9.21875 -11.53125 C 8.800781 -11.832031 8.296875 -11.984375 7.703125 -11.984375 C 6.265625 -11.984375 5.285156 -11.453125 4.765625 -10.390625 C 4.253906 -9.335938 4 -8.019531 4 -6.4375 C 4 -4.875 4.351562 -3.585938 5.0625 -2.578125 C 5.769531 -1.566406 6.710938 -1.0625 7.890625 -1.0625 C 8.691406 -1.0625 9.378906 -1.234375 9.953125 -1.578125 C 10.523438 -1.921875 11.046875 -2.445312 11.515625 -3.15625 C 11.566406 -3.25 11.65625 -3.296875 11.78125 -3.296875 C 11.875 -3.296875 11.976562 -3.269531 12.09375 -3.21875 C 12.1875 -3.175781 12.257812 -3.109375 12.3125 -3.015625 C 12.375 -2.929688 12.40625 -2.84375 12.40625 -2.75 C 12.40625 -2.6875 12.375 -2.609375 12.3125 -2.515625 C 11.695312 -1.640625 10.929688 -0.941406 10.015625 -0.421875 C 9.109375 0.0859375 8.1875 0.34375 7.25 0.34375 Z M 7.25 0.34375 "/></g></g></g><g fill="#8f68ff" fill-opacity="1"><g transform="translate(99.959129, 83.999997)"><g><path d="M 7.671875 0.34375 C 6.398438 0.34375 5.269531 0.0390625 4.28125 -0.5625 C 3.289062 -1.175781 2.519531 -1.984375 1.96875 -2.984375 C 1.414062 -3.984375 1.140625 -5.039062 1.140625 -6.15625 C 1.140625 -7.5625 1.46875 -8.78125 2.125 -9.8125 C 2.78125 -10.851562 3.609375 -11.644531 4.609375 -12.1875 C 5.617188 -12.738281 6.640625 -13.015625 7.671875 -13.015625 C 8.941406 -13.015625 10.070312 -12.710938 11.0625 -12.109375 C 12.050781 -11.503906 12.820312 -10.703125 13.375 -9.703125 C 13.925781 -8.703125 14.203125 -7.644531 14.203125 -6.53125 C 14.203125 -5.125 13.867188 -3.898438 13.203125 -2.859375 C 12.535156 -1.828125 11.695312 -1.035156 10.6875 -0.484375 C 9.6875 0.0664062 8.679688 0.34375 7.671875 0.34375 Z M 7.671875 -0.703125 C 8.941406 -0.703125 9.867188 -1.242188 10.453125 -2.328125 C 11.046875 -3.410156 11.34375 -4.8125 11.34375 -6.53125 C 11.34375 -8.132812 11.035156 -9.441406 10.421875 -10.453125 C 9.816406 -11.472656 8.898438 -11.984375 7.671875 -11.984375 C 6.378906 -11.984375 5.441406 -11.453125 4.859375 -10.390625 C 4.285156 -9.328125 4 -7.9375 4 -6.21875 C 4 -4.613281 4.296875 -3.289062 4.890625 -2.25 C 5.492188 -1.21875 6.421875 -0.703125 7.671875 -0.703125 Z M 7.671875 -0.703125 "/></g></g></g><g fill="#8f68ff" fill-opacity="1"><g transform="translate(115.301032, 83.999997)"><g><path d="M 1.09375 0.078125 C 0.957031 0.078125 0.847656 0.0234375 0.765625 -0.078125 C 0.679688 -0.191406 0.640625 -0.320312 0.640625 -0.46875 C 0.660156 -0.71875 0.710938 -0.863281 0.796875 -0.90625 C 0.878906 -0.957031 1.039062 -0.984375 1.28125 -0.984375 C 1.769531 -0.984375 2.113281 -1.066406 2.3125 -1.234375 C 2.519531 -1.398438 2.644531 -1.59375 2.6875 -1.8125 C 2.726562 -2.039062 2.75 -2.398438 2.75 -2.890625 L 2.75 -16.546875 C 2.75 -17.035156 2.734375 -17.390625 2.703125 -17.609375 C 2.671875 -17.835938 2.550781 -18.035156 2.34375 -18.203125 C 2.144531 -18.367188 1.800781 -18.453125 1.3125 -18.453125 C 1.09375 -18.453125 0.925781 -18.484375 0.8125 -18.546875 C 0.695312 -18.609375 0.640625 -18.765625 0.640625 -19.015625 C 0.640625 -19.128906 0.675781 -19.234375 0.75 -19.328125 C 0.832031 -19.429688 0.945312 -19.492188 1.09375 -19.515625 C 2.269531 -19.679688 3.273438 -19.925781 4.109375 -20.25 C 4.378906 -20.34375 4.597656 -20.394531 4.765625 -20.40625 L 4.84375 -20.40625 C 5.144531 -20.40625 5.296875 -20.226562 5.296875 -19.875 L 5.296875 -2.890625 C 5.296875 -2.398438 5.3125 -2.039062 5.34375 -1.8125 C 5.382812 -1.59375 5.503906 -1.398438 5.703125 -1.234375 C 5.910156 -1.066406 6.257812 -0.984375 6.75 -0.984375 L 6.921875 -0.984375 C 7.066406 -0.984375 7.175781 -0.953125 7.25 -0.890625 C 7.320312 -0.835938 7.367188 -0.695312 7.390625 -0.46875 C 7.390625 -0.320312 7.351562 -0.191406 7.28125 -0.078125 C 7.207031 0.0234375 7.09375 0.078125 6.9375 0.078125 C 5.851562 0.0234375 4.875 0 4 0 C 3.164062 0 2.195312 0.0234375 1.09375 0.078125 Z M 1.09375 0.078125 "/></g></g></g><g fill="#8f68ff" fill-opacity="1"><g transform="translate(123.307936, 83.999997)"><g><path d="M 7.703125 0.34375 C 6.296875 0.34375 5.101562 0.046875 4.125 -0.546875 C 3.144531 -1.148438 2.398438 -1.960938 1.890625 -2.984375 C 1.390625 -4.015625 1.140625 -5.15625 1.140625 -6.40625 C 1.140625 -7.507812 1.394531 -8.566406 1.90625 -9.578125 C 2.425781 -10.597656 3.160156 -11.425781 4.109375 -12.0625 C 5.066406 -12.695312 6.160156 -13.015625 7.390625 -13.015625 C 9.054688 -13.015625 10.335938 -12.585938 11.234375 -11.734375 C 12.128906 -10.890625 12.640625 -9.75 12.765625 -8.3125 C 12.765625 -7.695312 12.597656 -7.273438 12.265625 -7.046875 C 11.929688 -6.828125 11.445312 -6.71875 10.8125 -6.71875 L 4 -6.71875 C 4 -4.976562 4.359375 -3.597656 5.078125 -2.578125 C 5.796875 -1.566406 6.910156 -1.0625 8.421875 -1.0625 C 9.222656 -1.0625 9.90625 -1.234375 10.46875 -1.578125 C 11.03125 -1.921875 11.5625 -2.503906 12.0625 -3.328125 C 12.15625 -3.421875 12.25 -3.46875 12.34375 -3.46875 C 12.476562 -3.46875 12.59375 -3.429688 12.6875 -3.359375 C 12.875 -3.242188 12.96875 -3.078125 12.96875 -2.859375 C 12.96875 -2.742188 12.945312 -2.660156 12.90625 -2.609375 C 12.332031 -1.671875 11.597656 -0.941406 10.703125 -0.421875 C 9.816406 0.0859375 8.816406 0.34375 7.703125 0.34375 Z M 8.5625 -7.78125 C 9.519531 -7.78125 10.023438 -8.171875 10.078125 -8.953125 C 10.078125 -9.816406 9.84375 -10.546875 9.375 -11.140625 C 8.914062 -11.742188 8.253906 -12.046875 7.390625 -12.046875 C 6.441406 -12.046875 5.65625 -11.664062 5.03125 -10.90625 C 4.414062 -10.144531 4.070312 -9.101562 4 -7.78125 Z M 8.5625 -7.78125 "/></g></g></g><g fill="#8f68ff" fill-opacity="1"><g transform="translate(143.605176, 83.999997)"><g><path d="M 1.6875 0.078125 C 1.53125 0.078125 1.410156 0.0195312 1.328125 -0.09375 C 1.242188 -0.21875 1.203125 -0.363281 1.203125 -0.53125 C 1.222656 -0.8125 1.28125 -0.976562 1.375 -1.03125 C 1.46875 -1.09375 1.644531 -1.125 1.90625 -1.125 C 2.445312 -1.125 2.847656 -1.21875 3.109375 -1.40625 C 3.367188 -1.601562 3.53125 -1.847656 3.59375 -2.140625 C 3.664062 -2.429688 3.707031 -2.8125 3.71875 -3.28125 L 3.71875 -14.390625 C 3.707031 -14.859375 3.664062 -15.234375 3.59375 -15.515625 C 3.53125 -15.804688 3.367188 -16.050781 3.109375 -16.25 C 2.847656 -16.445312 2.445312 -16.546875 1.90625 -16.546875 L 1.734375 -16.546875 C 1.546875 -16.546875 1.414062 -16.578125 1.34375 -16.640625 C 1.269531 -16.710938 1.222656 -16.878906 1.203125 -17.140625 C 1.203125 -17.304688 1.242188 -17.445312 1.328125 -17.5625 C 1.410156 -17.6875 1.53125 -17.75 1.6875 -17.75 C 2.894531 -17.695312 4.003906 -17.671875 5.015625 -17.671875 L 13.109375 -17.671875 C 13.585938 -17.671875 13.828125 -17.445312 13.828125 -17 L 13.921875 -13.078125 C 13.921875 -12.910156 13.832031 -12.773438 13.65625 -12.671875 C 13.488281 -12.566406 13.320312 -12.515625 13.15625 -12.515625 C 12.9375 -12.515625 12.738281 -12.554688 12.5625 -12.640625 C 12.382812 -12.722656 12.285156 -12.847656 12.265625 -13.015625 C 12.128906 -13.929688 11.972656 -14.625 11.796875 -15.09375 C 11.617188 -15.570312 11.359375 -15.925781 11.015625 -16.15625 C 10.671875 -16.394531 10.179688 -16.523438 9.546875 -16.546875 L 6.5 -16.546875 L 6.5 -9.265625 L 11.515625 -9.265625 C 11.660156 -9.242188 11.769531 -9.171875 11.84375 -9.046875 C 11.914062 -8.929688 11.953125 -8.789062 11.953125 -8.625 C 11.953125 -8.476562 11.914062 -8.347656 11.84375 -8.234375 C 11.769531 -8.117188 11.660156 -8.0625 11.515625 -8.0625 L 6.5 -8.0625 L 6.5 -3.28125 C 6.519531 -2.8125 6.5625 -2.429688 6.625 -2.140625 C 6.6875 -1.847656 6.847656 -1.601562 7.109375 -1.40625 C 7.367188 -1.21875 7.769531 -1.125 8.3125 -1.125 L 8.484375 -1.125 C 8.648438 -1.125 8.773438 -1.085938 8.859375 -1.015625 C 8.941406 -0.953125 8.992188 -0.789062 9.015625 -0.53125 C 9.015625 -0.363281 8.972656 -0.21875 8.890625 -0.09375 C 8.804688 0.0195312 8.679688 0.078125 8.515625 0.078125 C 7.316406 0.0234375 6.160156 0 5.046875 0 C 4.015625 0 2.894531 0.0234375 1.6875 0.078125 Z M 1.6875 0.078125 "/></g></g></g><g fill="#8f68ff" fill-opacity="1"><g transform="translate(158.303166, 83.999997)"><g><path d="M 1.375 0.078125 C 1.238281 0.078125 1.128906 0.0234375 1.046875 -0.078125 C 0.960938 -0.191406 0.921875 -0.320312 0.921875 -0.46875 C 0.941406 -0.71875 1 -0.863281 1.09375 -0.90625 C 1.1875 -0.957031 1.351562 -0.984375 1.59375 -0.984375 C 2.082031 -0.984375 2.425781 -1.066406 2.625 -1.234375 C 2.832031 -1.398438 2.953125 -1.59375 2.984375 -1.8125 C 3.015625 -2.039062 3.03125 -2.398438 3.03125 -2.890625 L 3.03125 -9.296875 C 3.03125 -9.785156 3.015625 -10.140625 2.984375 -10.359375 C 2.953125 -10.585938 2.832031 -10.785156 2.625 -10.953125 C 2.425781 -11.117188 2.082031 -11.203125 1.59375 -11.203125 C 1.375 -11.203125 1.207031 -11.234375 1.09375 -11.296875 C 0.976562 -11.359375 0.921875 -11.515625 0.921875 -11.765625 C 0.921875 -11.867188 0.957031 -11.972656 1.03125 -12.078125 C 1.101562 -12.179688 1.21875 -12.242188 1.375 -12.265625 C 2.582031 -12.453125 3.582031 -12.691406 4.375 -12.984375 C 4.6875 -13.078125 4.898438 -13.132812 5.015625 -13.15625 L 5.09375 -13.15625 C 5.394531 -13.15625 5.546875 -12.976562 5.546875 -12.625 L 5.546875 -10.890625 L 5.625 -10.890625 C 6.28125 -11.546875 6.941406 -12.0625 7.609375 -12.4375 C 8.285156 -12.820312 8.894531 -13.015625 9.4375 -13.015625 C 10.050781 -13.015625 10.539062 -12.785156 10.90625 -12.328125 C 11.269531 -11.867188 11.453125 -11.34375 11.453125 -10.75 C 11.453125 -10.226562 11.289062 -9.757812 10.96875 -9.34375 C 10.65625 -8.9375 10.21875 -8.734375 9.65625 -8.734375 C 9.394531 -8.734375 9.164062 -8.789062 8.96875 -8.90625 C 8.78125 -9.019531 8.675781 -9.113281 8.65625 -9.1875 C 8.675781 -9.21875 8.769531 -9.332031 8.9375 -9.53125 C 9.101562 -9.726562 9.1875 -9.957031 9.1875 -10.21875 C 9.1875 -10.550781 9.097656 -10.820312 8.921875 -11.03125 C 8.742188 -11.238281 8.503906 -11.34375 8.203125 -11.34375 C 7.890625 -11.34375 7.488281 -11.1875 7 -10.875 C 6.507812 -10.570312 6.035156 -10.1875 5.578125 -9.71875 L 5.578125 -2.890625 C 5.578125 -2.398438 5.59375 -2.039062 5.625 -1.8125 C 5.664062 -1.59375 5.785156 -1.398438 5.984375 -1.234375 C 6.191406 -1.066406 6.539062 -0.984375 7.03125 -0.984375 L 7.203125 -0.984375 C 7.347656 -0.984375 7.457031 -0.953125 7.53125 -0.890625 C 7.601562 -0.835938 7.648438 -0.695312 7.671875 -0.46875 C 7.671875 -0.320312 7.632812 -0.191406 7.5625 -0.078125 C 7.488281 0.0234375 7.375 0.078125 7.21875 0.078125 C 6.132812 0.0234375 5.15625 0 4.28125 0 C 3.445312 0 2.476562 0.0234375 1.375 0.078125 Z M 1.375 0.078125 "/></g></g></g><g fill="#8f68ff" fill-opacity="1"><g transform="translate(170.201542, 83.999997)"><g><path d="M 4.703125 0.34375 C 3.585938 0.34375 2.679688 0.0234375 1.984375 -0.609375 C 1.296875 -1.242188 0.953125 -2.039062 0.953125 -3 C 0.953125 -4.175781 1.34375 -5.054688 2.125 -5.640625 C 2.90625 -6.234375 3.835938 -6.617188 4.921875 -6.796875 C 6.003906 -6.972656 7.40625 -7.109375 9.125 -7.203125 L 9.125 -9.40625 C 9.125 -10.320312 8.894531 -11.015625 8.4375 -11.484375 C 7.976562 -11.960938 7.25 -12.203125 6.25 -12.203125 C 5.664062 -12.203125 5.160156 -12.023438 4.734375 -11.671875 C 4.304688 -11.316406 4.09375 -10.84375 4.09375 -10.25 C 4.09375 -9.945312 4.160156 -9.695312 4.296875 -9.5 C 4.441406 -9.3125 4.59375 -9.148438 4.75 -9.015625 C 4.90625 -8.878906 4.984375 -8.804688 4.984375 -8.796875 C 4.984375 -8.679688 4.863281 -8.535156 4.625 -8.359375 C 4.394531 -8.179688 4.113281 -8.09375 3.78125 -8.09375 C 3.21875 -8.09375 2.769531 -8.296875 2.4375 -8.703125 C 2.113281 -9.117188 1.953125 -9.601562 1.953125 -10.15625 C 1.953125 -11.132812 2.382812 -11.851562 3.25 -12.3125 C 4.125 -12.78125 5.175781 -13.015625 6.40625 -13.015625 C 7.9375 -13.015625 9.179688 -12.722656 10.140625 -12.140625 C 11.109375 -11.566406 11.59375 -10.5 11.59375 -8.9375 L 11.59375 -2.40625 C 11.613281 -2.007812 11.734375 -1.632812 11.953125 -1.28125 C 12.179688 -0.925781 12.546875 -0.75 13.046875 -0.75 C 13.191406 -0.75 13.296875 -0.722656 13.359375 -0.671875 C 13.429688 -0.617188 13.46875 -0.5 13.46875 -0.3125 C 13.46875 -0.0820312 13.296875 0.0820312 12.953125 0.1875 C 12.609375 0.289062 12.265625 0.34375 11.921875 0.34375 C 11.210938 0.34375 10.585938 0.140625 10.046875 -0.265625 C 9.503906 -0.679688 9.195312 -1.238281 9.125 -1.9375 C 8.738281 -1.207031 8.140625 -0.644531 7.328125 -0.25 C 6.515625 0.144531 5.640625 0.34375 4.703125 0.34375 Z M 5.59375 -1.171875 C 6.226562 -1.171875 6.816406 -1.328125 7.359375 -1.640625 C 7.898438 -1.960938 8.328125 -2.398438 8.640625 -2.953125 C 8.960938 -3.503906 9.125 -4.113281 9.125 -4.78125 L 9.125 -6.390625 C 7.164062 -6.234375 5.785156 -5.910156 4.984375 -5.421875 C 4.179688 -4.941406 3.78125 -4.160156 3.78125 -3.078125 C 3.78125 -1.804688 4.382812 -1.171875 5.59375 -1.171875 Z M 5.59375 -1.171875 "/></g></g></g><g fill="#8f68ff" fill-opacity="1"><g transform="translate(184.227627, 83.999997)"><g><path d="M 1.375 0.078125 C 1.238281 0.078125 1.128906 0.0234375 1.046875 -0.078125 C 0.960938 -0.191406 0.921875 -0.320312 0.921875 -0.46875 C 0.941406 -0.71875 1 -0.863281 1.09375 -0.90625 C 1.1875 -0.957031 1.351562 -0.984375 1.59375 -0.984375 C 2.082031 -0.984375 2.425781 -1.066406 2.625 -1.234375 C 2.832031 -1.398438 2.953125 -1.59375 2.984375 -1.8125 C 3.015625 -2.039062 3.03125 -2.398438 3.03125 -2.890625 L 3.03125 -9.296875 C 3.03125 -9.785156 3.015625 -10.140625 2.984375 -10.359375 C 2.953125 -10.585938 2.832031 -10.785156 2.625 -10.953125 C 2.425781 -11.117188 2.082031 -11.203125 1.59375 -11.203125 C 1.375 -11.203125 1.207031 -11.234375 1.09375 -11.296875 C 0.976562 -11.359375 0.921875 -11.515625 0.921875 -11.765625 C 0.921875 -11.867188 0.957031 -11.972656 1.03125 -12.078125 C 1.101562 -12.179688 1.21875 -12.242188 1.375 -12.265625 C 2.582031 -12.453125 3.582031 -12.691406 4.375 -12.984375 C 4.6875 -13.078125 4.898438 -13.132812 5.015625 -13.15625 L 5.09375 -13.15625 C 5.394531 -13.15625 5.546875 -12.976562 5.546875 -12.625 L 5.546875 -10.859375 L 5.625 -10.859375 C 6.164062 -11.367188 6.601562 -11.757812 6.9375 -12.03125 C 7.28125 -12.300781 7.71875 -12.53125 8.25 -12.71875 C 8.78125 -12.914062 9.410156 -13.015625 10.140625 -13.015625 C 11.410156 -13.015625 12.414062 -12.628906 13.15625 -11.859375 C 13.90625 -11.097656 14.28125 -10.09375 14.28125 -8.84375 L 14.28125 -2.890625 C 14.28125 -2.398438 14.296875 -2.039062 14.328125 -1.8125 C 14.367188 -1.59375 14.492188 -1.398438 14.703125 -1.234375 C 14.910156 -1.066406 15.253906 -0.984375 15.734375 -0.984375 L 15.90625 -0.984375 C 16.050781 -0.984375 16.160156 -0.953125 16.234375 -0.890625 C 16.316406 -0.835938 16.363281 -0.695312 16.375 -0.46875 C 16.375 -0.320312 16.332031 -0.191406 16.25 -0.078125 C 16.164062 0.0234375 16.0625 0.078125 15.9375 0.078125 C 14.851562 0.0234375 13.867188 0 12.984375 0 C 12.148438 0 11.179688 0.0234375 10.078125 0.078125 C 9.953125 0.078125 9.84375 0.0234375 9.75 -0.078125 C 9.664062 -0.191406 9.625 -0.320312 9.625 -0.46875 C 9.644531 -0.71875 9.695312 -0.863281 9.78125 -0.90625 C 9.863281 -0.957031 10.03125 -0.984375 10.28125 -0.984375 C 10.757812 -0.984375 11.101562 -1.066406 11.3125 -1.234375 C 11.519531 -1.398438 11.640625 -1.59375 11.671875 -1.8125 C 11.710938 -2.039062 11.734375 -2.398438 11.734375 -2.890625 L 11.734375 -8.8125 C 11.734375 -9.675781 11.460938 -10.335938 10.921875 -10.796875 C 10.378906 -11.253906 9.753906 -11.484375 9.046875 -11.484375 C 8.179688 -11.484375 7.441406 -11.269531 6.828125 -10.84375 C 6.210938 -10.425781 5.796875 -9.992188 5.578125 -9.546875 L 5.578125 -2.890625 C 5.578125 -2.398438 5.59375 -2.039062 5.625 -1.8125 C 5.664062 -1.59375 5.785156 -1.398438 5.984375 -1.234375 C 6.191406 -1.066406 6.539062 -0.984375 7.03125 -0.984375 L 7.203125 -0.984375 C 7.347656 -0.984375 7.457031 -0.953125 7.53125 -0.890625 C 7.601562 -0.835938 7.648438 -0.695312 7.671875 -0.46875 C 7.671875 -0.320312 7.632812 -0.191406 7.5625 -0.078125 C 7.488281 0.0234375 7.375 0.078125 7.21875 0.078125 C 6.132812 0.0234375 5.15625 0 4.28125 0 C 3.445312 0 2.476562 0.0234375 1.375 0.078125 Z M 1.375 0.078125 "/></g></g></g><g fill="#8f68ff" fill-opacity="1"><g transform="translate(200.99734, 83.999997)"><g><path d="M 4.34375 5.828125 C 4.175781 5.828125 4.039062 5.757812 3.9375 5.625 C 3.832031 5.5 3.78125 5.34375 3.78125 5.15625 C 3.78125 4.90625 3.828125 4.738281 3.921875 4.65625 C 4.015625 4.570312 4.15625 4.53125 4.34375 4.53125 C 5.363281 4.53125 6.132812 4.472656 6.65625 4.359375 C 7.1875 4.253906 7.453125 3.976562 7.453125 3.53125 C 7.453125 3.25 7.316406 3.050781 7.046875 2.9375 C 6.785156 2.820312 6.390625 2.738281 5.859375 2.6875 C 5.703125 2.664062 5.585938 2.617188 5.515625 2.546875 C 5.441406 2.472656 5.40625 2.304688 5.40625 2.046875 L 5.40625 0.078125 C 4.0625 -0.273438 3.015625 -1.015625 2.265625 -2.140625 C 1.515625 -3.273438 1.140625 -4.679688 1.140625 -6.359375 C 1.179688 -7.628906 1.492188 -8.757812 2.078125 -9.75 C 2.671875 -10.75 3.460938 -11.535156 4.453125 -12.109375 C 5.441406 -12.679688 6.535156 -12.984375 7.734375 -13.015625 C 8.640625 -13.015625 9.523438 -12.863281 10.390625 -12.5625 C 11.265625 -12.269531 11.820312 -11.648438 12.0625 -10.703125 C 12.101562 -10.566406 12.125 -10.367188 12.125 -10.109375 C 12.125 -9.523438 11.953125 -9.015625 11.609375 -8.578125 C 11.265625 -8.140625 10.800781 -7.921875 10.21875 -7.921875 C 9.863281 -7.921875 9.5625 -8.015625 9.3125 -8.203125 C 9.0625 -8.390625 8.9375 -8.550781 8.9375 -8.6875 C 8.9375 -8.695312 9.019531 -8.773438 9.1875 -8.921875 C 9.351562 -9.078125 9.503906 -9.257812 9.640625 -9.46875 C 9.785156 -9.6875 9.859375 -9.9375 9.859375 -10.21875 C 9.859375 -10.800781 9.644531 -11.238281 9.21875 -11.53125 C 8.800781 -11.832031 8.296875 -11.984375 7.703125 -11.984375 C 6.265625 -11.984375 5.285156 -11.453125 4.765625 -10.390625 C 4.253906 -9.335938 4 -8.019531 4 -6.4375 C 4 -4.875 4.351562 -3.585938 5.0625 -2.578125 C 5.769531 -1.566406 6.710938 -1.0625 7.890625 -1.0625 C 8.691406 -1.0625 9.378906 -1.234375 9.953125 -1.578125 C 10.523438 -1.921875 11.046875 -2.445312 11.515625 -3.15625 C 11.566406 -3.25 11.65625 -3.296875 11.78125 -3.296875 C 11.875 -3.296875 11.976562 -3.269531 12.09375 -3.21875 C 12.1875 -3.175781 12.257812 -3.109375 12.3125 -3.015625 C 12.375 -2.929688 12.40625 -2.84375 12.40625 -2.75 C 12.40625 -2.6875 12.375 -2.609375 12.3125 -2.515625 C 11.695312 -1.640625 10.929688 -0.941406 10.015625 -0.421875 C 9.109375 0.0859375 8.1875 0.34375 7.25 0.34375 C 7.03125 0.34375 6.875 0.332031 6.78125 0.3125 L 6.78125 1.140625 C 7.539062 1.160156 8.179688 1.320312 8.703125 1.625 C 9.222656 1.9375 9.484375 2.429688 9.484375 3.109375 C 9.484375 4.046875 9.023438 4.734375 8.109375 5.171875 C 7.203125 5.609375 5.945312 5.828125 4.34375 5.828125 Z M 4.34375 5.828125 "/></g></g></g><g fill="#8f68ff" fill-opacity="1"><g transform="translate(214.295522, 83.999997)"><g><path d="M 4.703125 0.34375 C 3.585938 0.34375 2.679688 0.0234375 1.984375 -0.609375 C 1.296875 -1.242188 0.953125 -2.039062 0.953125 -3 C 0.953125 -4.175781 1.34375 -5.054688 2.125 -5.640625 C 2.90625 -6.234375 3.835938 -6.617188 4.921875 -6.796875 C 6.003906 -6.972656 7.40625 -7.109375 9.125 -7.203125 L 9.125 -9.40625 C 9.125 -10.320312 8.894531 -11.015625 8.4375 -11.484375 C 7.976562 -11.960938 7.25 -12.203125 6.25 -12.203125 C 5.664062 -12.203125 5.160156 -12.023438 4.734375 -11.671875 C 4.304688 -11.316406 4.09375 -10.84375 4.09375 -10.25 C 4.09375 -9.945312 4.160156 -9.695312 4.296875 -9.5 C 4.441406 -9.3125 4.59375 -9.148438 4.75 -9.015625 C 4.90625 -8.878906 4.984375 -8.804688 4.984375 -8.796875 C 4.984375 -8.679688 4.863281 -8.535156 4.625 -8.359375 C 4.394531 -8.179688 4.113281 -8.09375 3.78125 -8.09375 C 3.21875 -8.09375 2.769531 -8.296875 2.4375 -8.703125 C 2.113281 -9.117188 1.953125 -9.601562 1.953125 -10.15625 C 1.953125 -11.132812 2.382812 -11.851562 3.25 -12.3125 C 4.125 -12.78125 5.175781 -13.015625 6.40625 -13.015625 C 7.9375 -13.015625 9.179688 -12.722656 10.140625 -12.140625 C 11.109375 -11.566406 11.59375 -10.5 11.59375 -8.9375 L 11.59375 -2.40625 C 11.613281 -2.007812 11.734375 -1.632812 11.953125 -1.28125 C 12.179688 -0.925781 12.546875 -0.75 13.046875 -0.75 C 13.191406 -0.75 13.296875 -0.722656 13.359375 -0.671875 C 13.429688 -0.617188 13.46875 -0.5 13.46875 -0.3125 C 13.46875 -0.0820312 13.296875 0.0820312 12.953125 0.1875 C 12.609375 0.289062 12.265625 0.34375 11.921875 0.34375 C 11.210938 0.34375 10.585938 0.140625 10.046875 -0.265625 C 9.503906 -0.679688 9.195312 -1.238281 9.125 -1.9375 C 8.738281 -1.207031 8.140625 -0.644531 7.328125 -0.25 C 6.515625 0.144531 5.640625 0.34375 4.703125 0.34375 Z M 5.59375 -1.171875 C 6.226562 -1.171875 6.816406 -1.328125 7.359375 -1.640625 C 7.898438 -1.960938 8.328125 -2.398438 8.640625 -2.953125 C 8.960938 -3.503906 9.125 -4.113281 9.125 -4.78125 L 9.125 -6.390625 C 7.164062 -6.234375 5.785156 -5.910156 4.984375 -5.421875 C 4.179688 -4.941406 3.78125 -4.160156 3.78125 -3.078125 C 3.78125 -1.804688 4.382812 -1.171875 5.59375 -1.171875 Z M 5.59375 -1.171875 "/></g></g></g><g fill="#8f68ff" fill-opacity="1"><g transform="translate(228.321607, 83.999997)"><g><path d="M 1.375 0.078125 C 1.238281 0.078125 1.128906 0.0234375 1.046875 -0.078125 C 0.960938 -0.191406 0.921875 -0.320312 0.921875 -0.46875 C 0.941406 -0.71875 1 -0.863281 1.09375 -0.90625 C 1.1875 -0.957031 1.351562 -0.984375 1.59375 -0.984375 C 2.082031 -0.984375 2.425781 -1.066406 2.625 -1.234375 C 2.832031 -1.398438 2.953125 -1.59375 2.984375 -1.8125 C 3.015625 -2.039062 3.03125 -2.398438 3.03125 -2.890625 L 3.03125 -9.296875 C 3.03125 -9.785156 3.015625 -10.140625 2.984375 -10.359375 C 2.953125 -10.585938 2.832031 -10.785156 2.625 -10.953125 C 2.425781 -11.117188 2.082031 -11.203125 1.59375 -11.203125 C 1.375 -11.203125 1.207031 -11.234375 1.09375 -11.296875 C 0.976562 -11.359375 0.921875 -11.515625 0.921875 -11.765625 C 0.921875 -11.867188 0.957031 -11.972656 1.03125 -12.078125 C 1.101562 -12.179688 1.21875 -12.242188 1.375 -12.265625 C 2.550781 -12.429688 3.554688 -12.671875 4.390625 -12.984375 C 4.648438 -13.078125 4.867188 -13.132812 5.046875 -13.15625 L 5.125 -13.15625 C 5.425781 -13.15625 5.578125 -12.976562 5.578125 -12.625 L 5.578125 -2.890625 C 5.578125 -2.398438 5.59375 -2.039062 5.625 -1.8125 C 5.664062 -1.59375 5.785156 -1.398438 5.984375 -1.234375 C 6.191406 -1.066406 6.539062 -0.984375 7.03125 -0.984375 L 7.203125 -0.984375 C 7.347656 -0.984375 7.457031 -0.953125 7.53125 -0.890625 C 7.601562 -0.835938 7.648438 -0.695312 7.671875 -0.46875 C 7.671875 -0.320312 7.632812 -0.191406 7.5625 -0.078125 C 7.488281 0.0234375 7.375 0.078125 7.21875 0.078125 C 6.132812 0.0234375 5.15625 0 4.28125 0 C 3.445312 0 2.476562 0.0234375 1.375 0.078125 Z M 4.140625 -16.265625 C 3.617188 -16.265625 3.179688 -16.425781 2.828125 -16.75 C 2.472656 -17.082031 2.296875 -17.488281 2.296875 -17.96875 C 2.296875 -18.40625 2.507812 -18.789062 2.9375 -19.125 C 3.363281 -19.457031 3.847656 -19.625 4.390625 -19.625 C 4.859375 -19.625 5.238281 -19.457031 5.53125 -19.125 C 5.832031 -18.800781 5.984375 -18.390625 5.984375 -17.890625 C 5.984375 -17.441406 5.804688 -17.054688 5.453125 -16.734375 C 5.097656 -16.421875 4.660156 -16.265625 4.140625 -16.265625 Z M 4.140625 -16.265625 "/></g></g></g><g fill="#8f68ff" fill-opacity="1"><g transform="translate(236.608479, 83.999997)"><g><path d="M 6.109375 0.34375 C 4.609375 0.34375 3.390625 0.0820312 2.453125 -0.4375 C 1.523438 -0.96875 1.0625 -1.707031 1.0625 -2.65625 C 1.0625 -3.195312 1.222656 -3.632812 1.546875 -3.96875 C 1.878906 -4.3125 2.304688 -4.484375 2.828125 -4.484375 C 3.128906 -4.484375 3.394531 -4.394531 3.625 -4.21875 C 3.851562 -4.050781 3.96875 -3.925781 3.96875 -3.84375 C 3.96875 -3.820312 3.859375 -3.695312 3.640625 -3.46875 C 3.429688 -3.25 3.328125 -2.929688 3.328125 -2.515625 C 3.328125 -1.960938 3.582031 -1.519531 4.09375 -1.1875 C 4.613281 -0.863281 5.359375 -0.703125 6.328125 -0.703125 C 7.203125 -0.703125 7.882812 -0.890625 8.375 -1.265625 C 8.875 -1.648438 9.125 -2.191406 9.125 -2.890625 C 9.125 -3.347656 8.984375 -3.726562 8.703125 -4.03125 C 8.421875 -4.332031 8.070312 -4.566406 7.65625 -4.734375 C 7.238281 -4.898438 6.65625 -5.09375 5.90625 -5.3125 C 4.988281 -5.582031 4.238281 -5.847656 3.65625 -6.109375 C 3.082031 -6.367188 2.585938 -6.757812 2.171875 -7.28125 C 1.765625 -7.800781 1.5625 -8.484375 1.5625 -9.328125 C 1.5625 -10.109375 1.804688 -10.78125 2.296875 -11.34375 C 2.785156 -11.90625 3.414062 -12.320312 4.1875 -12.59375 C 4.957031 -12.875 5.773438 -13.015625 6.640625 -13.015625 C 7.734375 -13.015625 8.6875 -12.78125 9.5 -12.3125 C 10.3125 -11.851562 10.71875 -11.203125 10.71875 -10.359375 C 10.71875 -9.859375 10.5625 -9.429688 10.25 -9.078125 C 9.945312 -8.722656 9.546875 -8.546875 9.046875 -8.546875 C 8.742188 -8.546875 8.472656 -8.628906 8.234375 -8.796875 C 8.003906 -8.960938 7.890625 -9.09375 7.890625 -9.1875 C 7.890625 -9.207031 7.960938 -9.28125 8.109375 -9.40625 C 8.265625 -9.539062 8.398438 -9.695312 8.515625 -9.875 C 8.640625 -10.050781 8.703125 -10.257812 8.703125 -10.5 C 8.671875 -11 8.421875 -11.390625 7.953125 -11.671875 C 7.484375 -11.953125 6.929688 -12.09375 6.296875 -12.09375 C 5.585938 -12.09375 4.96875 -11.925781 4.4375 -11.59375 C 3.90625 -11.269531 3.640625 -10.820312 3.640625 -10.25 C 3.640625 -9.726562 3.75 -9.3125 3.96875 -9 C 4.195312 -8.695312 4.535156 -8.453125 4.984375 -8.265625 C 5.429688 -8.078125 6.140625 -7.820312 7.109375 -7.5 C 8.097656 -7.1875 8.875 -6.894531 9.4375 -6.625 C 10 -6.351562 10.441406 -5.988281 10.765625 -5.53125 C 11.085938 -5.070312 11.25 -4.46875 11.25 -3.71875 C 11.25 -2.957031 11.023438 -2.265625 10.578125 -1.640625 C 10.128906 -1.015625 9.515625 -0.523438 8.734375 -0.171875 C 7.953125 0.171875 7.078125 0.34375 6.109375 0.34375 Z M 6.109375 0.34375 "/></g></g></g><g fill="#8f68ff" fill-opacity="1"><g transform="translate(249.010784, 83.999997)"><g><path d="M 7.703125 0.34375 C 6.296875 0.34375 5.101562 0.046875 4.125 -0.546875 C 3.144531 -1.148438 2.398438 -1.960938 1.890625 -2.984375 C 1.390625 -4.015625 1.140625 -5.15625 1.140625 -6.40625 C 1.140625 -7.507812 1.394531 -8.566406 1.90625 -9.578125 C 2.425781 -10.597656 3.160156 -11.425781 4.109375 -12.0625 C 5.066406 -12.695312 6.160156 -13.015625 7.390625 -13.015625 C 9.054688 -13.015625 10.335938 -12.585938 11.234375 -11.734375 C 12.128906 -10.890625 12.640625 -9.75 12.765625 -8.3125 C 12.765625 -7.695312 12.597656 -7.273438 12.265625 -7.046875 C 11.929688 -6.828125 11.445312 -6.71875 10.8125 -6.71875 L 4 -6.71875 C 4 -4.976562 4.359375 -3.597656 5.078125 -2.578125 C 5.796875 -1.566406 6.910156 -1.0625 8.421875 -1.0625 C 9.222656 -1.0625 9.90625 -1.234375 10.46875 -1.578125 C 11.03125 -1.921875 11.5625 -2.503906 12.0625 -3.328125 C 12.15625 -3.421875 12.25 -3.46875 12.34375 -3.46875 C 12.476562 -3.46875 12.59375 -3.429688 12.6875 -3.359375 C 12.875 -3.242188 12.96875 -3.078125 12.96875 -2.859375 C 12.96875 -2.742188 12.945312 -2.660156 12.90625 -2.609375 C 12.332031 -1.671875 11.597656 -0.941406 10.703125 -0.421875 C 9.816406 0.0859375 8.816406 0.34375 7.703125 0.34375 Z M 8.5625 -7.78125 C 9.519531 -7.78125 10.023438 -8.171875 10.078125 -8.953125 C 10.078125 -9.816406 9.84375 -10.546875 9.375 -11.140625 C 8.914062 -11.742188 8.253906 -12.046875 7.390625 -12.046875 C 6.441406 -12.046875 5.65625 -11.664062 5.03125 -10.90625 C 4.414062 -10.144531 4.070312 -9.101562 4 -7.78125 Z M 8.5625 -7.78125 "/></g></g></g><g fill="#8f68ff" fill-opacity="1"><g transform="translate(303.60075, 84.696208)"><g><path d="M 13.046875 0 L 2.3125 0 L 2.3125 -20.734375 L 12.703125 -20.734375 L 12.703125 -16.59375 L 6.46875 -16.59375 L 6.46875 -12.4375 L 11.921875 -12.4375 L 11.921875 -8.296875 L 6.46875 -8.296875 L 6.46875 -4.140625 L 13.046875 -4.140625 Z M 13.046875 0 "/></g></g></g><g fill="#8f68ff" fill-opacity="1"><g transform="translate(318.212805, 84.696208)"><g><path d="M 6.46875 0 L 2.3125 0 L 2.3125 -20.703125 L 10.46875 -20.703125 C 11.625 -20.703125 12.613281 -20.46875 13.4375 -20 C 14.257812 -19.539062 14.910156 -18.929688 15.390625 -18.171875 C 15.878906 -17.421875 16.203125 -16.585938 16.359375 -15.671875 C 16.523438 -14.753906 16.523438 -13.84375 16.359375 -12.9375 C 16.203125 -12.03125 15.875 -11.195312 15.375 -10.4375 C 14.882812 -9.6875 14.226562 -9.078125 13.40625 -8.609375 C 12.59375 -8.148438 11.613281 -7.921875 10.46875 -7.921875 L 6.46875 -7.921875 Z M 6.46875 -11.953125 L 10.125 -11.953125 C 10.6875 -11.953125 11.128906 -12.101562 11.453125 -12.40625 C 11.785156 -12.71875 12.007812 -13.101562 12.125 -13.5625 C 12.238281 -14.03125 12.238281 -14.492188 12.125 -14.953125 C 12.007812 -15.421875 11.785156 -15.8125 11.453125 -16.125 C 11.128906 -16.4375 10.6875 -16.59375 10.125 -16.59375 L 6.46875 -16.59375 Z M 6.46875 -11.953125 "/></g></g></g><g fill="#8f68ff" fill-opacity="1"><g transform="translate(335.695085, 84.696208)"><g><path d="M 6.46875 0 L 2.3125 0 L 2.3125 -20.734375 L 6.46875 -20.734375 Z M 6.46875 0 "/></g></g></g><g fill="#8f68ff" fill-opacity="1"><g transform="translate(344.508707, 84.696208)"><g><path d="M 9.890625 0 L 5.734375 0 L 5.734375 -16.59375 L 0.578125 -16.59375 L 0.578125 -20.703125 L 15.046875 -20.703125 L 15.046875 -16.59375 L 9.890625 -16.59375 Z M 9.890625 0 "/></g></g></g><g fill="#8f68ff" fill-opacity="1"><g transform="translate(360.367424, 84.696208)"><g><path d="M 0.46875 0 L 9.1875 -21.484375 L 9.625 -21.484375 L 18.359375 0 L 13.6875 0 L 12.84375 -2.234375 L 5.96875 -2.234375 L 5.15625 0 Z M 7.484375 -6.125 L 11.3125 -6.125 L 9.421875 -11.515625 Z M 7.484375 -6.125 "/></g></g></g><g fill="#8f68ff" fill-opacity="1"><g transform="translate(426.217926, 83.286297)"><g><path d="M 19.515625 -5.0625 C 19.609375 -4.988281 19.65625 -4.898438 19.65625 -4.796875 C 19.65625 -4.691406 19.613281 -4.550781 19.53125 -4.375 C 19.445312 -4.195312 19.304688 -3.960938 19.109375 -3.671875 C 18.910156 -3.390625 18.554688 -2.992188 18.046875 -2.484375 C 17.546875 -1.984375 17 -1.550781 16.40625 -1.1875 C 15.8125 -0.820312 15.023438 -0.5 14.046875 -0.21875 C 13.066406 0.0625 12.015625 0.203125 10.890625 0.203125 C 8.160156 0.203125 5.882812 -0.75 4.0625 -2.65625 C 2.25 -4.5625 1.34375 -7.054688 1.34375 -10.140625 C 1.34375 -13.234375 2.257812 -15.691406 4.09375 -17.515625 C 5.9375 -19.347656 8.15625 -20.265625 10.75 -20.265625 C 13.644531 -20.265625 15.742188 -19.269531 17.046875 -17.28125 L 17.03125 -19.765625 C 16.988281 -19.992188 17.097656 -20.109375 17.359375 -20.109375 L 18.921875 -20.109375 C 19.171875 -20.109375 19.296875 -19.992188 19.296875 -19.765625 L 19.296875 -13.65625 C 19.296875 -13.414062 19.171875 -13.296875 18.921875 -13.296875 L 17.171875 -13.296875 C 16.941406 -13.296875 16.828125 -13.414062 16.828125 -13.65625 L 16.828125 -13.921875 C 16.828125 -14.773438 16.242188 -15.660156 15.078125 -16.578125 C 13.910156 -17.503906 12.457031 -17.96875 10.71875 -17.96875 C 8.988281 -17.96875 7.425781 -17.28125 6.03125 -15.90625 C 4.644531 -14.539062 3.953125 -12.601562 3.953125 -10.09375 C 3.953125 -7.582031 4.648438 -5.628906 6.046875 -4.234375 C 7.441406 -2.847656 9.082031 -2.15625 10.96875 -2.15625 C 13.007812 -2.15625 14.617188 -2.613281 15.796875 -3.53125 C 16.710938 -4.238281 17.382812 -4.957031 17.8125 -5.6875 C 17.957031 -5.96875 18.132812 -6.023438 18.34375 -5.859375 Z M 19.515625 -5.0625 "/></g></g></g><g fill="#8f68ff" fill-opacity="1"><g transform="translate(447.27106, 83.286297)"><g><path d="M 14.8125 0 L 12.375 0 C 11.570312 0 11.171875 -0.390625 11.171875 -1.171875 L 11.171875 -2.609375 L 11.109375 -2.609375 C 9.753906 -0.722656 7.9375 0.21875 5.65625 0.21875 C 4.3125 0.21875 3.207031 -0.128906 2.34375 -0.828125 C 1.488281 -1.523438 1.0625 -2.472656 1.0625 -3.671875 C 1.0625 -5.203125 1.726562 -6.328125 3.0625 -7.046875 C 4.394531 -7.765625 6.226562 -8.125 8.5625 -8.125 L 10.921875 -8.125 L 10.921875 -8.453125 C 10.921875 -10.785156 9.707031 -11.953125 7.28125 -11.953125 C 6.144531 -11.953125 5.320312 -11.84375 4.8125 -11.625 C 4.3125 -11.414062 3.953125 -11.242188 3.734375 -11.109375 C 3.523438 -10.984375 3.363281 -10.882812 3.25 -10.8125 C 2.96875 -10.582031 2.757812 -10.5625 2.625 -10.75 L 1.84375 -11.734375 C 1.71875 -11.878906 1.738281 -12.03125 1.90625 -12.1875 C 2.21875 -12.59375 2.867188 -12.992188 3.859375 -13.390625 C 4.847656 -13.773438 6.015625 -13.96875 7.359375 -13.96875 C 11.285156 -13.96875 13.25 -12.101562 13.25 -8.375 L 13.25 -1.875 L 14.8125 -1.875 C 15.03125 -1.875 15.140625 -1.765625 15.140625 -1.546875 L 15.140625 -0.34375 C 15.140625 -0.113281 15.03125 0 14.8125 0 Z M 10.921875 -6.4375 L 8.703125 -6.4375 C 7.617188 -6.4375 6.722656 -6.378906 6.015625 -6.265625 C 5.304688 -6.160156 4.703125 -5.921875 4.203125 -5.546875 C 3.710938 -5.171875 3.46875 -4.65625 3.46875 -4 C 3.46875 -3.351562 3.734375 -2.816406 4.265625 -2.390625 C 4.796875 -1.972656 5.492188 -1.765625 6.359375 -1.765625 C 8.171875 -1.765625 9.691406 -2.566406 10.921875 -4.171875 Z M 10.921875 -6.4375 "/></g></g></g><g fill="#8f68ff" fill-opacity="1"><g transform="translate(463.50884, 83.286297)"><g><path d="M 7.0625 6.296875 L 1.421875 6.296875 C 1.179688 6.296875 1.0625 6.1875 1.0625 5.96875 L 1.0625 4.765625 C 1.0625 4.535156 1.179688 4.421875 1.421875 4.421875 L 3 4.421875 L 3 -11.90625 L 1.484375 -11.90625 C 1.242188 -11.90625 1.125 -12.015625 1.125 -12.234375 L 1.125 -13.4375 C 1.125 -13.664062 1.242188 -13.78125 1.484375 -13.78125 L 4.765625 -13.78125 C 5.003906 -13.78125 5.125 -13.664062 5.125 -13.4375 L 5.09375 -11.234375 L 5.125 -11.234375 C 5.476562 -11.992188 6.050781 -12.640625 6.84375 -13.171875 C 7.632812 -13.703125 8.609375 -13.96875 9.765625 -13.96875 C 11.648438 -13.96875 13.171875 -13.328125 14.328125 -12.046875 C 15.492188 -10.773438 16.078125 -9.078125 16.078125 -6.953125 C 16.078125 -4.835938 15.503906 -3.113281 14.359375 -1.78125 C 13.222656 -0.457031 11.703125 0.203125 9.796875 0.203125 C 8.640625 0.203125 7.671875 -0.0625 6.890625 -0.59375 C 6.117188 -1.132812 5.566406 -1.785156 5.234375 -2.546875 L 5.15625 -2.546875 C 5.207031 -1.953125 5.234375 -1.523438 5.234375 -1.265625 L 5.234375 4.421875 L 7.0625 4.421875 C 7.300781 4.421875 7.421875 4.535156 7.421875 4.765625 L 7.421875 5.96875 C 7.421875 6.1875 7.300781 6.296875 7.0625 6.296875 Z M 5.1875 -6.828125 C 5.1875 -5.203125 5.609375 -3.953125 6.453125 -3.078125 C 7.304688 -2.203125 8.332031 -1.765625 9.53125 -1.765625 C 10.738281 -1.765625 11.75 -2.234375 12.5625 -3.171875 C 13.375 -4.117188 13.78125 -5.363281 13.78125 -6.90625 C 13.78125 -8.445312 13.375 -9.679688 12.5625 -10.609375 C 11.75 -11.546875 10.734375 -12.015625 9.515625 -12.015625 C 8.304688 -12.015625 7.28125 -11.554688 6.4375 -10.640625 C 5.601562 -9.722656 5.1875 -8.453125 5.1875 -6.828125 Z M 5.1875 -6.828125 "/></g></g></g><g fill="#8f68ff" fill-opacity="1"><g transform="translate(480.670502, 83.286297)"><g><path d="M 7.5 6.546875 C 6.570312 6.546875 5.867188 6.476562 5.390625 6.34375 C 4.910156 6.21875 4.523438 6.101562 4.234375 6 C 3.953125 5.90625 3.707031 5.804688 3.5 5.703125 C 3.289062 5.597656 3.09375 5.488281 2.90625 5.375 C 2.09375 4.832031 1.785156 4.441406 1.984375 4.203125 L 2.71875 3.15625 C 2.832031 2.988281 2.988281 2.984375 3.1875 3.140625 C 3.207031 3.140625 3.269531 3.179688 3.375 3.265625 C 3.476562 3.347656 3.582031 3.425781 3.6875 3.5 C 3.789062 3.570312 3.929688 3.660156 4.109375 3.765625 C 4.285156 3.867188 4.484375 3.960938 4.703125 4.046875 C 4.929688 4.128906 5.175781 4.207031 5.4375 4.28125 C 6.050781 4.445312 6.726562 4.53125 7.46875 4.53125 C 8.8125 4.53125 9.890625 4.207031 10.703125 3.5625 C 11.515625 2.925781 11.921875 1.914062 11.921875 0.53125 L 11.921875 -2.65625 C 11.585938 -1.875 11.03125 -1.203125 10.25 -0.640625 C 9.476562 -0.078125 8.515625 0.203125 7.359375 0.203125 C 5.460938 0.203125 3.9375 -0.457031 2.78125 -1.78125 C 1.632812 -3.113281 1.0625 -4.832031 1.0625 -6.9375 C 1.0625 -9.050781 1.644531 -10.75 2.8125 -12.03125 C 3.976562 -13.320312 5.492188 -13.96875 7.359375 -13.96875 C 8.515625 -13.96875 9.488281 -13.703125 10.28125 -13.171875 C 11.082031 -12.640625 11.660156 -11.992188 12.015625 -11.234375 L 12.0625 -11.234375 L 12.046875 -13.4375 C 12.046875 -13.664062 12.15625 -13.78125 12.375 -13.78125 L 15.6875 -13.78125 C 15.90625 -13.78125 16.015625 -13.664062 16.015625 -13.4375 L 16.015625 -12.234375 C 16.015625 -12.015625 15.90625 -11.90625 15.6875 -11.90625 L 14.171875 -11.90625 L 14.171875 0.53125 C 14.171875 2.53125 13.554688 4.03125 12.328125 5.03125 C 11.109375 6.039062 9.5 6.546875 7.5 6.546875 Z M 3.359375 -6.90625 C 3.359375 -5.363281 3.769531 -4.117188 4.59375 -3.171875 C 5.414062 -2.234375 6.441406 -1.765625 7.671875 -1.765625 C 8.898438 -1.765625 9.921875 -2.226562 10.734375 -3.15625 C 11.546875 -4.09375 11.953125 -5.34375 11.953125 -6.90625 C 11.953125 -8.476562 11.546875 -9.722656 10.734375 -10.640625 C 9.921875 -11.554688 8.898438 -12.015625 7.671875 -12.015625 C 6.441406 -12.015625 5.414062 -11.546875 4.59375 -10.609375 C 3.769531 -9.679688 3.359375 -8.445312 3.359375 -6.90625 Z M 3.359375 -6.90625 "/></g></g></g><g fill="#8f68ff" fill-opacity="1"><g transform="translate(497.776168, 83.286297)"><g><path d="M 13.53125 -6.609375 L 3.4375 -6.609375 C 3.519531 -5.054688 4.007812 -3.859375 4.90625 -3.015625 C 5.8125 -2.179688 6.832031 -1.765625 7.96875 -1.765625 C 9.113281 -1.765625 10.09375 -2.003906 10.90625 -2.484375 C 11.71875 -2.972656 12.265625 -3.453125 12.546875 -3.921875 C 12.691406 -4.109375 12.859375 -4.132812 13.046875 -4 L 13.796875 -3.25 C 13.910156 -3.132812 13.96875 -3.035156 13.96875 -2.953125 C 13.96875 -2.867188 13.925781 -2.757812 13.84375 -2.625 C 13.757812 -2.5 13.585938 -2.296875 13.328125 -2.015625 C 13.066406 -1.734375 12.695312 -1.414062 12.21875 -1.0625 C 11.75 -0.707031 11.132812 -0.40625 10.375 -0.15625 C 9.613281 0.0820312 8.804688 0.203125 7.953125 0.203125 C 5.992188 0.203125 4.351562 -0.441406 3.03125 -1.734375 C 1.71875 -3.023438 1.0625 -4.753906 1.0625 -6.921875 C 1.0625 -9.097656 1.710938 -10.816406 3.015625 -12.078125 C 4.328125 -13.335938 5.929688 -13.96875 7.828125 -13.96875 C 9.722656 -13.96875 11.210938 -13.351562 12.296875 -12.125 C 13.378906 -10.90625 13.921875 -9.265625 13.921875 -7.203125 C 13.921875 -7.117188 13.921875 -7.039062 13.921875 -6.96875 C 13.921875 -6.726562 13.789062 -6.609375 13.53125 -6.609375 Z M 11.59375 -8.3125 C 11.539062 -9.46875 11.175781 -10.390625 10.5 -11.078125 C 9.820312 -11.773438 8.921875 -12.125 7.796875 -12.125 C 6.679688 -12.125 5.722656 -11.804688 4.921875 -11.171875 C 4.117188 -10.535156 3.644531 -9.582031 3.5 -8.3125 Z M 11.59375 -8.3125 "/></g></g></g><g fill="#8f68ff" fill-opacity="1"><g transform="translate(512.838114, 83.286297)"><g><path d="M 24.640625 0 L 21.984375 0 C 21.554688 0 21.242188 -0.0859375 21.046875 -0.265625 C 20.847656 -0.441406 20.75 -0.742188 20.75 -1.171875 L 20.75 -8.546875 C 20.75 -9.617188 20.488281 -10.453125 19.96875 -11.046875 C 19.457031 -11.648438 18.703125 -11.953125 17.703125 -11.953125 C 16.222656 -11.953125 15.0625 -11.3125 14.21875 -10.03125 C 14.332031 -9.6875 14.390625 -9.3125 14.390625 -8.90625 L 14.390625 -1.875 L 15.953125 -1.875 C 16.179688 -1.875 16.296875 -1.765625 16.296875 -1.546875 L 16.296875 -0.34375 C 16.296875 -0.113281 16.179688 0 15.953125 0 L 10.609375 0 C 10.367188 0 10.25 -0.113281 10.25 -0.34375 L 10.25 -1.546875 C 10.25 -1.765625 10.367188 -1.875 10.609375 -1.875 L 12.09375 -1.875 L 12.09375 -8.546875 C 12.09375 -9.617188 11.832031 -10.453125 11.3125 -11.046875 C 10.789062 -11.648438 10.023438 -11.953125 9.015625 -11.953125 C 8.253906 -11.953125 7.671875 -11.832031 7.265625 -11.59375 C 6.859375 -11.363281 6.550781 -11.160156 6.34375 -10.984375 C 6.144531 -10.804688 5.984375 -10.632812 5.859375 -10.46875 C 5.628906 -10.175781 5.441406 -9.867188 5.296875 -9.546875 L 5.296875 -1.875 L 6.65625 -1.875 C 6.882812 -1.875 7 -1.765625 7 -1.546875 L 7 -0.34375 C 7 -0.113281 6.882812 0 6.65625 0 L 1.421875 0 C 1.179688 0 1.0625 -0.113281 1.0625 -0.34375 L 1.0625 -1.546875 C 1.0625 -1.765625 1.179688 -1.875 1.421875 -1.875 L 2.96875 -1.875 L 2.96875 -11.90625 L 1.421875 -11.90625 C 1.179688 -11.90625 1.0625 -12.015625 1.0625 -12.234375 L 1.0625 -13.4375 C 1.0625 -13.664062 1.179688 -13.78125 1.421875 -13.78125 L 4.171875 -13.78125 C 4.484375 -13.78125 4.707031 -13.71875 4.84375 -13.59375 C 4.988281 -13.46875 5.0625 -13.25 5.0625 -12.9375 L 5.015625 -11.53125 L 5.09375 -11.53125 C 6.0625 -13.15625 7.566406 -13.96875 9.609375 -13.96875 C 11.660156 -13.96875 13.054688 -13.191406 13.796875 -11.640625 C 14.867188 -13.191406 16.375 -13.96875 18.3125 -13.96875 C 19.800781 -13.96875 20.960938 -13.53125 21.796875 -12.65625 C 22.628906 -11.78125 23.046875 -10.59375 23.046875 -9.09375 L 23.078125 -1.875 L 24.640625 -1.875 C 24.878906 -1.875 25 -1.765625 25 -1.546875 L 25 -0.34375 C 25 -0.113281 24.878906 0 24.640625 0 Z M 24.640625 0 "/></g></g></g><g fill="#8f68ff" fill-opacity="1"><g transform="translate(538.902558, 83.286297)"><g><path d="M 6.78125 0 L 1.421875 0 C 1.179688 0 1.0625 -0.113281 1.0625 -0.34375 L 1.0625 -1.546875 C 1.0625 -1.765625 1.179688 -1.875 1.421875 -1.875 L 2.96875 -1.875 L 2.96875 -11.90625 L 1.421875 -11.90625 C 1.179688 -11.90625 1.0625 -12.015625 1.0625 -12.234375 L 1.0625 -13.4375 C 1.0625 -13.664062 1.179688 -13.78125 1.421875 -13.78125 L 4.953125 -13.78125 C 5.179688 -13.78125 5.296875 -13.664062 5.296875 -13.4375 L 5.296875 -1.875 L 6.78125 -1.875 C 7.019531 -1.875 7.140625 -1.765625 7.140625 -1.546875 L 7.140625 -0.34375 C 7.140625 -0.113281 7.019531 0 6.78125 0 Z M 5.1875 -17.90625 C 5.5 -17.59375 5.65625 -17.222656 5.65625 -16.796875 C 5.65625 -16.367188 5.5 -16.003906 5.1875 -15.703125 C 4.882812 -15.410156 4.515625 -15.265625 4.078125 -15.265625 C 3.648438 -15.265625 3.28125 -15.410156 2.96875 -15.703125 C 2.664062 -16.003906 2.515625 -16.367188 2.515625 -16.796875 C 2.515625 -17.222656 2.664062 -17.59375 2.96875 -17.90625 C 3.28125 -18.226562 3.648438 -18.390625 4.078125 -18.390625 C 4.515625 -18.390625 4.882812 -18.226562 5.1875 -17.90625 Z M 5.1875 -17.90625 "/></g></g></g><g fill="#8f68ff" fill-opacity="1"><g transform="translate(547.105442, 83.286297)"><g><path d="M 15.953125 0 L 13.296875 0 C 12.492188 0 12.09375 -0.390625 12.09375 -1.171875 L 12.09375 -8.546875 C 12.09375 -9.617188 11.832031 -10.453125 11.3125 -11.046875 C 10.789062 -11.648438 10.023438 -11.953125 9.015625 -11.953125 C 7.578125 -11.953125 6.457031 -11.363281 5.65625 -10.1875 C 5.5625 -10.082031 5.441406 -9.878906 5.296875 -9.578125 L 5.296875 -1.875 L 6.78125 -1.875 C 7.019531 -1.875 7.140625 -1.765625 7.140625 -1.546875 L 7.140625 -0.34375 C 7.140625 -0.113281 7.019531 0 6.78125 0 L 1.421875 0 C 1.179688 0 1.0625 -0.113281 1.0625 -0.34375 L 1.0625 -1.546875 C 1.0625 -1.765625 1.179688 -1.875 1.421875 -1.875 L 2.96875 -1.875 L 2.96875 -11.90625 L 1.421875 -11.90625 C 1.179688 -11.90625 1.0625 -12.015625 1.0625 -12.234375 L 1.0625 -13.4375 C 1.0625 -13.664062 1.179688 -13.78125 1.421875 -13.78125 L 4.703125 -13.78125 C 4.941406 -13.78125 5.0625 -13.664062 5.0625 -13.4375 L 5.015625 -11.53125 L 5.09375 -11.53125 C 6.0625 -13.15625 7.566406 -13.96875 9.609375 -13.96875 C 11.097656 -13.96875 12.257812 -13.53125 13.09375 -12.65625 C 13.9375 -11.78125 14.367188 -10.59375 14.390625 -9.09375 L 14.390625 -1.875 L 15.953125 -1.875 C 16.203125 -1.875 16.328125 -1.765625 16.328125 -1.546875 L 16.328125 -0.34375 C 16.328125 -0.113281 16.203125 0 15.953125 0 Z M 15.953125 0 "/></g></g></g><g fill="#8f68ff" fill-opacity="1"><g transform="translate(564.491065, 83.286297)"><g><path d="M 6.78125 0 L 1.421875 0 C 1.179688 0 1.0625 -0.113281 1.0625 -0.34375 L 1.0625 -1.546875 C 1.0625 -1.765625 1.179688 -1.875 1.421875 -1.875 L 2.96875 -1.875 L 2.96875 -11.90625 L 1.421875 -11.90625 C 1.179688 -11.90625 1.0625 -12.015625 1.0625 -12.234375 L 1.0625 -13.4375 C 1.0625 -13.664062 1.179688 -13.78125 1.421875 -13.78125 L 4.953125 -13.78125 C 5.179688 -13.78125 5.296875 -13.664062 5.296875 -13.4375 L 5.296875 -1.875 L 6.78125 -1.875 C 7.019531 -1.875 7.140625 -1.765625 7.140625 -1.546875 L 7.140625 -0.34375 C 7.140625 -0.113281 7.019531 0 6.78125 0 Z M 5.1875 -17.90625 C 5.5 -17.59375 5.65625 -17.222656 5.65625 -16.796875 C 5.65625 -16.367188 5.5 -16.003906 5.1875 -15.703125 C 4.882812 -15.410156 4.515625 -15.265625 4.078125 -15.265625 C 3.648438 -15.265625 3.28125 -15.410156 2.96875 -15.703125 C 2.664062 -16.003906 2.515625 -16.367188 2.515625 -16.796875 C 2.515625 -17.222656 2.664062 -17.59375 2.96875 -17.90625 C 3.28125 -18.226562 3.648438 -18.390625 4.078125 -18.390625 C 4.515625 -18.390625 4.882812 -18.226562 5.1875 -17.90625 Z M 5.1875 -17.90625 "/></g></g></g><g fill="#8f68ff" fill-opacity="1"><g transform="translate(618.174001, 86.196208)"><g><path d="M 0.09375 -0.71875 C 0.09375 -0.726562 0.0976562 -0.75 0.109375 -0.78125 C 0.117188 -0.8125 0.15625 -0.828125 0.21875 -0.828125 L 0.53125 -0.828125 C 0.925781 -0.859375 1.328125 -0.875 1.734375 -0.875 C 2.148438 -0.882812 2.53125 -0.9375 2.875 -1.03125 C 3.21875 -1.132812 3.492188 -1.3125 3.703125 -1.5625 C 3.921875 -1.8125 4.03125 -2.203125 4.03125 -2.734375 L 4.03125 -17.234375 C 4.03125 -17.597656 3.953125 -17.894531 3.796875 -18.125 C 3.648438 -18.363281 3.453125 -18.550781 3.203125 -18.6875 C 2.960938 -18.832031 2.6875 -18.9375 2.375 -19 C 2.0625 -19.070312 1.75 -19.132812 1.4375 -19.1875 L 1.140625 -19.1875 C 1.085938 -19.1875 1.050781 -19.195312 1.03125 -19.21875 C 1.019531 -19.25 1.015625 -19.273438 1.015625 -19.296875 L 1.015625 -19.859375 C 1.015625 -19.867188 1.019531 -19.890625 1.03125 -19.921875 C 1.050781 -19.953125 1.085938 -19.96875 1.140625 -19.96875 L 15.234375 -19.96875 C 15.398438 -19.96875 15.519531 -19.9375 15.59375 -19.875 C 15.675781 -19.8125 15.726562 -19.675781 15.75 -19.46875 L 16 -14.9375 C 16 -14.894531 15.957031 -14.859375 15.875 -14.828125 C 15.800781 -14.804688 15.726562 -14.796875 15.65625 -14.796875 C 15.582031 -14.796875 15.507812 -14.804688 15.4375 -14.828125 C 15.363281 -14.847656 15.3125 -14.875 15.28125 -14.90625 C 15.21875 -15 15.171875 -15.140625 15.140625 -15.328125 C 15.109375 -15.515625 15.078125 -15.71875 15.046875 -15.9375 C 15.015625 -16.164062 14.96875 -16.398438 14.90625 -16.640625 C 14.84375 -16.890625 14.75 -17.117188 14.625 -17.328125 C 14.5 -17.535156 14.332031 -17.71875 14.125 -17.875 C 13.914062 -18.03125 13.644531 -18.140625 13.3125 -18.203125 L 8.25 -18.203125 C 8.132812 -18.203125 8.078125 -18.140625 8.078125 -18.015625 L 8.078125 -11.25 C 8.078125 -11.15625 8.125 -11.109375 8.21875 -11.109375 L 12.265625 -11.109375 C 12.492188 -11.109375 12.722656 -11.140625 12.953125 -11.203125 C 13.191406 -11.265625 13.394531 -11.375 13.5625 -11.53125 C 13.738281 -11.695312 13.878906 -11.921875 13.984375 -12.203125 C 14.097656 -12.492188 14.15625 -12.867188 14.15625 -13.328125 C 14.15625 -13.398438 14.195312 -13.4375 14.28125 -13.4375 L 14.828125 -13.4375 C 14.898438 -13.4375 14.9375 -13.398438 14.9375 -13.328125 L 14.9375 -6.84375 C 14.9375 -6.789062 14.921875 -6.753906 14.890625 -6.734375 C 14.867188 -6.722656 14.847656 -6.71875 14.828125 -6.71875 L 14.28125 -6.71875 C 14.226562 -6.71875 14.191406 -6.734375 14.171875 -6.765625 C 14.160156 -6.796875 14.15625 -6.820312 14.15625 -6.84375 C 14.15625 -7.363281 14.097656 -7.785156 13.984375 -8.109375 C 13.878906 -8.441406 13.738281 -8.695312 13.5625 -8.875 C 13.382812 -9.0625 13.179688 -9.1875 12.953125 -9.25 C 12.722656 -9.3125 12.476562 -9.34375 12.21875 -9.34375 L 8.21875 -9.34375 C 8.125 -9.34375 8.078125 -9.296875 8.078125 -9.203125 L 8.078125 -3.015625 C 8.078125 -2.742188 8.117188 -2.523438 8.203125 -2.359375 C 8.285156 -2.191406 8.398438 -2.066406 8.546875 -1.984375 C 8.691406 -1.898438 8.859375 -1.84375 9.046875 -1.8125 C 9.234375 -1.78125 9.429688 -1.765625 9.640625 -1.765625 L 13.515625 -1.765625 C 14.054688 -1.765625 14.507812 -1.890625 14.875 -2.140625 C 15.25 -2.390625 15.546875 -2.691406 15.765625 -3.046875 C 15.992188 -3.410156 16.160156 -3.785156 16.265625 -4.171875 C 16.378906 -4.566406 16.453125 -4.898438 16.484375 -5.171875 C 16.503906 -5.296875 16.566406 -5.390625 16.671875 -5.453125 C 16.773438 -5.523438 16.890625 -5.5625 17.015625 -5.5625 C 17.066406 -5.5625 17.125 -5.539062 17.1875 -5.5 C 17.257812 -5.46875 17.296875 -5.425781 17.296875 -5.375 L 16.828125 -0.203125 C 16.804688 -0.148438 16.773438 -0.101562 16.734375 -0.0625 C 16.703125 -0.0195312 16.664062 0 16.625 0 L 0.21875 0 C 0.15625 0 0.117188 -0.015625 0.109375 -0.046875 C 0.0976562 -0.078125 0.09375 -0.0976562 0.09375 -0.109375 Z M 0.09375 -0.71875 "/></g></g></g><g fill="#8f68ff" fill-opacity="1"><g transform="translate(636.704652, 86.196208)"><g><path d="M 0.375 -0.734375 C 0.375 -0.753906 0.378906 -0.773438 0.390625 -0.796875 C 0.398438 -0.828125 0.429688 -0.84375 0.484375 -0.84375 C 1.109375 -0.84375 1.59375 -0.914062 1.9375 -1.0625 C 2.28125 -1.207031 2.535156 -1.410156 2.703125 -1.671875 C 2.867188 -1.929688 2.96875 -2.238281 3 -2.59375 C 3.039062 -2.957031 3.070312 -3.347656 3.09375 -3.765625 C 3.144531 -4.984375 3.207031 -6.164062 3.28125 -7.3125 C 3.363281 -8.457031 3.441406 -9.582031 3.515625 -10.6875 C 3.597656 -11.800781 3.664062 -12.898438 3.71875 -13.984375 C 3.78125 -15.078125 3.8125 -16.171875 3.8125 -17.265625 L 3.8125 -17.78125 C 3.8125 -18 3.738281 -18.191406 3.59375 -18.359375 C 3.457031 -18.523438 3.289062 -18.664062 3.09375 -18.78125 C 2.894531 -18.894531 2.695312 -18.976562 2.5 -19.03125 C 2.300781 -19.082031 2.148438 -19.109375 2.046875 -19.109375 C 1.960938 -19.109375 1.921875 -19.148438 1.921875 -19.234375 L 1.921875 -19.859375 C 1.921875 -19.867188 1.925781 -19.890625 1.9375 -19.921875 C 1.945312 -19.953125 1.984375 -19.96875 2.046875 -19.96875 L 7.046875 -19.96875 C 7.148438 -19.945312 7.234375 -19.910156 7.296875 -19.859375 C 7.367188 -19.804688 7.429688 -19.738281 7.484375 -19.65625 L 13.65625 -5.921875 C 13.71875 -5.753906 13.800781 -5.671875 13.90625 -5.671875 C 14.007812 -5.671875 14.082031 -5.691406 14.125 -5.734375 C 14.175781 -5.785156 14.21875 -5.851562 14.25 -5.9375 L 20.328125 -19.40625 C 20.421875 -19.582031 20.515625 -19.71875 20.609375 -19.8125 C 20.710938 -19.914062 20.8125 -19.96875 20.90625 -19.96875 L 25.890625 -19.96875 C 25.941406 -19.96875 25.972656 -19.953125 25.984375 -19.921875 C 25.992188 -19.890625 26 -19.867188 26 -19.859375 L 26 -19.234375 C 26 -19.210938 25.988281 -19.1875 25.96875 -19.15625 C 25.957031 -19.125 25.929688 -19.109375 25.890625 -19.109375 C 25.867188 -19.109375 25.753906 -19.085938 25.546875 -19.046875 C 25.347656 -19.015625 25.128906 -18.941406 24.890625 -18.828125 C 24.648438 -18.722656 24.429688 -18.566406 24.234375 -18.359375 C 24.035156 -18.160156 23.9375 -17.898438 23.9375 -17.578125 L 24.75 -2.5 C 24.757812 -2.21875 24.832031 -1.984375 24.96875 -1.796875 C 25.101562 -1.609375 25.269531 -1.453125 25.46875 -1.328125 C 25.664062 -1.203125 25.875 -1.109375 26.09375 -1.046875 C 26.320312 -0.992188 26.53125 -0.945312 26.71875 -0.90625 C 26.914062 -0.875 27.082031 -0.851562 27.21875 -0.84375 C 27.351562 -0.84375 27.425781 -0.84375 27.4375 -0.84375 C 27.488281 -0.84375 27.519531 -0.828125 27.53125 -0.796875 C 27.550781 -0.773438 27.5625 -0.753906 27.5625 -0.734375 L 27.5625 -0.109375 C 27.5625 -0.0859375 27.550781 -0.0625 27.53125 -0.03125 C 27.519531 -0.0078125 27.488281 0 27.4375 0 L 18.125 0 C 18.050781 0 18.015625 -0.0351562 18.015625 -0.109375 L 18.015625 -0.734375 C 18.015625 -0.804688 18.050781 -0.84375 18.125 -0.84375 C 18.351562 -0.84375 18.609375 -0.851562 18.890625 -0.875 C 19.179688 -0.90625 19.457031 -0.960938 19.71875 -1.046875 C 19.988281 -1.128906 20.210938 -1.253906 20.390625 -1.421875 C 20.566406 -1.585938 20.65625 -1.804688 20.65625 -2.078125 L 20.015625 -13.65625 C 20.003906 -13.75 19.976562 -13.796875 19.9375 -13.796875 C 19.894531 -13.796875 19.859375 -13.753906 19.828125 -13.671875 L 13.625 -0.234375 C 13.570312 -0.128906 13.503906 -0.0625 13.421875 -0.03125 C 13.347656 -0.0078125 13.210938 0 13.015625 0 C 12.671875 0 12.414062 -0.0078125 12.25 -0.03125 C 12.09375 -0.0507812 11.984375 -0.125 11.921875 -0.25 L 5.890625 -13.546875 C 5.859375 -13.617188 5.835938 -13.671875 5.828125 -13.703125 C 5.816406 -13.734375 5.789062 -13.75 5.75 -13.75 C 5.6875 -13.75 5.65625 -13.6875 5.65625 -13.5625 C 5.65625 -13.28125 5.640625 -12.863281 5.609375 -12.3125 C 5.578125 -11.769531 5.535156 -11.15625 5.484375 -10.46875 C 5.441406 -9.78125 5.394531 -9.054688 5.34375 -8.296875 C 5.300781 -7.535156 5.253906 -6.796875 5.203125 -6.078125 C 5.160156 -5.359375 5.125 -4.6875 5.09375 -4.0625 C 5.070312 -3.445312 5.0625 -2.941406 5.0625 -2.546875 L 5.0625 -1.96875 C 5.09375 -1.789062 5.179688 -1.628906 5.328125 -1.484375 C 5.484375 -1.347656 5.675781 -1.226562 5.90625 -1.125 C 6.132812 -1.03125 6.382812 -0.957031 6.65625 -0.90625 C 6.925781 -0.863281 7.210938 -0.84375 7.515625 -0.84375 C 7.566406 -0.84375 7.59375 -0.828125 7.59375 -0.796875 C 7.601562 -0.773438 7.609375 -0.753906 7.609375 -0.734375 L 7.609375 -0.109375 C 7.609375 -0.0351562 7.578125 0 7.515625 0 L 0.484375 0 C 0.410156 0 0.375 -0.0351562 0.375 -0.109375 Z M 0.375 -0.734375 "/></g></g></g><g fill="#8f68ff" fill-opacity="1"><g transform="translate(664.847457, 86.196208)"><g/></g></g><g fill="#8f68ff" fill-opacity="1"><g transform="translate(672.633445, 86.196208)"><g><path d="M 0.6875 0 C 0.632812 0 0.597656 -0.0078125 0.578125 -0.03125 C 0.566406 -0.0625 0.5625 -0.0859375 0.5625 -0.109375 L 0.5625 -0.875 C 0.5625 -0.894531 0.566406 -0.914062 0.578125 -0.9375 C 0.585938 -0.96875 0.625 -0.984375 0.6875 -0.984375 L 1.015625 -0.984375 C 1.046875 -0.984375 1.140625 -0.988281 1.296875 -1 C 1.453125 -1.019531 1.628906 -1.046875 1.828125 -1.078125 C 2.035156 -1.117188 2.25 -1.164062 2.46875 -1.21875 C 2.6875 -1.269531 2.867188 -1.34375 3.015625 -1.4375 C 3.347656 -1.625 3.59375 -1.863281 3.75 -2.15625 C 3.914062 -2.457031 4 -2.789062 4 -3.15625 L 4 -17.296875 C 4 -17.628906 3.882812 -17.90625 3.65625 -18.125 C 3.4375 -18.34375 3.171875 -18.515625 2.859375 -18.640625 C 2.554688 -18.765625 2.242188 -18.847656 1.921875 -18.890625 C 1.609375 -18.941406 1.359375 -18.96875 1.171875 -18.96875 L 0.859375 -18.96875 C 0.816406 -18.96875 0.785156 -18.984375 0.765625 -19.015625 C 0.753906 -19.054688 0.75 -19.082031 0.75 -19.09375 L 0.75 -19.859375 C 0.75 -19.867188 0.753906 -19.890625 0.765625 -19.921875 C 0.785156 -19.953125 0.816406 -19.96875 0.859375 -19.96875 L 11.71875 -19.96875 C 11.769531 -19.96875 11.800781 -19.953125 11.8125 -19.921875 C 11.832031 -19.890625 11.84375 -19.867188 11.84375 -19.859375 L 11.84375 -19.09375 C 11.84375 -19.070312 11.832031 -19.046875 11.8125 -19.015625 C 11.800781 -18.984375 11.769531 -18.96875 11.71875 -18.96875 L 11.109375 -18.96875 C 10.585938 -18.96875 10.097656 -18.925781 9.640625 -18.84375 C 9.191406 -18.757812 8.820312 -18.664062 8.53125 -18.5625 C 8.320312 -18.488281 8.1875 -18.363281 8.125 -18.1875 C 8.0625 -18.007812 8.03125 -17.710938 8.03125 -17.296875 L 8.03125 -2.4375 C 8.050781 -2.269531 8.132812 -2.113281 8.28125 -1.96875 C 8.4375 -1.832031 8.609375 -1.765625 8.796875 -1.765625 L 13.75 -1.765625 C 14.082031 -1.765625 14.394531 -1.832031 14.6875 -1.96875 C 14.988281 -2.113281 15.265625 -2.296875 15.515625 -2.515625 C 15.773438 -2.742188 16.007812 -2.988281 16.21875 -3.25 C 16.4375 -3.519531 16.632812 -3.773438 16.8125 -4.015625 C 17 -4.265625 17.160156 -4.484375 17.296875 -4.671875 C 17.441406 -4.867188 17.566406 -5.007812 17.671875 -5.09375 C 17.722656 -5.125 17.773438 -5.148438 17.828125 -5.171875 C 17.890625 -5.203125 17.960938 -5.21875 18.046875 -5.21875 C 18.210938 -5.21875 18.296875 -5.160156 18.296875 -5.046875 C 18.296875 -4.984375 18.28125 -4.925781 18.25 -4.875 L 15.90625 -0.25 C 15.863281 -0.175781 15.816406 -0.113281 15.765625 -0.0625 C 15.722656 -0.0195312 15.671875 0 15.609375 0 Z M 0.6875 0 "/></g></g></g><g fill="#8f68ff" fill-opacity="1"><g transform="translate(691.022532, 86.196208)"><g><path d="M 10.078125 -7 C 10.078125 -7.050781 10.066406 -7.097656 10.046875 -7.140625 L 4.25 -16.390625 C 4.082031 -16.648438 3.90625 -16.910156 3.71875 -17.171875 C 3.539062 -17.429688 3.34375 -17.675781 3.125 -17.90625 C 2.90625 -18.132812 2.664062 -18.335938 2.40625 -18.515625 C 2.144531 -18.691406 1.863281 -18.816406 1.5625 -18.890625 C 1.507812 -18.898438 1.429688 -18.914062 1.328125 -18.9375 C 1.222656 -18.957031 1.113281 -18.976562 1 -19 C 0.882812 -19.019531 0.773438 -19.039062 0.671875 -19.0625 C 0.578125 -19.082031 0.503906 -19.097656 0.453125 -19.109375 C 0.359375 -19.109375 0.269531 -19.160156 0.1875 -19.265625 C 0.101562 -19.378906 0.0625 -19.476562 0.0625 -19.5625 C 0.0625 -19.582031 0.0625 -19.613281 0.0625 -19.65625 C 0.0703125 -19.707031 0.0820312 -19.753906 0.09375 -19.796875 C 0.101562 -19.835938 0.125 -19.875 0.15625 -19.90625 C 0.1875 -19.945312 0.222656 -19.96875 0.265625 -19.96875 L 9.890625 -19.96875 C 9.992188 -19.96875 10.054688 -19.921875 10.078125 -19.828125 C 10.109375 -19.734375 10.125 -19.644531 10.125 -19.5625 C 10.125 -19.46875 10.113281 -19.367188 10.09375 -19.265625 C 10.082031 -19.160156 10.03125 -19.109375 9.9375 -19.109375 C 9.6875 -19.097656 9.445312 -19.082031 9.21875 -19.0625 C 8.988281 -19.039062 8.789062 -18.992188 8.625 -18.921875 C 8.46875 -18.847656 8.34375 -18.738281 8.25 -18.59375 C 8.15625 -18.457031 8.109375 -18.265625 8.109375 -18.015625 C 8.109375 -17.785156 8.164062 -17.582031 8.28125 -17.40625 L 12.609375 -10.46875 C 12.710938 -10.300781 12.78125 -10.195312 12.8125 -10.15625 C 12.84375 -10.125 12.894531 -10.109375 12.96875 -10.109375 C 13.03125 -10.109375 13.085938 -10.144531 13.140625 -10.21875 C 13.191406 -10.300781 13.257812 -10.398438 13.34375 -10.515625 L 16.75 -16.3125 C 16.882812 -16.53125 17.019531 -16.769531 17.15625 -17.03125 C 17.289062 -17.300781 17.359375 -17.570312 17.359375 -17.84375 C 17.359375 -18.101562 17.320312 -18.3125 17.25 -18.46875 C 17.175781 -18.625 17.066406 -18.742188 16.921875 -18.828125 C 16.785156 -18.910156 16.613281 -18.972656 16.40625 -19.015625 C 16.207031 -19.054688 15.976562 -19.085938 15.71875 -19.109375 C 15.613281 -19.117188 15.550781 -19.175781 15.53125 -19.28125 C 15.507812 -19.382812 15.5 -19.476562 15.5 -19.5625 C 15.5 -19.632812 15.507812 -19.71875 15.53125 -19.8125 C 15.5625 -19.914062 15.632812 -19.96875 15.75 -19.96875 L 22.875 -19.96875 C 22.945312 -19.96875 22.992188 -19.910156 23.015625 -19.796875 C 23.046875 -19.691406 23.0625 -19.613281 23.0625 -19.5625 C 23.0625 -19.46875 23.03125 -19.390625 22.96875 -19.328125 C 22.914062 -19.265625 22.84375 -19.210938 22.75 -19.171875 C 22.65625 -19.128906 22.554688 -19.09375 22.453125 -19.0625 C 22.359375 -19.039062 22.269531 -19.019531 22.1875 -19 C 21.71875 -18.894531 21.3125 -18.722656 20.96875 -18.484375 C 20.625 -18.242188 20.285156 -17.945312 19.953125 -17.59375 C 19.898438 -17.539062 19.828125 -17.460938 19.734375 -17.359375 C 19.648438 -17.253906 19.601562 -17.191406 19.59375 -17.171875 L 14.125 -7.765625 L 14.125 -2.765625 C 14.125 -2.191406 14.269531 -1.75 14.5625 -1.4375 C 14.851562 -1.132812 15.367188 -0.941406 16.109375 -0.859375 C 16.210938 -0.847656 16.34375 -0.84375 16.5 -0.84375 C 16.664062 -0.84375 16.804688 -0.84375 16.921875 -0.84375 C 16.972656 -0.84375 17.003906 -0.828125 17.015625 -0.796875 C 17.023438 -0.773438 17.03125 -0.753906 17.03125 -0.734375 L 17.03125 -0.109375 C 17.03125 -0.0859375 17.023438 -0.0625 17.015625 -0.03125 C 17.003906 -0.0078125 16.972656 0 16.921875 0 L 7.28125 0 C 7.226562 0 7.195312 -0.0078125 7.1875 -0.03125 C 7.175781 -0.0625 7.171875 -0.0859375 7.171875 -0.109375 L 7.171875 -0.734375 C 7.171875 -0.753906 7.175781 -0.773438 7.1875 -0.796875 C 7.195312 -0.828125 7.226562 -0.84375 7.28125 -0.84375 C 7.382812 -0.84375 7.519531 -0.84375 7.6875 -0.84375 C 7.851562 -0.84375 7.984375 -0.847656 8.078125 -0.859375 C 8.828125 -0.941406 9.347656 -1.132812 9.640625 -1.4375 C 9.929688 -1.75 10.078125 -2.191406 10.078125 -2.765625 Z M 10.078125 -7 "/></g></g></g><g fill="#8f68ff" fill-opacity="1"><g transform="translate(714.153992, 86.196208)"><g><path d="M 12.765625 0.375 C 12.441406 0.375 12.03125 0.34375 11.53125 0.28125 C 11.039062 0.226562 10.5 0.128906 9.90625 -0.015625 C 9.3125 -0.171875 8.691406 -0.367188 8.046875 -0.609375 C 7.410156 -0.859375 6.78125 -1.175781 6.15625 -1.5625 C 5.539062 -1.945312 4.953125 -2.398438 4.390625 -2.921875 C 3.835938 -3.441406 3.351562 -4.050781 2.9375 -4.75 C 2.519531 -5.445312 2.1875 -6.238281 1.9375 -7.125 C 1.6875 -8.007812 1.5625 -9.003906 1.5625 -10.109375 C 1.5625 -11.085938 1.691406 -12.023438 1.953125 -12.921875 C 2.222656 -13.828125 2.609375 -14.664062 3.109375 -15.4375 C 3.609375 -16.207031 4.210938 -16.910156 4.921875 -17.546875 C 5.640625 -18.179688 6.4375 -18.71875 7.3125 -19.15625 C 8.195312 -19.601562 9.148438 -19.945312 10.171875 -20.1875 C 11.203125 -20.4375 12.285156 -20.5625 13.421875 -20.5625 C 14.398438 -20.5625 15.347656 -20.441406 16.265625 -20.203125 C 17.191406 -19.960938 18.054688 -19.617188 18.859375 -19.171875 C 19.660156 -18.734375 20.394531 -18.207031 21.0625 -17.59375 C 21.726562 -16.988281 22.300781 -16.304688 22.78125 -15.546875 C 23.257812 -14.796875 23.628906 -13.984375 23.890625 -13.109375 C 24.160156 -12.234375 24.296875 -11.320312 24.296875 -10.375 C 24.296875 -9.488281 24.164062 -8.609375 23.90625 -7.734375 C 23.65625 -6.859375 23.289062 -6.019531 22.8125 -5.21875 C 22.332031 -4.425781 21.75 -3.691406 21.0625 -3.015625 C 20.375 -2.335938 19.601562 -1.742188 18.75 -1.234375 C 17.90625 -0.734375 16.976562 -0.335938 15.96875 -0.046875 C 14.957031 0.234375 13.890625 0.375 12.765625 0.375 Z M 5.71875 -10.640625 C 5.71875 -9.867188 5.796875 -9.097656 5.953125 -8.328125 C 6.109375 -7.566406 6.335938 -6.832031 6.640625 -6.125 C 6.941406 -5.414062 7.3125 -4.753906 7.75 -4.140625 C 8.195312 -3.523438 8.703125 -2.988281 9.265625 -2.53125 C 9.835938 -2.070312 10.46875 -1.710938 11.15625 -1.453125 C 11.851562 -1.191406 12.609375 -1.0625 13.421875 -1.0625 C 14.566406 -1.0625 15.554688 -1.300781 16.390625 -1.78125 C 17.234375 -2.269531 17.929688 -2.914062 18.484375 -3.71875 C 19.035156 -4.519531 19.445312 -5.441406 19.71875 -6.484375 C 19.988281 -7.535156 20.125 -8.617188 20.125 -9.734375 C 20.125 -10.546875 20.046875 -11.335938 19.890625 -12.109375 C 19.734375 -12.890625 19.503906 -13.628906 19.203125 -14.328125 C 18.910156 -15.035156 18.546875 -15.679688 18.109375 -16.265625 C 17.671875 -16.859375 17.164062 -17.375 16.59375 -17.8125 C 16.019531 -18.25 15.382812 -18.585938 14.6875 -18.828125 C 14 -19.066406 13.25 -19.1875 12.4375 -19.1875 C 11.707031 -19.1875 11.035156 -19.070312 10.421875 -18.84375 C 9.804688 -18.613281 9.25 -18.300781 8.75 -17.90625 C 8.257812 -17.519531 7.820312 -17.054688 7.4375 -16.515625 C 7.0625 -15.972656 6.75 -15.382812 6.5 -14.75 C 6.25 -14.125 6.054688 -13.457031 5.921875 -12.75 C 5.785156 -12.050781 5.71875 -11.347656 5.71875 -10.640625 Z M 5.71875 -10.640625 "/></g></g></g><g fill="#8f68ff" fill-opacity="1"><g transform="translate(740.00347, 86.196208)"><g><path d="M 0.96875 0 C 0.945312 0 0.921875 -0.0078125 0.890625 -0.03125 C 0.859375 -0.0625 0.84375 -0.0859375 0.84375 -0.109375 L 0.84375 -0.734375 C 0.84375 -0.804688 0.882812 -0.84375 0.96875 -0.84375 C 1.070312 -0.84375 1.1875 -0.84375 1.3125 -0.84375 C 1.445312 -0.84375 1.578125 -0.847656 1.703125 -0.859375 C 1.828125 -0.867188 1.941406 -0.878906 2.046875 -0.890625 C 2.148438 -0.898438 2.234375 -0.921875 2.296875 -0.953125 C 2.523438 -1.066406 2.710938 -1.21875 2.859375 -1.40625 C 3.015625 -1.59375 3.132812 -1.804688 3.21875 -2.046875 C 3.300781 -2.296875 3.351562 -2.566406 3.375 -2.859375 C 3.40625 -3.148438 3.421875 -3.460938 3.421875 -3.796875 L 3.421875 -17.9375 C 3.421875 -18.195312 3.316406 -18.40625 3.109375 -18.5625 C 2.910156 -18.71875 2.675781 -18.832031 2.40625 -18.90625 C 2.144531 -18.988281 1.875 -19.039062 1.59375 -19.0625 C 1.3125 -19.09375 1.101562 -19.109375 0.96875 -19.109375 C 0.914062 -19.109375 0.878906 -19.125 0.859375 -19.15625 C 0.847656 -19.1875 0.84375 -19.210938 0.84375 -19.234375 L 0.84375 -19.859375 C 0.84375 -19.867188 0.847656 -19.890625 0.859375 -19.921875 C 0.878906 -19.953125 0.914062 -19.96875 0.96875 -19.96875 L 7.375 -19.96875 L 19.578125 -6.453125 C 19.628906 -6.410156 19.664062 -6.375 19.6875 -6.34375 C 19.707031 -6.320312 19.726562 -6.3125 19.75 -6.3125 C 19.789062 -6.3125 19.816406 -6.328125 19.828125 -6.359375 C 19.835938 -6.390625 19.84375 -6.414062 19.84375 -6.4375 L 19.84375 -14.859375 C 19.84375 -15.785156 19.804688 -16.53125 19.734375 -17.09375 C 19.671875 -17.65625 19.550781 -18.082031 19.375 -18.375 C 19.195312 -18.675781 18.957031 -18.875 18.65625 -18.96875 C 18.351562 -19.0625 17.960938 -19.109375 17.484375 -19.109375 L 16.765625 -19.109375 C 16.710938 -19.109375 16.679688 -19.125 16.671875 -19.15625 C 16.660156 -19.1875 16.65625 -19.210938 16.65625 -19.234375 L 16.65625 -19.859375 C 16.65625 -19.867188 16.660156 -19.890625 16.671875 -19.921875 C 16.679688 -19.953125 16.710938 -19.96875 16.765625 -19.96875 L 24.546875 -19.96875 C 24.609375 -19.96875 24.644531 -19.953125 24.65625 -19.921875 C 24.664062 -19.890625 24.671875 -19.867188 24.671875 -19.859375 L 24.671875 -19.234375 C 24.671875 -19.210938 24.660156 -19.1875 24.640625 -19.15625 C 24.628906 -19.125 24.597656 -19.109375 24.546875 -19.109375 C 24.359375 -19.109375 24.113281 -19.070312 23.8125 -19 C 23.519531 -18.925781 23.234375 -18.816406 22.953125 -18.671875 C 22.671875 -18.535156 22.425781 -18.363281 22.21875 -18.15625 C 22.019531 -17.945312 21.921875 -17.710938 21.921875 -17.453125 L 21.921875 -0.6875 C 21.921875 -0.53125 21.878906 -0.394531 21.796875 -0.28125 C 21.722656 -0.175781 21.628906 -0.0859375 21.515625 -0.015625 C 21.398438 0.046875 21.269531 0.09375 21.125 0.125 C 20.988281 0.15625 20.867188 0.171875 20.765625 0.171875 C 20.566406 0.171875 20.34375 0.128906 20.09375 0.046875 C 19.84375 -0.0351562 19.597656 -0.210938 19.359375 -0.484375 L 5.984375 -15.3125 C 5.921875 -15.375 5.875 -15.410156 5.84375 -15.421875 C 5.820312 -15.441406 5.785156 -15.453125 5.734375 -15.453125 C 5.691406 -15.453125 5.671875 -15.40625 5.671875 -15.3125 L 5.671875 -2.65625 C 5.671875 -2.394531 5.734375 -2.164062 5.859375 -1.96875 C 5.984375 -1.78125 6.144531 -1.617188 6.34375 -1.484375 C 6.539062 -1.347656 6.757812 -1.238281 7 -1.15625 C 7.238281 -1.070312 7.472656 -1.003906 7.703125 -0.953125 C 7.941406 -0.910156 8.148438 -0.878906 8.328125 -0.859375 C 8.515625 -0.847656 8.65625 -0.84375 8.75 -0.84375 C 8.800781 -0.84375 8.832031 -0.828125 8.84375 -0.796875 C 8.851562 -0.773438 8.859375 -0.753906 8.859375 -0.734375 L 8.859375 -0.109375 C 8.859375 -0.0859375 8.851562 -0.0625 8.84375 -0.03125 C 8.832031 -0.0078125 8.800781 0 8.75 0 Z M 0.96875 0 "/></g></g></g></svg>