<svg xmlns="http://www.w3.org/2000/svg" xmlns:xlink="http://www.w3.org/1999/xlink" width="1080" zoomAndPan="magnify" viewBox="0 0 810 149.999998" height="200" preserveAspectRatio="xMidYMid meet" version="1.0"><defs><g/></defs><rect x="-81" width="972" fill="#ffffff" y="-15" height="179.999997" fill-opacity="1"/><rect x="-81" width="972" fill="#ffffff" y="-15" height="179.999997" fill-opacity="1"/><g fill="#8f68ff" fill-opacity="1"><g transform="translate(48.09407, 83.249997)"><g><path d="M 1.40625 -0.25 C 2.425781 -0.25 3.226562 -0.515625 3.8125 -1.046875 C 4.40625 -1.578125 4.703125 -2.300781 4.703125 -3.21875 L 4.703125 -20.921875 C 4.703125 -21.847656 4.40625 -22.570312 3.8125 -23.09375 C 3.226562 -23.625 2.425781 -23.890625 1.40625 -23.890625 L 1.40625 -24.140625 L 20.40625 -24.140625 L 21.359375 -17.921875 L 21.140625 -17.8125 L 21.0625 -18.3125 C 21 -18.59375 20.878906 -18.960938 20.703125 -19.421875 C 20.523438 -19.890625 20.25 -20.375 19.875 -20.875 C 19.5 -21.382812 19 -21.867188 18.375 -22.328125 C 17.75 -22.785156 16.960938 -23.160156 16.015625 -23.453125 C 15.066406 -23.742188 13.910156 -23.890625 12.546875 -23.890625 L 10.53125 -23.890625 L 10.5 -12.796875 L 14.703125 -12.796875 C 15.359375 -12.816406 15.867188 -12.945312 16.234375 -13.1875 C 16.609375 -13.425781 16.890625 -13.722656 17.078125 -14.078125 C 17.265625 -14.429688 17.382812 -14.765625 17.4375 -15.078125 C 17.5 -15.398438 17.53125 -15.644531 17.53125 -15.8125 L 17.53125 -15.953125 L 17.78125 -15.953125 L 17.78125 -9.359375 L 17.53125 -9.359375 L 17.53125 -9.484375 C 17.53125 -9.660156 17.5 -9.90625 17.4375 -10.21875 C 17.382812 -10.539062 17.265625 -10.878906 17.078125 -11.234375 C 16.890625 -11.585938 16.609375 -11.890625 16.234375 -12.140625 C 15.867188 -12.390625 15.359375 -12.523438 14.703125 -12.546875 L 10.5 -12.546875 L 10.5 -3.21875 C 10.5 -2.300781 10.789062 -1.578125 11.375 -1.046875 C 11.96875 -0.515625 12.773438 -0.25 13.796875 -0.25 C 16.210938 -0.25 18.226562 -0.753906 19.84375 -1.765625 C 21.457031 -2.773438 22.597656 -4.296875 23.265625 -6.328125 L 23.515625 -6.328125 L 21.671875 0 L 1.40625 0 Z M 1.40625 -0.25 "/></g></g></g><g fill="#8f68ff" fill-opacity="1"><g transform="translate(73.010671, 83.249997)"><g><path d="M 1.40625 -0.25 C 2.425781 -0.25 3.226562 -0.515625 3.8125 -1.046875 C 4.40625 -1.578125 4.703125 -2.300781 4.703125 -3.21875 L 4.703125 -20.921875 C 4.703125 -21.847656 4.40625 -22.570312 3.8125 -23.09375 C 3.226562 -23.625 2.425781 -23.890625 1.40625 -23.890625 L 1.40625 -24.140625 L 20.4375 -24.140625 L 21.390625 -17.921875 L 21.171875 -17.8125 L 21.078125 -18.3125 C 21.023438 -18.59375 20.910156 -18.960938 20.734375 -19.421875 C 20.554688 -19.890625 20.28125 -20.375 19.90625 -20.875 C 19.53125 -21.382812 19.03125 -21.867188 18.40625 -22.328125 C 17.78125 -22.785156 16.988281 -23.160156 16.03125 -23.453125 C 15.070312 -23.742188 13.910156 -23.890625 12.546875 -23.890625 L 10.53125 -23.890625 L 10.53125 -21.359375 C 10.507812 -21.285156 10.5 -21.210938 10.5 -21.140625 C 10.5 -21.066406 10.5 -20.992188 10.5 -20.921875 L 10.5 -12.796875 L 14.734375 -12.796875 C 15.378906 -12.816406 15.890625 -12.945312 16.265625 -13.1875 C 16.640625 -13.425781 16.914062 -13.722656 17.09375 -14.078125 C 17.269531 -14.429688 17.390625 -14.765625 17.453125 -15.078125 C 17.523438 -15.398438 17.5625 -15.644531 17.5625 -15.8125 L 17.5625 -15.953125 L 17.8125 -15.953125 L 17.8125 -9.359375 L 17.5625 -9.359375 L 17.5625 -9.484375 C 17.5625 -9.660156 17.523438 -9.90625 17.453125 -10.21875 C 17.390625 -10.539062 17.269531 -10.878906 17.09375 -11.234375 C 16.914062 -11.585938 16.640625 -11.890625 16.265625 -12.140625 C 15.890625 -12.390625 15.378906 -12.523438 14.734375 -12.546875 L 10.5 -12.546875 L 10.5 -3.21875 C 10.5 -2.300781 10.789062 -1.578125 11.375 -1.046875 C 11.96875 -0.515625 12.773438 -0.25 13.796875 -0.25 L 13.796875 0 L 1.40625 0 Z M 1.40625 -0.25 "/></g></g></g><g fill="#8f68ff" fill-opacity="1"><g transform="translate(95.799564, 83.249997)"><g><path d="M 1.40625 -0.25 C 2.445312 -0.25 3.253906 -0.488281 3.828125 -0.96875 C 4.410156 -1.445312 4.703125 -2.195312 4.703125 -3.21875 L 4.703125 -20.921875 C 4.703125 -21.566406 4.585938 -22.082031 4.359375 -22.46875 C 4.140625 -22.851562 3.863281 -23.144531 3.53125 -23.34375 C 3.207031 -23.550781 2.878906 -23.691406 2.546875 -23.765625 C 2.210938 -23.847656 1.941406 -23.890625 1.734375 -23.890625 L 1.40625 -23.890625 L 1.40625 -24.140625 L 13.53125 -24.140625 C 14.664062 -24.140625 15.753906 -24.023438 16.796875 -23.796875 C 17.847656 -23.578125 18.785156 -23.21875 19.609375 -22.71875 C 20.441406 -22.226562 21.097656 -21.582031 21.578125 -20.78125 C 22.066406 -19.988281 22.3125 -19.035156 22.3125 -17.921875 C 22.3125 -16.691406 22.007812 -15.648438 21.40625 -14.796875 C 20.800781 -13.953125 20.007812 -13.28125 19.03125 -12.78125 C 18.0625 -12.289062 17.007812 -11.953125 15.875 -11.765625 C 17.195312 -11.679688 18.257812 -11.457031 19.0625 -11.09375 C 19.863281 -10.738281 20.523438 -10.15625 21.046875 -9.34375 C 21.578125 -8.53125 22.066406 -7.40625 22.515625 -5.96875 C 22.992188 -4.46875 23.46875 -3.300781 23.9375 -2.46875 C 24.40625 -1.644531 24.929688 -1.066406 25.515625 -0.734375 C 26.109375 -0.410156 26.828125 -0.25 27.671875 -0.25 L 27.671875 0 L 22.625 0 C 21.582031 0 20.566406 -0.4375 19.578125 -1.3125 C 18.597656 -2.1875 17.671875 -3.738281 16.796875 -5.96875 C 16.390625 -7.050781 16.085938 -7.953125 15.890625 -8.671875 C 15.691406 -9.390625 15.515625 -9.957031 15.359375 -10.375 C 15.210938 -10.789062 15.023438 -11.085938 14.796875 -11.265625 C 14.566406 -11.441406 14.195312 -11.53125 13.6875 -11.53125 L 10.5 -11.53125 L 10.5 -3.15625 C 10.5 -2.175781 10.734375 -1.445312 11.203125 -0.96875 C 11.679688 -0.488281 12.445312 -0.25 13.5 -0.25 L 13.5 0 L 1.40625 0 Z M 13.53125 -11.8125 C 14.195312 -11.8125 14.757812 -12.082031 15.21875 -12.625 C 15.675781 -13.164062 16.019531 -13.898438 16.25 -14.828125 C 16.488281 -15.753906 16.609375 -16.785156 16.609375 -17.921875 C 16.609375 -19.054688 16.488281 -20.070312 16.25 -20.96875 C 16.019531 -21.863281 15.675781 -22.570312 15.21875 -23.09375 C 14.757812 -23.625 14.195312 -23.890625 13.53125 -23.890625 L 10.5 -23.890625 L 10.5 -11.8125 Z M 13.53125 -11.8125 "/></g></g></g><g fill="#8f68ff" fill-opacity="1"><g transform="translate(124.859602, 83.249997)"><g><path d="M 1.40625 -0.25 C 2.425781 -0.25 3.226562 -0.515625 3.8125 -1.046875 C 4.40625 -1.578125 4.703125 -2.300781 4.703125 -3.21875 L 4.703125 -20.921875 C 4.703125 -21.847656 4.40625 -22.570312 3.8125 -23.09375 C 3.226562 -23.625 2.425781 -23.890625 1.40625 -23.890625 L 1.40625 -24.140625 L 20.40625 -24.140625 L 21.359375 -17.921875 L 21.140625 -17.8125 L 21.0625 -18.3125 C 21 -18.59375 20.878906 -18.960938 20.703125 -19.421875 C 20.523438 -19.890625 20.25 -20.375 19.875 -20.875 C 19.5 -21.382812 19 -21.867188 18.375 -22.328125 C 17.75 -22.785156 16.960938 -23.160156 16.015625 -23.453125 C 15.066406 -23.742188 13.910156 -23.890625 12.546875 -23.890625 L 10.53125 -23.890625 L 10.5 -12.796875 L 14.703125 -12.796875 C 15.359375 -12.816406 15.867188 -12.945312 16.234375 -13.1875 C 16.609375 -13.425781 16.890625 -13.722656 17.078125 -14.078125 C 17.265625 -14.429688 17.382812 -14.765625 17.4375 -15.078125 C 17.5 -15.398438 17.53125 -15.644531 17.53125 -15.8125 L 17.53125 -15.953125 L 17.78125 -15.953125 L 17.78125 -9.359375 L 17.53125 -9.359375 L 17.53125 -9.484375 C 17.53125 -9.660156 17.5 -9.90625 17.4375 -10.21875 C 17.382812 -10.539062 17.265625 -10.878906 17.078125 -11.234375 C 16.890625 -11.585938 16.609375 -11.890625 16.234375 -12.140625 C 15.867188 -12.390625 15.359375 -12.523438 14.703125 -12.546875 L 10.5 -12.546875 L 10.5 -3.21875 C 10.5 -2.300781 10.789062 -1.578125 11.375 -1.046875 C 11.96875 -0.515625 12.773438 -0.25 13.796875 -0.25 C 16.210938 -0.25 18.226562 -0.753906 19.84375 -1.765625 C 21.457031 -2.773438 22.597656 -4.296875 23.265625 -6.328125 L 23.515625 -6.328125 L 21.671875 0 L 1.40625 0 Z M 1.40625 -0.25 "/></g></g></g><g fill="#8f68ff" fill-opacity="1"><g transform="translate(149.776203, 83.249997)"><g><path d="M 1.40625 -0.25 C 2.425781 -0.25 3.226562 -0.515625 3.8125 -1.046875 C 4.40625 -1.578125 4.703125 -2.300781 4.703125 -3.21875 L 4.703125 -20.921875 C 4.703125 -21.847656 4.40625 -22.570312 3.8125 -23.09375 C 3.226562 -23.625 2.425781 -23.890625 1.40625 -23.890625 L 1.40625 -24.140625 L 13.796875 -24.140625 L 13.796875 -23.890625 C 12.773438 -23.890625 11.96875 -23.625 11.375 -23.09375 C 10.789062 -22.570312 10.5 -21.847656 10.5 -20.921875 L 10.5 -3.21875 C 10.5 -2.300781 10.789062 -1.578125 11.375 -1.046875 C 11.96875 -0.515625 12.773438 -0.25 13.796875 -0.25 L 13.796875 0 L 1.40625 0 Z M 1.40625 -0.25 "/></g></g></g><g fill="#8f68ff" fill-opacity="1"><g transform="translate(218.846595, 63.749998)"><g><path d="M 21.328125 -8.484375 C 21.429688 -8.484375 21.484375 -8.410156 21.484375 -8.265625 C 21.484375 -8.117188 21.429688 -8.019531 21.328125 -7.96875 C 21.078125 -7.875 20.820312 -7.789062 20.5625 -7.71875 C 20.3125 -7.644531 20.078125 -7.546875 19.859375 -7.421875 C 19.347656 -7.148438 19.09375 -6.707031 19.09375 -6.09375 L 19.09375 -1.65625 C 19.09375 -1.457031 18.613281 -1.1875 17.65625 -0.84375 C 16.695312 -0.507812 15.914062 -0.265625 15.3125 -0.109375 C 12.5 0.585938 9.984375 0.515625 7.765625 -0.328125 C 5.222656 -1.304688 3.421875 -3.050781 2.359375 -5.5625 C 1.835938 -6.820312 1.578125 -8.070312 1.578125 -9.3125 C 1.578125 -10.5625 1.695312 -11.609375 1.9375 -12.453125 C 2.6875 -15.046875 4.253906 -17.039062 6.640625 -18.4375 C 8.203125 -19.34375 9.84375 -19.796875 11.5625 -19.796875 C 13.28125 -19.796875 15.101562 -19.453125 17.03125 -18.765625 C 17.382812 -18.628906 17.585938 -18.5625 17.640625 -18.5625 L 17.796875 -18.5625 L 18.34375 -18.703125 L 18.6875 -18.703125 C 18.789062 -18.703125 18.84375 -18.648438 18.84375 -18.546875 L 18.84375 -14 C 18.84375 -13.820312 18.742188 -13.734375 18.546875 -13.734375 L 18.484375 -13.734375 C 18.304688 -13.753906 18.1875 -13.988281 18.125 -14.4375 C 18.113281 -14.53125 18.101562 -14.597656 18.09375 -14.640625 C 17.175781 -17.492188 15.25 -18.921875 12.3125 -18.921875 C 9.96875 -18.921875 8.09375 -18.03125 6.6875 -16.25 C 5.289062 -14.476562 4.59375 -12.363281 4.59375 -9.90625 C 4.59375 -7.457031 5.296875 -5.289062 6.703125 -3.40625 C 8.109375 -1.53125 10.046875 -0.59375 12.515625 -0.59375 C 13.773438 -0.59375 14.816406 -0.785156 15.640625 -1.171875 C 15.960938 -1.328125 16.207031 -1.523438 16.375 -1.765625 L 16.375 -5.515625 C 16.375 -6.359375 16.132812 -6.976562 15.65625 -7.375 C 15.175781 -7.769531 14.285156 -7.96875 12.984375 -7.96875 C 12.890625 -7.96875 12.84375 -8.050781 12.84375 -8.21875 C 12.84375 -8.394531 12.890625 -8.484375 12.984375 -8.484375 Z M 21.328125 -8.484375 "/></g></g></g><g fill="#8f68ff" fill-opacity="1"><g transform="translate(241.005617, 63.749998)"><g><path d="M 9.265625 -9.796875 C 9.160156 -9.816406 9.003906 -9.878906 8.796875 -9.984375 C 8.035156 -10.328125 7.441406 -10.5 7.015625 -10.5 C 6.585938 -10.5 6.140625 -10.234375 5.671875 -9.703125 C 5.203125 -9.171875 4.96875 -8.691406 4.96875 -8.265625 L 4.96875 -2.078125 C 4.96875 -1.390625 5.363281 -0.9375 6.15625 -0.71875 C 6.5 -0.625 6.820312 -0.554688 7.125 -0.515625 C 7.425781 -0.472656 7.617188 -0.429688 7.703125 -0.390625 C 7.785156 -0.359375 7.828125 -0.289062 7.828125 -0.1875 C 7.828125 -0.0820312 7.785156 -0.0195312 7.703125 0 L 0.84375 0 C 0.757812 -0.0195312 0.71875 -0.0820312 0.71875 -0.1875 C 0.71875 -0.351562 0.929688 -0.460938 1.359375 -0.515625 C 2.335938 -0.660156 2.828125 -1.179688 2.828125 -2.078125 L 2.828125 -9.3125 C 2.828125 -9.695312 2.617188 -9.960938 2.203125 -10.109375 C 2.015625 -10.171875 1.816406 -10.222656 1.609375 -10.265625 C 1.398438 -10.304688 1.234375 -10.34375 1.109375 -10.375 C 0.992188 -10.414062 0.914062 -10.453125 0.875 -10.484375 C 0.84375 -10.515625 0.828125 -10.582031 0.828125 -10.6875 C 0.828125 -10.789062 0.898438 -10.878906 1.046875 -10.953125 L 4.53125 -12.59375 C 4.632812 -12.644531 4.703125 -12.671875 4.734375 -12.671875 C 4.890625 -12.671875 4.96875 -12.5625 4.96875 -12.34375 L 4.96875 -10.125 C 4.96875 -10.019531 4.992188 -9.96875 5.046875 -9.96875 C 5.117188 -9.96875 5.304688 -10.179688 5.609375 -10.609375 C 6.472656 -11.816406 7.1875 -12.421875 7.75 -12.421875 C 8.070312 -12.421875 8.5625 -12.289062 9.21875 -12.03125 C 9.882812 -11.78125 10.21875 -11.570312 10.21875 -11.40625 C 10.21875 -11.195312 10.109375 -10.875 9.890625 -10.4375 C 9.679688 -10.007812 9.472656 -9.796875 9.265625 -9.796875 Z M 9.265625 -9.796875 "/></g></g></g><g fill="#8f68ff" fill-opacity="1"><g transform="translate(251.217088, 63.749998)"><g><path d="M 3.15625 -7.203125 C 3 -7.203125 2.921875 -6.867188 2.921875 -6.203125 C 2.921875 -4.796875 3.335938 -3.613281 4.171875 -2.65625 C 5.015625 -1.695312 6.054688 -1.21875 7.296875 -1.21875 C 8.546875 -1.21875 9.742188 -1.753906 10.890625 -2.828125 C 10.910156 -2.847656 10.9375 -2.859375 10.96875 -2.859375 L 11.03125 -2.859375 C 11.082031 -2.859375 11.132812 -2.8125 11.1875 -2.71875 C 11.238281 -2.632812 11.285156 -2.582031 11.328125 -2.5625 C 10.273438 -1.269531 9.035156 -0.378906 7.609375 0.109375 C 7.109375 0.285156 6.546875 0.375 5.921875 0.375 C 5.304688 0.375 4.679688 0.203125 4.046875 -0.140625 C 3.410156 -0.484375 2.863281 -0.929688 2.40625 -1.484375 C 1.4375 -2.648438 0.953125 -4.09375 0.953125 -5.8125 C 0.953125 -7.539062 1.476562 -9.113281 2.53125 -10.53125 C 3.582031 -11.957031 5.03125 -12.671875 6.875 -12.671875 C 8.195312 -12.671875 9.273438 -12.082031 10.109375 -10.90625 C 10.953125 -9.726562 11.375 -8.691406 11.375 -7.796875 C 11.375 -7.398438 11.28125 -7.203125 11.09375 -7.203125 Z M 3.3125 -8.515625 C 3.3125 -8.347656 3.394531 -8.265625 3.5625 -8.265625 L 8.703125 -8.265625 C 8.941406 -8.265625 9.0625 -8.40625 9.0625 -8.6875 C 9.0625 -9.34375 8.765625 -10.015625 8.171875 -10.703125 C 7.585938 -11.390625 6.945312 -11.734375 6.25 -11.734375 C 5.5625 -11.734375 4.9375 -11.421875 4.375 -10.796875 C 3.820312 -10.179688 3.46875 -9.476562 3.3125 -8.6875 Z M 3.3125 -8.515625 "/></g></g></g><g fill="#8f68ff" fill-opacity="1"><g transform="translate(263.930157, 63.749998)"><g><path d="M 11 -4.3125 L 10.96875 -7.1875 C 10.96875 -8.363281 10.863281 -9.1875 10.65625 -9.65625 C 10.457031 -10.132812 10.203125 -10.492188 9.890625 -10.734375 C 9.585938 -10.984375 9.171875 -11.109375 8.640625 -11.109375 C 8.117188 -11.109375 7.007812 -10.695312 5.3125 -9.875 C 5.09375 -9.738281 4.976562 -9.609375 4.96875 -9.484375 L 4.96875 -2.140625 C 4.96875 -1.210938 5.457031 -0.679688 6.4375 -0.546875 C 6.863281 -0.484375 7.078125 -0.378906 7.078125 -0.234375 C 7.078125 -0.0976562 7.035156 -0.0195312 6.953125 0 L 0.84375 0 C 0.757812 -0.0195312 0.71875 -0.0820312 0.71875 -0.1875 C 0.71875 -0.363281 0.929688 -0.484375 1.359375 -0.546875 C 2.335938 -0.679688 2.828125 -1.210938 2.828125 -2.140625 L 2.828125 -9.984375 C 2.828125 -10.367188 2.617188 -10.632812 2.203125 -10.78125 C 2.015625 -10.84375 1.816406 -10.894531 1.609375 -10.9375 C 1.398438 -10.976562 1.234375 -11.015625 1.109375 -11.046875 C 0.992188 -11.085938 0.914062 -11.125 0.875 -11.15625 C 0.84375 -11.1875 0.828125 -11.253906 0.828125 -11.359375 C 0.828125 -11.460938 0.898438 -11.550781 1.046875 -11.625 L 4.53125 -13.265625 C 4.632812 -13.316406 4.703125 -13.34375 4.734375 -13.34375 C 4.890625 -13.34375 4.96875 -13.234375 4.96875 -13.015625 L 4.96875 -10.890625 C 4.988281 -10.796875 5.023438 -10.75 5.078125 -10.75 C 5.128906 -10.75 5.320312 -10.832031 5.65625 -11 C 6.445312 -11.382812 7.238281 -11.757812 8.03125 -12.125 C 8.820312 -12.488281 9.476562 -12.671875 10 -12.671875 C 12.101562 -12.671875 13.15625 -10.753906 13.15625 -6.921875 L 13.03125 -2.921875 L 13.03125 -2.140625 C 13.03125 -1.421875 13.382812 -0.953125 14.09375 -0.734375 C 14.394531 -0.640625 14.679688 -0.570312 14.953125 -0.53125 C 15.234375 -0.488281 15.414062 -0.445312 15.5 -0.40625 C 15.59375 -0.375 15.640625 -0.300781 15.640625 -0.1875 C 15.640625 -0.0820312 15.59375 -0.0195312 15.5 0 L 8.921875 0 C 8.828125 -0.0195312 8.78125 -0.0820312 8.78125 -0.1875 C 8.78125 -0.363281 8.992188 -0.484375 9.421875 -0.546875 C 10.398438 -0.679688 10.890625 -1.25 10.890625 -2.25 C 10.960938 -2.695312 11 -3.382812 11 -4.3125 Z M 11 -4.3125 "/></g></g></g><g fill="#8f68ff" fill-opacity="1"><g transform="translate(279.841998, 63.749998)"><g><path d="M 1.03125 -6.140625 C 1.03125 -7.929688 1.664062 -9.472656 2.9375 -10.765625 C 4.207031 -12.054688 5.726562 -12.703125 7.5 -12.703125 C 9.28125 -12.703125 10.828125 -12.070312 12.140625 -10.8125 C 13.453125 -9.5625 14.109375 -8.015625 14.109375 -6.171875 C 14.109375 -4.335938 13.484375 -2.785156 12.234375 -1.515625 C 10.992188 -0.253906 9.4375 0.375 7.5625 0.375 C 5.6875 0.375 4.128906 -0.257812 2.890625 -1.53125 C 1.648438 -2.8125 1.03125 -4.347656 1.03125 -6.140625 Z M 4.4375 -2.625 C 5.320312 -1.125 6.535156 -0.375 8.078125 -0.375 C 9.273438 -0.375 10.1875 -0.847656 10.8125 -1.796875 C 11.445312 -2.753906 11.765625 -3.929688 11.765625 -5.328125 C 11.765625 -6.722656 11.320312 -8.15625 10.4375 -9.625 C 9.550781 -11.09375 8.351562 -11.828125 6.84375 -11.828125 C 5.75 -11.828125 4.882812 -11.347656 4.25 -10.390625 C 3.613281 -9.441406 3.296875 -8.234375 3.296875 -6.765625 C 3.296875 -5.304688 3.675781 -3.925781 4.4375 -2.625 Z M 4.4375 -2.625 "/></g></g></g><g fill="#8f68ff" fill-opacity="1"><g transform="translate(294.974658, 63.749998)"><g><path d="M 4.296875 -11.4375 C 4.296875 -11.15625 4.359375 -11.015625 4.484375 -11.015625 C 4.617188 -11.015625 5.203125 -11.3125 6.234375 -11.90625 C 7.441406 -12.414062 8.359375 -12.671875 8.984375 -12.671875 C 9.609375 -12.671875 10.207031 -12.488281 10.78125 -12.125 C 11.363281 -11.757812 11.851562 -11.28125 12.25 -10.6875 C 13.09375 -9.46875 13.515625 -7.988281 13.515625 -6.25 C 13.515625 -4.507812 12.910156 -2.96875 11.703125 -1.625 C 10.503906 -0.289062 8.914062 0.375 6.9375 0.375 C 5.644531 0.375 4.457031 0.21875 3.375 -0.09375 C 3.0625 -0.1875 2.789062 -0.257812 2.5625 -0.3125 C 2.34375 -0.363281 2.21875 -0.421875 2.1875 -0.484375 C 2.164062 -0.546875 2.15625 -0.617188 2.15625 -0.703125 L 2.15625 -19.125 C 2.15625 -19.507812 1.945312 -19.773438 1.53125 -19.921875 C 1.351562 -19.984375 1.15625 -20.035156 0.9375 -20.078125 C 0.726562 -20.117188 0.5625 -20.15625 0.4375 -20.1875 C 0.320312 -20.226562 0.25 -20.265625 0.21875 -20.296875 C 0.1875 -20.328125 0.171875 -20.394531 0.171875 -20.5 C 0.171875 -20.601562 0.238281 -20.691406 0.375 -20.765625 L 3.859375 -22.40625 C 3.960938 -22.457031 4.03125 -22.484375 4.0625 -22.484375 C 4.21875 -22.484375 4.296875 -22.375 4.296875 -22.15625 Z M 7.1875 -11 C 6.375 -11 5.460938 -10.707031 4.453125 -10.125 C 4.347656 -10.0625 4.296875 -9.953125 4.296875 -9.796875 L 4.296875 -3.34375 C 4.390625 -2.507812 4.75 -1.859375 5.375 -1.390625 C 6 -0.929688 6.6875 -0.703125 7.4375 -0.703125 C 8.75 -0.703125 9.757812 -1.21875 10.46875 -2.25 C 11.1875 -3.289062 11.546875 -4.476562 11.546875 -5.8125 C 11.546875 -7.144531 11.179688 -8.34375 10.453125 -9.40625 C 9.722656 -10.46875 8.632812 -11 7.1875 -11 Z M 7.1875 -11 "/></g></g></g><g fill="#8f68ff" fill-opacity="1"><g transform="translate(309.997957, 63.749998)"><g><path d="M 6 -0.515625 C 6.425781 -0.460938 6.640625 -0.351562 6.640625 -0.1875 C 6.640625 -0.0820312 6.597656 -0.0195312 6.515625 0 L 0.40625 0 C 0.320312 -0.0195312 0.28125 -0.0820312 0.28125 -0.1875 C 0.28125 -0.351562 0.492188 -0.460938 0.921875 -0.515625 C 1.898438 -0.660156 2.390625 -1.179688 2.390625 -2.078125 L 2.390625 -19.125 C 2.390625 -19.507812 2.179688 -19.773438 1.765625 -19.921875 C 1.578125 -19.984375 1.378906 -20.035156 1.171875 -20.078125 C 0.960938 -20.117188 0.796875 -20.15625 0.671875 -20.1875 C 0.554688 -20.226562 0.476562 -20.265625 0.4375 -20.296875 C 0.40625 -20.328125 0.390625 -20.394531 0.390625 -20.5 C 0.390625 -20.601562 0.460938 -20.691406 0.609375 -20.765625 L 4.09375 -22.40625 C 4.195312 -22.457031 4.265625 -22.484375 4.296875 -22.484375 C 4.453125 -22.484375 4.53125 -22.375 4.53125 -22.15625 L 4.53125 -2.078125 C 4.53125 -1.179688 5.019531 -0.660156 6 -0.515625 Z M 6 -0.515625 "/></g></g></g><g fill="#8f68ff" fill-opacity="1"><g transform="translate(317.120015, 63.749998)"><g><path d="M 3.15625 -7.203125 C 3 -7.203125 2.921875 -6.867188 2.921875 -6.203125 C 2.921875 -4.796875 3.335938 -3.613281 4.171875 -2.65625 C 5.015625 -1.695312 6.054688 -1.21875 7.296875 -1.21875 C 8.546875 -1.21875 9.742188 -1.753906 10.890625 -2.828125 C 10.910156 -2.847656 10.9375 -2.859375 10.96875 -2.859375 L 11.03125 -2.859375 C 11.082031 -2.859375 11.132812 -2.8125 11.1875 -2.71875 C 11.238281 -2.632812 11.285156 -2.582031 11.328125 -2.5625 C 10.273438 -1.269531 9.035156 -0.378906 7.609375 0.109375 C 7.109375 0.285156 6.546875 0.375 5.921875 0.375 C 5.304688 0.375 4.679688 0.203125 4.046875 -0.140625 C 3.410156 -0.484375 2.863281 -0.929688 2.40625 -1.484375 C 1.4375 -2.648438 0.953125 -4.09375 0.953125 -5.8125 C 0.953125 -7.539062 1.476562 -9.113281 2.53125 -10.53125 C 3.582031 -11.957031 5.03125 -12.671875 6.875 -12.671875 C 8.195312 -12.671875 9.273438 -12.082031 10.109375 -10.90625 C 10.953125 -9.726562 11.375 -8.691406 11.375 -7.796875 C 11.375 -7.398438 11.28125 -7.203125 11.09375 -7.203125 Z M 3.3125 -8.515625 C 3.3125 -8.347656 3.394531 -8.265625 3.5625 -8.265625 L 8.703125 -8.265625 C 8.941406 -8.265625 9.0625 -8.40625 9.0625 -8.6875 C 9.0625 -9.34375 8.765625 -10.015625 8.171875 -10.703125 C 7.585938 -11.390625 6.945312 -11.734375 6.25 -11.734375 C 5.5625 -11.734375 4.9375 -11.421875 4.375 -10.796875 C 3.820312 -10.179688 3.46875 -9.476562 3.3125 -8.6875 Z M 3.3125 -8.515625 "/></g></g></g><g fill="#8f68ff" fill-opacity="1"><g transform="translate(329.833085, 63.749998)"><g/></g></g><g fill="#8f68ff" fill-opacity="1"><g transform="translate(337.351566, 63.749998)"><g><path d="M 0.09375 -0.109375 L 0.09375 -0.5 C 0.09375 -0.570312 0.128906 -0.609375 0.203125 -0.609375 L 0.5 -0.609375 C 0.882812 -0.628906 1.273438 -0.640625 1.671875 -0.640625 C 2.078125 -0.648438 2.445312 -0.703125 2.78125 -0.796875 C 3.519531 -1.015625 3.890625 -1.5625 3.890625 -2.4375 L 3.890625 -16.84375 C 3.890625 -17.75 3.359375 -18.320312 2.296875 -18.5625 C 1.992188 -18.625 1.6875 -18.679688 1.375 -18.734375 L 1.09375 -18.734375 C 1.019531 -18.734375 0.984375 -18.769531 0.984375 -18.84375 L 0.984375 -19.171875 C 0.984375 -19.242188 1.019531 -19.28125 1.09375 -19.28125 L 14.09375 -19.28125 C 14.257812 -19.28125 14.378906 -19.25 14.453125 -19.1875 C 14.523438 -19.125 14.570312 -18.992188 14.59375 -18.796875 L 14.828125 -14.828125 C 14.828125 -14.742188 14.757812 -14.703125 14.625 -14.703125 C 14.488281 -14.703125 14.390625 -14.742188 14.328125 -14.828125 C 14.273438 -14.910156 14.203125 -15.238281 14.109375 -15.8125 C 14.023438 -16.394531 13.867188 -16.875 13.640625 -17.25 C 13.410156 -17.632812 13.007812 -17.878906 12.4375 -17.984375 L 6.734375 -17.984375 C 6.617188 -17.984375 6.5625 -17.921875 6.5625 -17.796875 L 6.5625 -10.734375 C 6.5625 -10.640625 6.609375 -10.59375 6.703125 -10.59375 L 11.4375 -10.59375 C 12.65625 -10.59375 13.265625 -11.304688 13.265625 -12.734375 C 13.265625 -12.804688 13.300781 -12.84375 13.375 -12.84375 L 13.703125 -12.84375 C 13.773438 -12.84375 13.8125 -12.804688 13.8125 -12.734375 L 13.8125 -6.875 C 13.8125 -6.800781 13.773438 -6.765625 13.703125 -6.765625 L 13.375 -6.765625 C 13.300781 -6.765625 13.265625 -6.800781 13.265625 -6.875 C 13.265625 -8.226562 12.875 -9.007812 12.09375 -9.21875 C 11.875 -9.269531 11.640625 -9.296875 11.390625 -9.296875 L 6.703125 -9.296875 C 6.609375 -9.296875 6.5625 -9.25 6.5625 -9.15625 L 6.5625 -2.5 C 6.5625 -1.820312 6.875 -1.4375 7.5 -1.34375 C 7.6875 -1.3125 7.878906 -1.296875 8.078125 -1.296875 L 12.640625 -1.296875 C 13.578125 -1.296875 14.304688 -1.710938 14.828125 -2.546875 C 15.191406 -3.140625 15.414062 -3.816406 15.5 -4.578125 C 15.53125 -4.835938 15.671875 -4.96875 15.921875 -4.96875 C 16.023438 -4.96875 16.078125 -4.90625 16.078125 -4.78125 L 15.625 -0.1875 C 15.570312 -0.0625 15.507812 0 15.4375 0 L 0.203125 0 C 0.128906 0 0.09375 -0.0351562 0.09375 -0.109375 Z M 6.875 -21.796875 C 6.832031 -21.835938 6.8125 -21.863281 6.8125 -21.875 C 6.8125 -21.894531 6.832031 -21.925781 6.875 -21.96875 L 9.78125 -26 C 10.101562 -26.445312 10.425781 -26.671875 10.75 -26.671875 C 11.070312 -26.671875 11.328125 -26.566406 11.515625 -26.359375 C 11.703125 -26.148438 11.796875 -25.875 11.796875 -25.53125 C 11.796875 -25.1875 11.539062 -24.800781 11.03125 -24.375 L 7.359375 -21.40625 C 7.316406 -21.375 7.28125 -21.359375 7.25 -21.359375 C 7.21875 -21.359375 7.191406 -21.375 7.171875 -21.40625 Z M 6.875 -21.796875 "/></g></g></g><g fill="#8f68ff" fill-opacity="1"><g transform="translate(354.630404, 63.749998)"><g><path d="M 11.6875 -11.03125 C 11.6875 -10.394531 11.316406 -10.078125 10.578125 -10.078125 C 10.203125 -10.078125 9.882812 -10.179688 9.625 -10.390625 C 9.375 -10.609375 9.175781 -10.789062 9.03125 -10.9375 C 8.882812 -11.09375 8.738281 -11.234375 8.59375 -11.359375 C 7.9375 -11.898438 7.132812 -11.957031 6.1875 -11.53125 C 5.238281 -11.113281 4.507812 -10.222656 4 -8.859375 C 3.71875 -8.097656 3.578125 -7.347656 3.578125 -6.609375 C 3.578125 -5.003906 3.941406 -3.691406 4.671875 -2.671875 C 5.398438 -1.660156 6.519531 -1.15625 8.03125 -1.15625 C 9.144531 -1.15625 10.148438 -1.65625 11.046875 -2.65625 C 11.316406 -2.957031 11.476562 -3.109375 11.53125 -3.109375 C 11.59375 -3.109375 11.65625 -3.078125 11.71875 -3.015625 C 11.78125 -2.960938 11.8125 -2.882812 11.8125 -2.78125 C 11.8125 -2.675781 11.785156 -2.597656 11.734375 -2.546875 C 10.335938 -0.597656 8.582031 0.375 6.46875 0.375 C 4.9375 0.375 3.679688 -0.191406 2.703125 -1.328125 C 1.722656 -2.472656 1.234375 -3.78125 1.234375 -5.25 C 1.242188 -7.96875 1.898438 -9.921875 3.203125 -11.109375 C 4.347656 -12.160156 5.984375 -12.6875 8.109375 -12.6875 C 9.421875 -12.6875 10.289062 -12.550781 10.71875 -12.28125 C 11.144531 -12.019531 11.445312 -11.691406 11.625 -11.296875 C 11.664062 -11.203125 11.6875 -11.113281 11.6875 -11.03125 Z M 11.6875 -11.03125 "/></g></g></g><g fill="#8f68ff" fill-opacity="1"><g transform="translate(367.398153, 63.749998)"><g><path d="M 1.03125 -6.140625 C 1.03125 -7.929688 1.664062 -9.472656 2.9375 -10.765625 C 4.207031 -12.054688 5.726562 -12.703125 7.5 -12.703125 C 9.28125 -12.703125 10.828125 -12.070312 12.140625 -10.8125 C 13.453125 -9.5625 14.109375 -8.015625 14.109375 -6.171875 C 14.109375 -4.335938 13.484375 -2.785156 12.234375 -1.515625 C 10.992188 -0.253906 9.4375 0.375 7.5625 0.375 C 5.6875 0.375 4.128906 -0.257812 2.890625 -1.53125 C 1.648438 -2.8125 1.03125 -4.347656 1.03125 -6.140625 Z M 4.4375 -2.625 C 5.320312 -1.125 6.535156 -0.375 8.078125 -0.375 C 9.273438 -0.375 10.1875 -0.847656 10.8125 -1.796875 C 11.445312 -2.753906 11.765625 -3.929688 11.765625 -5.328125 C 11.765625 -6.722656 11.320312 -8.15625 10.4375 -9.625 C 9.550781 -11.09375 8.351562 -11.828125 6.84375 -11.828125 C 5.75 -11.828125 4.882812 -11.347656 4.25 -10.390625 C 3.613281 -9.441406 3.296875 -8.234375 3.296875 -6.765625 C 3.296875 -5.304688 3.675781 -3.925781 4.4375 -2.625 Z M 4.4375 -2.625 "/></g></g></g><g fill="#8f68ff" fill-opacity="1"><g transform="translate(382.530812, 63.749998)"><g><path d="M 6 -0.515625 C 6.425781 -0.460938 6.640625 -0.351562 6.640625 -0.1875 C 6.640625 -0.0820312 6.597656 -0.0195312 6.515625 0 L 0.40625 0 C 0.320312 -0.0195312 0.28125 -0.0820312 0.28125 -0.1875 C 0.28125 -0.351562 0.492188 -0.460938 0.921875 -0.515625 C 1.898438 -0.660156 2.390625 -1.179688 2.390625 -2.078125 L 2.390625 -19.125 C 2.390625 -19.507812 2.179688 -19.773438 1.765625 -19.921875 C 1.578125 -19.984375 1.378906 -20.035156 1.171875 -20.078125 C 0.960938 -20.117188 0.796875 -20.15625 0.671875 -20.1875 C 0.554688 -20.226562 0.476562 -20.265625 0.4375 -20.296875 C 0.40625 -20.328125 0.390625 -20.394531 0.390625 -20.5 C 0.390625 -20.601562 0.460938 -20.691406 0.609375 -20.765625 L 4.09375 -22.40625 C 4.195312 -22.457031 4.265625 -22.484375 4.296875 -22.484375 C 4.453125 -22.484375 4.53125 -22.375 4.53125 -22.15625 L 4.53125 -2.078125 C 4.53125 -1.179688 5.019531 -0.660156 6 -0.515625 Z M 6 -0.515625 "/></g></g></g><g fill="#8f68ff" fill-opacity="1"><g transform="translate(389.652871, 63.749998)"><g><path d="M 3.15625 -7.203125 C 3 -7.203125 2.921875 -6.867188 2.921875 -6.203125 C 2.921875 -4.796875 3.335938 -3.613281 4.171875 -2.65625 C 5.015625 -1.695312 6.054688 -1.21875 7.296875 -1.21875 C 8.546875 -1.21875 9.742188 -1.753906 10.890625 -2.828125 C 10.910156 -2.847656 10.9375 -2.859375 10.96875 -2.859375 L 11.03125 -2.859375 C 11.082031 -2.859375 11.132812 -2.8125 11.1875 -2.71875 C 11.238281 -2.632812 11.285156 -2.582031 11.328125 -2.5625 C 10.273438 -1.269531 9.035156 -0.378906 7.609375 0.109375 C 7.109375 0.285156 6.546875 0.375 5.921875 0.375 C 5.304688 0.375 4.679688 0.203125 4.046875 -0.140625 C 3.410156 -0.484375 2.863281 -0.929688 2.40625 -1.484375 C 1.4375 -2.648438 0.953125 -4.09375 0.953125 -5.8125 C 0.953125 -7.539062 1.476562 -9.113281 2.53125 -10.53125 C 3.582031 -11.957031 5.03125 -12.671875 6.875 -12.671875 C 8.195312 -12.671875 9.273438 -12.082031 10.109375 -10.90625 C 10.953125 -9.726562 11.375 -8.691406 11.375 -7.796875 C 11.375 -7.398438 11.28125 -7.203125 11.09375 -7.203125 Z M 3.3125 -8.515625 C 3.3125 -8.347656 3.394531 -8.265625 3.5625 -8.265625 L 8.703125 -8.265625 C 8.941406 -8.265625 9.0625 -8.40625 9.0625 -8.6875 C 9.0625 -9.34375 8.765625 -10.015625 8.171875 -10.703125 C 7.585938 -11.390625 6.945312 -11.734375 6.25 -11.734375 C 5.5625 -11.734375 4.9375 -11.421875 4.375 -10.796875 C 3.820312 -10.179688 3.46875 -9.476562 3.3125 -8.6875 Z M 3.3125 -8.515625 "/></g></g></g><g fill="#8f68ff" fill-opacity="1"><g transform="translate(402.36594, 63.749998)"><g/></g></g><g fill="#8f68ff" fill-opacity="1"><g transform="translate(409.884422, 63.749998)"><g><path d="M 9.390625 -12.09375 C 9.796875 -11.957031 10.039062 -11.890625 10.125 -11.890625 C 10.21875 -11.890625 10.273438 -11.890625 10.296875 -11.890625 C 10.328125 -11.898438 10.359375 -11.960938 10.390625 -12.078125 L 10.390625 -19.125 C 10.390625 -19.507812 10.179688 -19.773438 9.765625 -19.921875 C 9.578125 -19.984375 9.378906 -20.035156 9.171875 -20.078125 C 8.960938 -20.117188 8.796875 -20.15625 8.671875 -20.1875 C 8.546875 -20.226562 8.46875 -20.265625 8.4375 -20.296875 C 8.40625 -20.328125 8.390625 -20.394531 8.390625 -20.5 C 8.390625 -20.601562 8.457031 -20.691406 8.59375 -20.765625 L 12.09375 -22.40625 C 12.195312 -22.457031 12.265625 -22.484375 12.296875 -22.484375 C 12.453125 -22.484375 12.53125 -22.375 12.53125 -22.15625 L 12.53125 -2.6875 C 12.570312 -2.289062 12.679688 -2.003906 12.859375 -1.828125 C 13.046875 -1.660156 13.34375 -1.578125 13.75 -1.578125 L 14.546875 -1.625 C 14.597656 -1.625 14.625 -1.570312 14.625 -1.46875 C 14.625 -1.363281 14.554688 -1.28125 14.421875 -1.21875 L 10.78125 0.28125 C 10.675781 0.34375 10.582031 0.375 10.5 0.375 C 10.425781 0.375 10.390625 0.257812 10.390625 0.03125 L 10.390625 -1.21875 C 10.390625 -1.3125 10.367188 -1.359375 10.328125 -1.359375 C 10.265625 -1.359375 9.882812 -1.148438 9.1875 -0.734375 C 7.0625 0.523438 5.269531 0.710938 3.8125 -0.171875 C 2.644531 -0.890625 1.859375 -2.019531 1.453125 -3.5625 C 1.253906 -4.28125 1.15625 -5.039062 1.15625 -5.84375 C 1.15625 -6.65625 1.320312 -7.457031 1.65625 -8.25 C 1.988281 -9.050781 2.445312 -9.75 3.03125 -10.34375 C 4.320312 -11.65625 5.875 -12.3125 7.6875 -12.3125 C 8.425781 -12.3125 8.992188 -12.238281 9.390625 -12.09375 Z M 3.234375 -6.234375 C 3.234375 -4.859375 3.613281 -3.648438 4.375 -2.609375 C 5.144531 -1.578125 6.210938 -1.0625 7.578125 -1.0625 C 8.179688 -1.0625 8.800781 -1.207031 9.4375 -1.5 C 10.070312 -1.800781 10.390625 -2.03125 10.390625 -2.1875 L 10.390625 -9.25 C 10.390625 -9.414062 10.269531 -9.617188 10.03125 -9.859375 C 9.300781 -10.859375 8.332031 -11.359375 7.125 -11.359375 C 5.914062 -11.359375 4.960938 -10.847656 4.265625 -9.828125 C 3.578125 -8.816406 3.234375 -7.617188 3.234375 -6.234375 Z M 3.234375 -6.234375 "/></g></g></g><g fill="#8f68ff" fill-opacity="1"><g transform="translate(424.784686, 63.749998)"><g><path d="M 3.15625 -7.203125 C 3 -7.203125 2.921875 -6.867188 2.921875 -6.203125 C 2.921875 -4.796875 3.335938 -3.613281 4.171875 -2.65625 C 5.015625 -1.695312 6.054688 -1.21875 7.296875 -1.21875 C 8.546875 -1.21875 9.742188 -1.753906 10.890625 -2.828125 C 10.910156 -2.847656 10.9375 -2.859375 10.96875 -2.859375 L 11.03125 -2.859375 C 11.082031 -2.859375 11.132812 -2.8125 11.1875 -2.71875 C 11.238281 -2.632812 11.285156 -2.582031 11.328125 -2.5625 C 10.273438 -1.269531 9.035156 -0.378906 7.609375 0.109375 C 7.109375 0.285156 6.546875 0.375 5.921875 0.375 C 5.304688 0.375 4.679688 0.203125 4.046875 -0.140625 C 3.410156 -0.484375 2.863281 -0.929688 2.40625 -1.484375 C 1.4375 -2.648438 0.953125 -4.09375 0.953125 -5.8125 C 0.953125 -7.539062 1.476562 -9.113281 2.53125 -10.53125 C 3.582031 -11.957031 5.03125 -12.671875 6.875 -12.671875 C 8.195312 -12.671875 9.273438 -12.082031 10.109375 -10.90625 C 10.953125 -9.726562 11.375 -8.691406 11.375 -7.796875 C 11.375 -7.398438 11.28125 -7.203125 11.09375 -7.203125 Z M 3.3125 -8.515625 C 3.3125 -8.347656 3.394531 -8.265625 3.5625 -8.265625 L 8.703125 -8.265625 C 8.941406 -8.265625 9.0625 -8.40625 9.0625 -8.6875 C 9.0625 -9.34375 8.765625 -10.015625 8.171875 -10.703125 C 7.585938 -11.390625 6.945312 -11.734375 6.25 -11.734375 C 5.5625 -11.734375 4.9375 -11.421875 4.375 -10.796875 C 3.820312 -10.179688 3.46875 -9.476562 3.3125 -8.6875 Z M 3.3125 -8.515625 "/></g></g></g><g fill="#8f68ff" fill-opacity="1"><g transform="translate(250.159093, 102.749996)"><g><path d="M 6.84375 -0.546875 C 6.90625 -0.546875 6.9375 -0.507812 6.9375 -0.4375 L 6.9375 -0.109375 C 6.9375 -0.0351562 6.90625 0 6.84375 0 L 0.46875 0 C 0.394531 0 0.359375 -0.0351562 0.359375 -0.109375 L 0.359375 -0.4375 C 0.359375 -0.507812 0.394531 -0.546875 0.46875 -0.546875 C 1.957031 -0.546875 2.769531 -1.1875 2.90625 -2.46875 C 2.9375 -2.84375 2.972656 -3.460938 3.015625 -4.328125 C 3.054688 -5.203125 3.175781 -7.078125 3.375 -9.953125 C 3.570312 -12.835938 3.671875 -15.164062 3.671875 -16.9375 L 3.671875 -17.453125 C 3.671875 -17.816406 3.460938 -18.117188 3.046875 -18.359375 C 2.640625 -18.609375 2.335938 -18.734375 2.140625 -18.734375 C 1.953125 -18.734375 1.859375 -18.769531 1.859375 -18.84375 L 1.859375 -19.171875 C 1.859375 -19.242188 1.894531 -19.28125 1.96875 -19.28125 L 5.921875 -19.28125 C 6.097656 -19.25 6.238281 -19.148438 6.34375 -18.984375 L 12.75 -4.6875 C 12.800781 -4.625 12.835938 -4.566406 12.859375 -4.515625 C 12.890625 -4.472656 12.957031 -4.453125 13.0625 -4.453125 C 13.175781 -4.460938 13.257812 -4.546875 13.3125 -4.703125 L 19.65625 -18.734375 C 19.851562 -19.097656 20.03125 -19.28125 20.1875 -19.28125 L 24.15625 -19.28125 C 24.226562 -19.28125 24.265625 -19.242188 24.265625 -19.171875 L 24.265625 -18.84375 C 24.265625 -18.769531 24.242188 -18.734375 24.203125 -18.734375 C 23.929688 -18.734375 23.59375 -18.640625 23.1875 -18.453125 C 22.570312 -18.179688 22.265625 -17.773438 22.265625 -17.234375 L 23.09375 -2.140625 C 23.113281 -1.660156 23.359375 -1.273438 23.828125 -0.984375 C 24.304688 -0.691406 24.925781 -0.546875 25.6875 -0.546875 C 25.757812 -0.546875 25.796875 -0.507812 25.796875 -0.4375 L 25.796875 -0.109375 C 25.796875 -0.0351562 25.757812 0 25.6875 0 L 17.921875 0 C 17.847656 0 17.8125 -0.0351562 17.8125 -0.109375 L 17.8125 -0.4375 C 17.8125 -0.507812 17.847656 -0.546875 17.921875 -0.546875 C 19.554688 -0.546875 20.375 -0.941406 20.375 -1.734375 L 19.640625 -14.796875 C 19.640625 -14.890625 19.617188 -14.9375 19.578125 -14.9375 C 19.535156 -14.9375 19.5 -14.894531 19.46875 -14.8125 L 12.671875 -0.09375 C 12.640625 -0.03125 12.535156 0 12.359375 0 C 12.179688 0 12.082031 -0.0351562 12.0625 -0.109375 L 5.359375 -14.84375 C 5.304688 -14.976562 5.253906 -15.046875 5.203125 -15.046875 C 5.148438 -15.046875 5.125 -14.941406 5.125 -14.734375 C 5.125 -14.316406 5.015625 -12.335938 4.796875 -8.796875 C 4.578125 -5.265625 4.46875 -3.0625 4.46875 -2.1875 L 4.46875 -1.625 C 4.582031 -1.101562 5.097656 -0.765625 6.015625 -0.609375 C 6.273438 -0.566406 6.550781 -0.546875 6.84375 -0.546875 Z M 6.84375 -0.546875 "/></g></g></g><g fill="#8f68ff" fill-opacity="1"><g transform="translate(276.528465, 102.749996)"><g><path d="M 9.40625 -2.25 C 9.40625 -2.019531 9.515625 -1.832031 9.734375 -1.6875 C 9.960938 -1.550781 10.222656 -1.484375 10.515625 -1.484375 C 10.804688 -1.484375 11.050781 -1.554688 11.25 -1.703125 C 11.445312 -1.847656 11.582031 -1.921875 11.65625 -1.921875 C 11.726562 -1.921875 11.765625 -1.820312 11.765625 -1.625 C 11.765625 -1.4375 11.671875 -1.273438 11.484375 -1.140625 C 10.117188 -0.128906 9.191406 0.375 8.703125 0.375 C 8.117188 0.375 7.644531 -0.234375 7.28125 -1.453125 C 7.257812 -1.546875 7.238281 -1.585938 7.21875 -1.578125 C 6.09375 -0.722656 5.382812 -0.210938 5.09375 -0.046875 C 4.34375 0.390625 3.585938 0.457031 2.828125 0.15625 C 2.078125 -0.132812 1.535156 -0.613281 1.203125 -1.28125 C 1.035156 -1.632812 0.953125 -2.003906 0.953125 -2.390625 C 0.953125 -3.171875 1.238281 -3.785156 1.8125 -4.234375 C 2.394531 -4.691406 3.488281 -5.128906 5.09375 -5.546875 C 5.644531 -5.691406 6.132812 -5.878906 6.5625 -6.109375 C 6.988281 -6.335938 7.210938 -6.484375 7.234375 -6.546875 C 7.265625 -6.609375 7.28125 -6.671875 7.28125 -6.734375 L 7.28125 -9.359375 C 7.28125 -10.378906 6.878906 -11.101562 6.078125 -11.53125 C 5.804688 -11.664062 5.484375 -11.734375 5.109375 -11.734375 C 4.742188 -11.734375 4.375 -11.585938 4 -11.296875 C 3.625 -11.003906 3.4375 -10.585938 3.4375 -10.046875 L 3.5 -9.515625 C 3.445312 -9.410156 3.117188 -9.226562 2.515625 -8.96875 C 1.910156 -8.71875 1.566406 -8.582031 1.484375 -8.5625 C 1.335938 -8.5625 1.265625 -8.734375 1.265625 -9.078125 C 1.265625 -9.429688 1.367188 -9.820312 1.578125 -10.25 C 1.785156 -10.675781 2.082031 -11.070312 2.46875 -11.4375 C 3.351562 -12.257812 4.367188 -12.671875 5.515625 -12.671875 C 6.671875 -12.671875 7.609375 -12.351562 8.328125 -11.71875 C 9.046875 -11.09375 9.40625 -10.34375 9.40625 -9.46875 Z M 3.109375 -2.65625 C 3.109375 -2.21875 3.273438 -1.835938 3.609375 -1.515625 C 3.941406 -1.191406 4.328125 -1.03125 4.765625 -1.03125 C 5.203125 -1.03125 5.726562 -1.210938 6.34375 -1.578125 C 6.96875 -1.953125 7.28125 -2.332031 7.28125 -2.71875 L 7.28125 -5.5 C 7.28125 -5.59375 7.253906 -5.640625 7.203125 -5.640625 C 7.160156 -5.640625 7.128906 -5.640625 7.109375 -5.640625 L 3.9375 -4.15625 C 3.613281 -3.914062 3.394531 -3.710938 3.28125 -3.546875 C 3.164062 -3.390625 3.109375 -3.09375 3.109375 -2.65625 Z M 3.109375 -2.65625 "/></g></g></g><g fill="#8f68ff" fill-opacity="1"><g transform="translate(288.626391, 102.749996)"><g><path d="M 11 -4.3125 L 10.96875 -7.1875 C 10.96875 -8.363281 10.863281 -9.1875 10.65625 -9.65625 C 10.457031 -10.132812 10.203125 -10.492188 9.890625 -10.734375 C 9.585938 -10.984375 9.171875 -11.109375 8.640625 -11.109375 C 8.117188 -11.109375 7.007812 -10.695312 5.3125 -9.875 C 5.09375 -9.738281 4.976562 -9.609375 4.96875 -9.484375 L 4.96875 -2.140625 C 4.96875 -1.210938 5.457031 -0.679688 6.4375 -0.546875 C 6.863281 -0.484375 7.078125 -0.378906 7.078125 -0.234375 C 7.078125 -0.0976562 7.035156 -0.0195312 6.953125 0 L 0.84375 0 C 0.757812 -0.0195312 0.71875 -0.0820312 0.71875 -0.1875 C 0.71875 -0.363281 0.929688 -0.484375 1.359375 -0.546875 C 2.335938 -0.679688 2.828125 -1.210938 2.828125 -2.140625 L 2.828125 -9.984375 C 2.828125 -10.367188 2.617188 -10.632812 2.203125 -10.78125 C 2.015625 -10.84375 1.816406 -10.894531 1.609375 -10.9375 C 1.398438 -10.976562 1.234375 -11.015625 1.109375 -11.046875 C 0.992188 -11.085938 0.914062 -11.125 0.875 -11.15625 C 0.84375 -11.1875 0.828125 -11.253906 0.828125 -11.359375 C 0.828125 -11.460938 0.898438 -11.550781 1.046875 -11.625 L 4.53125 -13.265625 C 4.632812 -13.316406 4.703125 -13.34375 4.734375 -13.34375 C 4.890625 -13.34375 4.96875 -13.234375 4.96875 -13.015625 L 4.96875 -10.890625 C 4.988281 -10.796875 5.023438 -10.75 5.078125 -10.75 C 5.128906 -10.75 5.320312 -10.832031 5.65625 -11 C 6.445312 -11.382812 7.238281 -11.757812 8.03125 -12.125 C 8.820312 -12.488281 9.476562 -12.671875 10 -12.671875 C 12.101562 -12.671875 13.15625 -10.753906 13.15625 -6.921875 L 13.03125 -2.921875 L 13.03125 -2.140625 C 13.03125 -1.421875 13.382812 -0.953125 14.09375 -0.734375 C 14.394531 -0.640625 14.679688 -0.570312 14.953125 -0.53125 C 15.234375 -0.488281 15.414062 -0.445312 15.5 -0.40625 C 15.59375 -0.375 15.640625 -0.300781 15.640625 -0.1875 C 15.640625 -0.0820312 15.59375 -0.0195312 15.5 0 L 8.921875 0 C 8.828125 -0.0195312 8.78125 -0.0820312 8.78125 -0.1875 C 8.78125 -0.363281 8.992188 -0.484375 9.421875 -0.546875 C 10.398438 -0.679688 10.890625 -1.25 10.890625 -2.25 C 10.960938 -2.695312 11 -3.382812 11 -4.3125 Z M 11 -4.3125 "/></g></g></g><g fill="#8f68ff" fill-opacity="1"><g transform="translate(304.538233, 102.749996)"><g><path d="M 9.40625 -2.25 C 9.40625 -2.019531 9.515625 -1.832031 9.734375 -1.6875 C 9.960938 -1.550781 10.222656 -1.484375 10.515625 -1.484375 C 10.804688 -1.484375 11.050781 -1.554688 11.25 -1.703125 C 11.445312 -1.847656 11.582031 -1.921875 11.65625 -1.921875 C 11.726562 -1.921875 11.765625 -1.820312 11.765625 -1.625 C 11.765625 -1.4375 11.671875 -1.273438 11.484375 -1.140625 C 10.117188 -0.128906 9.191406 0.375 8.703125 0.375 C 8.117188 0.375 7.644531 -0.234375 7.28125 -1.453125 C 7.257812 -1.546875 7.238281 -1.585938 7.21875 -1.578125 C 6.09375 -0.722656 5.382812 -0.210938 5.09375 -0.046875 C 4.34375 0.390625 3.585938 0.457031 2.828125 0.15625 C 2.078125 -0.132812 1.535156 -0.613281 1.203125 -1.28125 C 1.035156 -1.632812 0.953125 -2.003906 0.953125 -2.390625 C 0.953125 -3.171875 1.238281 -3.785156 1.8125 -4.234375 C 2.394531 -4.691406 3.488281 -5.128906 5.09375 -5.546875 C 5.644531 -5.691406 6.132812 -5.878906 6.5625 -6.109375 C 6.988281 -6.335938 7.210938 -6.484375 7.234375 -6.546875 C 7.265625 -6.609375 7.28125 -6.671875 7.28125 -6.734375 L 7.28125 -9.359375 C 7.28125 -10.378906 6.878906 -11.101562 6.078125 -11.53125 C 5.804688 -11.664062 5.484375 -11.734375 5.109375 -11.734375 C 4.742188 -11.734375 4.375 -11.585938 4 -11.296875 C 3.625 -11.003906 3.4375 -10.585938 3.4375 -10.046875 L 3.5 -9.515625 C 3.445312 -9.410156 3.117188 -9.226562 2.515625 -8.96875 C 1.910156 -8.71875 1.566406 -8.582031 1.484375 -8.5625 C 1.335938 -8.5625 1.265625 -8.734375 1.265625 -9.078125 C 1.265625 -9.429688 1.367188 -9.820312 1.578125 -10.25 C 1.785156 -10.675781 2.082031 -11.070312 2.46875 -11.4375 C 3.351562 -12.257812 4.367188 -12.671875 5.515625 -12.671875 C 6.671875 -12.671875 7.609375 -12.351562 8.328125 -11.71875 C 9.046875 -11.09375 9.40625 -10.34375 9.40625 -9.46875 Z M 3.109375 -2.65625 C 3.109375 -2.21875 3.273438 -1.835938 3.609375 -1.515625 C 3.941406 -1.191406 4.328125 -1.03125 4.765625 -1.03125 C 5.203125 -1.03125 5.726562 -1.210938 6.34375 -1.578125 C 6.96875 -1.953125 7.28125 -2.332031 7.28125 -2.71875 L 7.28125 -5.5 C 7.28125 -5.59375 7.253906 -5.640625 7.203125 -5.640625 C 7.160156 -5.640625 7.128906 -5.640625 7.109375 -5.640625 L 3.9375 -4.15625 C 3.613281 -3.914062 3.394531 -3.710938 3.28125 -3.546875 C 3.164062 -3.390625 3.109375 -3.09375 3.109375 -2.65625 Z M 3.109375 -2.65625 "/></g></g></g><g fill="#8f68ff" fill-opacity="1"><g transform="translate(316.636159, 102.749996)"><g><path d="M 11.203125 -11.359375 C 11.203125 -11.359375 12.421875 -11.414062 14.859375 -11.53125 C 15.066406 -11.53125 15.203125 -11.503906 15.265625 -11.453125 C 15.335938 -11.410156 15.410156 -11.253906 15.484375 -10.984375 C 15.554688 -10.710938 15.59375 -10.457031 15.59375 -10.21875 C 15.59375 -9.988281 15.566406 -9.851562 15.515625 -9.8125 C 15.472656 -9.78125 15.382812 -9.765625 15.25 -9.765625 L 12.203125 -9.765625 C 12.265625 -9.660156 12.328125 -9.550781 12.390625 -9.4375 C 12.453125 -9.332031 12.53125 -9.148438 12.625 -8.890625 C 12.726562 -8.640625 12.78125 -8.25 12.78125 -7.71875 C 12.78125 -7.1875 12.648438 -6.628906 12.390625 -6.046875 C 12.128906 -5.472656 11.75 -4.960938 11.25 -4.515625 C 10.132812 -3.515625 8.695312 -3.015625 6.9375 -3.015625 C 6.46875 -3.015625 5.957031 -3.097656 5.40625 -3.265625 C 5.269531 -3.117188 5.085938 -2.984375 4.859375 -2.859375 C 4.628906 -2.742188 4.40625 -2.617188 4.1875 -2.484375 C 3.632812 -2.179688 3.359375 -1.875 3.359375 -1.5625 C 3.359375 -0.78125 4.644531 -0.378906 7.21875 -0.359375 C 9.789062 -0.347656 11.476562 -0.265625 12.28125 -0.109375 C 13.09375 0.0351562 13.722656 0.332031 14.171875 0.78125 C 14.867188 1.476562 15.21875 2.28125 15.21875 3.1875 C 15.21875 3.957031 14.882812 4.753906 14.21875 5.578125 C 13.0625 7.023438 11.296875 7.992188 8.921875 8.484375 C 8.066406 8.648438 7.164062 8.734375 6.21875 8.734375 C 4.5 8.734375 3.191406 8.421875 2.296875 7.796875 C 1.398438 7.171875 0.953125 6.414062 0.953125 5.53125 C 0.953125 5.050781 1.066406 4.65625 1.296875 4.34375 C 1.523438 4.03125 1.8125 3.734375 2.15625 3.453125 C 2.507812 3.171875 2.894531 2.878906 3.3125 2.578125 C 3.738281 2.273438 4.144531 1.882812 4.53125 1.40625 C 3.65625 1.332031 2.90625 1.050781 2.28125 0.5625 C 1.65625 0.0820312 1.34375 -0.382812 1.34375 -0.84375 C 1.34375 -1.3125 1.460938 -1.65625 1.703125 -1.875 C 1.953125 -2.101562 2.253906 -2.296875 2.609375 -2.453125 C 2.960938 -2.609375 3.335938 -2.753906 3.734375 -2.890625 C 4.128906 -3.035156 4.472656 -3.21875 4.765625 -3.4375 C 3.742188 -3.832031 2.953125 -4.382812 2.390625 -5.09375 C 1.835938 -5.800781 1.5625 -6.570312 1.5625 -7.40625 C 1.5625 -8.96875 2.128906 -10.238281 3.265625 -11.21875 C 4.398438 -12.207031 5.769531 -12.703125 7.375 -12.703125 C 8.976562 -12.703125 10.253906 -12.253906 11.203125 -11.359375 Z M 3.765625 2.890625 C 3.554688 3.109375 3.378906 3.332031 3.234375 3.5625 C 3.097656 3.800781 3.03125 4.097656 3.03125 4.453125 C 3.03125 4.816406 3.160156 5.195312 3.421875 5.59375 C 3.679688 5.988281 4.035156 6.347656 4.484375 6.671875 C 5.472656 7.398438 6.660156 7.765625 8.046875 7.765625 C 9.429688 7.765625 10.6875 7.359375 11.8125 6.546875 C 12.9375 5.742188 13.5 4.863281 13.5 3.90625 C 13.5 2.945312 13.03125 2.300781 12.09375 1.96875 C 11.65625 1.820312 10.53125 1.726562 8.71875 1.6875 C 6.90625 1.65625 5.734375 1.609375 5.203125 1.546875 C 4.960938 1.816406 4.71875 2.054688 4.46875 2.265625 C 4.21875 2.472656 3.984375 2.679688 3.765625 2.890625 Z M 10.546875 -7.71875 C 10.546875 -9.007812 10.222656 -10.054688 9.578125 -10.859375 C 8.929688 -11.671875 8.082031 -12.078125 7.03125 -12.078125 C 5.664062 -12.078125 4.695312 -11.429688 4.125 -10.140625 C 3.90625 -9.648438 3.796875 -9.085938 3.796875 -8.453125 C 3.796875 -7.148438 4.066406 -6.066406 4.609375 -5.203125 C 5.265625 -4.160156 6.125 -3.640625 7.1875 -3.640625 C 8.257812 -3.640625 9.085938 -4 9.671875 -4.71875 C 10.253906 -5.4375 10.546875 -6.4375 10.546875 -7.71875 Z M 10.546875 -7.71875 "/></g></g></g><g fill="#8f68ff" fill-opacity="1"><g transform="translate(332.329281, 102.749996)"><g><path d="M 3.15625 -7.203125 C 3 -7.203125 2.921875 -6.867188 2.921875 -6.203125 C 2.921875 -4.796875 3.335938 -3.613281 4.171875 -2.65625 C 5.015625 -1.695312 6.054688 -1.21875 7.296875 -1.21875 C 8.546875 -1.21875 9.742188 -1.753906 10.890625 -2.828125 C 10.910156 -2.847656 10.9375 -2.859375 10.96875 -2.859375 L 11.03125 -2.859375 C 11.082031 -2.859375 11.132812 -2.8125 11.1875 -2.71875 C 11.238281 -2.632812 11.285156 -2.582031 11.328125 -2.5625 C 10.273438 -1.269531 9.035156 -0.378906 7.609375 0.109375 C 7.109375 0.285156 6.546875 0.375 5.921875 0.375 C 5.304688 0.375 4.679688 0.203125 4.046875 -0.140625 C 3.410156 -0.484375 2.863281 -0.929688 2.40625 -1.484375 C 1.4375 -2.648438 0.953125 -4.09375 0.953125 -5.8125 C 0.953125 -7.539062 1.476562 -9.113281 2.53125 -10.53125 C 3.582031 -11.957031 5.03125 -12.671875 6.875 -12.671875 C 8.195312 -12.671875 9.273438 -12.082031 10.109375 -10.90625 C 10.953125 -9.726562 11.375 -8.691406 11.375 -7.796875 C 11.375 -7.398438 11.28125 -7.203125 11.09375 -7.203125 Z M 3.3125 -8.515625 C 3.3125 -8.347656 3.394531 -8.265625 3.5625 -8.265625 L 8.703125 -8.265625 C 8.941406 -8.265625 9.0625 -8.40625 9.0625 -8.6875 C 9.0625 -9.34375 8.765625 -10.015625 8.171875 -10.703125 C 7.585938 -11.390625 6.945312 -11.734375 6.25 -11.734375 C 5.5625 -11.734375 4.9375 -11.421875 4.375 -10.796875 C 3.820312 -10.179688 3.46875 -9.476562 3.3125 -8.6875 Z M 3.3125 -8.515625 "/></g></g></g><g fill="#8f68ff" fill-opacity="1"><g transform="translate(345.04235, 102.749996)"><g><path d="M 18.984375 -4.3125 L 18.953125 -7.1875 C 18.953125 -8.363281 18.847656 -9.1875 18.640625 -9.65625 C 18.441406 -10.132812 18.1875 -10.492188 17.875 -10.734375 C 17.570312 -10.984375 17.15625 -11.109375 16.625 -11.109375 C 16.101562 -11.109375 14.992188 -10.695312 13.296875 -9.875 C 13.078125 -9.738281 12.960938 -9.609375 12.953125 -9.484375 L 12.953125 -2.140625 C 12.953125 -1.210938 13.441406 -0.679688 14.421875 -0.546875 C 14.847656 -0.484375 15.0625 -0.378906 15.0625 -0.234375 C 15.0625 -0.0976562 15.019531 -0.0195312 14.9375 0 L 8.828125 0 C 8.742188 -0.0195312 8.703125 -0.0820312 8.703125 -0.1875 C 8.703125 -0.363281 8.914062 -0.484375 9.34375 -0.546875 C 10.320312 -0.679688 10.8125 -1.210938 10.8125 -2.140625 L 10.8125 -8.9375 C 10.8125 -10.375 9.925781 -11.09375 8.15625 -11.09375 C 7.507812 -11.09375 6.613281 -10.707031 5.46875 -9.9375 C 5.175781 -9.75 4.960938 -9.570312 4.828125 -9.40625 L 4.828125 -2.140625 C 4.828125 -1.210938 5.316406 -0.679688 6.296875 -0.546875 C 6.734375 -0.484375 6.953125 -0.378906 6.953125 -0.234375 C 6.953125 -0.0976562 6.90625 -0.0195312 6.8125 0 L 0.71875 0 C 0.625 -0.0195312 0.578125 -0.0820312 0.578125 -0.1875 C 0.578125 -0.363281 0.789062 -0.484375 1.21875 -0.546875 C 2.195312 -0.679688 2.6875 -1.203125 2.6875 -2.109375 L 2.6875 -9.984375 C 2.6875 -10.367188 2.476562 -10.632812 2.0625 -10.78125 C 1.882812 -10.84375 1.6875 -10.894531 1.46875 -10.9375 C 1.257812 -10.976562 1.09375 -11.015625 0.96875 -11.046875 C 0.851562 -11.085938 0.78125 -11.125 0.75 -11.15625 C 0.71875 -11.1875 0.703125 -11.253906 0.703125 -11.359375 C 0.703125 -11.460938 0.769531 -11.550781 0.90625 -11.625 L 4.390625 -13.265625 C 4.492188 -13.316406 4.5625 -13.34375 4.59375 -13.34375 C 4.75 -13.34375 4.828125 -13.234375 4.828125 -13.015625 L 4.828125 -10.75 C 4.835938 -10.695312 4.867188 -10.671875 4.921875 -10.671875 C 4.984375 -10.671875 5.132812 -10.734375 5.375 -10.859375 C 5.625 -10.984375 5.941406 -11.160156 6.328125 -11.390625 C 6.722656 -11.628906 7.238281 -11.898438 7.875 -12.203125 C 8.519531 -12.515625 9.203125 -12.671875 9.921875 -12.671875 C 11.078125 -12.671875 11.910156 -12.175781 12.421875 -11.1875 C 12.609375 -10.78125 12.78125 -10.609375 12.9375 -10.671875 C 13.09375 -10.734375 13.332031 -10.84375 13.65625 -11 C 14.4375 -11.382812 15.222656 -11.757812 16.015625 -12.125 C 16.804688 -12.488281 17.460938 -12.671875 17.984375 -12.671875 C 20.085938 -12.671875 21.140625 -10.753906 21.140625 -6.921875 L 21.015625 -2.921875 L 21.015625 -2.140625 C 21.015625 -1.421875 21.367188 -0.953125 22.078125 -0.734375 C 22.378906 -0.640625 22.664062 -0.570312 22.9375 -0.53125 C 23.21875 -0.488281 23.398438 -0.445312 23.484375 -0.40625 C 23.578125 -0.375 23.625 -0.300781 23.625 -0.1875 C 23.625 -0.0820312 23.578125 -0.0195312 23.484375 0 L 16.90625 0 C 16.8125 -0.0195312 16.765625 -0.0820312 16.765625 -0.1875 C 16.765625 -0.363281 16.976562 -0.484375 17.40625 -0.546875 C 18.382812 -0.679688 18.875 -1.25 18.875 -2.25 C 18.945312 -2.695312 18.984375 -3.382812 18.984375 -4.3125 Z M 18.984375 -4.3125 "/></g></g></g><g fill="#8f68ff" fill-opacity="1"><g transform="translate(368.718733, 102.749996)"><g><path d="M 3.15625 -7.203125 C 3 -7.203125 2.921875 -6.867188 2.921875 -6.203125 C 2.921875 -4.796875 3.335938 -3.613281 4.171875 -2.65625 C 5.015625 -1.695312 6.054688 -1.21875 7.296875 -1.21875 C 8.546875 -1.21875 9.742188 -1.753906 10.890625 -2.828125 C 10.910156 -2.847656 10.9375 -2.859375 10.96875 -2.859375 L 11.03125 -2.859375 C 11.082031 -2.859375 11.132812 -2.8125 11.1875 -2.71875 C 11.238281 -2.632812 11.285156 -2.582031 11.328125 -2.5625 C 10.273438 -1.269531 9.035156 -0.378906 7.609375 0.109375 C 7.109375 0.285156 6.546875 0.375 5.921875 0.375 C 5.304688 0.375 4.679688 0.203125 4.046875 -0.140625 C 3.410156 -0.484375 2.863281 -0.929688 2.40625 -1.484375 C 1.4375 -2.648438 0.953125 -4.09375 0.953125 -5.8125 C 0.953125 -7.539062 1.476562 -9.113281 2.53125 -10.53125 C 3.582031 -11.957031 5.03125 -12.671875 6.875 -12.671875 C 8.195312 -12.671875 9.273438 -12.082031 10.109375 -10.90625 C 10.953125 -9.726562 11.375 -8.691406 11.375 -7.796875 C 11.375 -7.398438 11.28125 -7.203125 11.09375 -7.203125 Z M 3.3125 -8.515625 C 3.3125 -8.347656 3.394531 -8.265625 3.5625 -8.265625 L 8.703125 -8.265625 C 8.941406 -8.265625 9.0625 -8.40625 9.0625 -8.6875 C 9.0625 -9.34375 8.765625 -10.015625 8.171875 -10.703125 C 7.585938 -11.390625 6.945312 -11.734375 6.25 -11.734375 C 5.5625 -11.734375 4.9375 -11.421875 4.375 -10.796875 C 3.820312 -10.179688 3.46875 -9.476562 3.3125 -8.6875 Z M 3.3125 -8.515625 "/></g></g></g><g fill="#8f68ff" fill-opacity="1"><g transform="translate(381.431802, 102.749996)"><g><path d="M 11 -4.3125 L 10.96875 -7.1875 C 10.96875 -8.363281 10.863281 -9.1875 10.65625 -9.65625 C 10.457031 -10.132812 10.203125 -10.492188 9.890625 -10.734375 C 9.585938 -10.984375 9.171875 -11.109375 8.640625 -11.109375 C 8.117188 -11.109375 7.007812 -10.695312 5.3125 -9.875 C 5.09375 -9.738281 4.976562 -9.609375 4.96875 -9.484375 L 4.96875 -2.140625 C 4.96875 -1.210938 5.457031 -0.679688 6.4375 -0.546875 C 6.863281 -0.484375 7.078125 -0.378906 7.078125 -0.234375 C 7.078125 -0.0976562 7.035156 -0.0195312 6.953125 0 L 0.84375 0 C 0.757812 -0.0195312 0.71875 -0.0820312 0.71875 -0.1875 C 0.71875 -0.363281 0.929688 -0.484375 1.359375 -0.546875 C 2.335938 -0.679688 2.828125 -1.210938 2.828125 -2.140625 L 2.828125 -9.984375 C 2.828125 -10.367188 2.617188 -10.632812 2.203125 -10.78125 C 2.015625 -10.84375 1.816406 -10.894531 1.609375 -10.9375 C 1.398438 -10.976562 1.234375 -11.015625 1.109375 -11.046875 C 0.992188 -11.085938 0.914062 -11.125 0.875 -11.15625 C 0.84375 -11.1875 0.828125 -11.253906 0.828125 -11.359375 C 0.828125 -11.460938 0.898438 -11.550781 1.046875 -11.625 L 4.53125 -13.265625 C 4.632812 -13.316406 4.703125 -13.34375 4.734375 -13.34375 C 4.890625 -13.34375 4.96875 -13.234375 4.96875 -13.015625 L 4.96875 -10.890625 C 4.988281 -10.796875 5.023438 -10.75 5.078125 -10.75 C 5.128906 -10.75 5.320312 -10.832031 5.65625 -11 C 6.445312 -11.382812 7.238281 -11.757812 8.03125 -12.125 C 8.820312 -12.488281 9.476562 -12.671875 10 -12.671875 C 12.101562 -12.671875 13.15625 -10.753906 13.15625 -6.921875 L 13.03125 -2.921875 L 13.03125 -2.140625 C 13.03125 -1.421875 13.382812 -0.953125 14.09375 -0.734375 C 14.394531 -0.640625 14.679688 -0.570312 14.953125 -0.53125 C 15.234375 -0.488281 15.414062 -0.445312 15.5 -0.40625 C 15.59375 -0.375 15.640625 -0.300781 15.640625 -0.1875 C 15.640625 -0.0820312 15.59375 -0.0195312 15.5 0 L 8.921875 0 C 8.828125 -0.0195312 8.78125 -0.0820312 8.78125 -0.1875 C 8.78125 -0.363281 8.992188 -0.484375 9.421875 -0.546875 C 10.398438 -0.679688 10.890625 -1.25 10.890625 -2.25 C 10.960938 -2.695312 11 -3.382812 11 -4.3125 Z M 11 -4.3125 "/></g></g></g><g fill="#8f68ff" fill-opacity="1"><g transform="translate(397.343644, 102.749996)"><g><path d="M 4.28125 -10.515625 C 4.226562 -10.515625 4.203125 -10.472656 4.203125 -10.390625 L 4.203125 -2.84375 C 4.203125 -2.300781 4.320312 -1.875 4.5625 -1.5625 C 4.800781 -1.25 5.109375 -1.09375 5.484375 -1.09375 C 5.859375 -1.09375 6.179688 -1.15625 6.453125 -1.28125 C 6.734375 -1.40625 6.976562 -1.539062 7.1875 -1.6875 C 7.394531 -1.832031 7.578125 -1.960938 7.734375 -2.078125 C 7.898438 -2.203125 8.046875 -2.265625 8.171875 -2.265625 C 8.304688 -2.265625 8.375 -2.234375 8.375 -2.171875 C 8.375 -1.953125 8.347656 -1.8125 8.296875 -1.75 C 7.203125 -0.332031 6.144531 0.375 5.125 0.375 C 4.113281 0.375 3.347656 0.0507812 2.828125 -0.59375 C 2.316406 -1.238281 2.0625 -2.007812 2.0625 -2.90625 L 2.0625 -10.515625 L 1.046875 -10.515625 C 0.785156 -10.515625 0.644531 -10.59375 0.625 -10.75 C 0.613281 -10.914062 0.644531 -11.023438 0.71875 -11.078125 C 1.195312 -11.390625 1.859375 -11.945312 2.703125 -12.75 C 2.796875 -12.84375 2.921875 -12.988281 3.078125 -13.1875 C 3.234375 -13.394531 3.457031 -13.671875 3.75 -14.015625 C 4.050781 -14.359375 4.273438 -14.53125 4.421875 -14.53125 C 4.578125 -14.53125 4.65625 -14.46875 4.65625 -14.34375 C 4.65625 -14.320312 4.503906 -13.722656 4.203125 -12.546875 C 4.203125 -12.390625 4.273438 -12.304688 4.421875 -12.296875 L 7.90625 -12.296875 C 8.300781 -12.296875 8.5 -11.726562 8.5 -10.59375 C 8.5 -10.539062 8.460938 -10.515625 8.390625 -10.515625 Z M 4.28125 -10.515625 "/></g></g></g><g fill="#8f68ff" fill-opacity="1"><g transform="translate(498.45608, 84.950006)"><g><path d="M 9 0.296875 C 7.601562 0.296875 6.34375 0.125 5.21875 -0.21875 C 4.101562 -0.570312 3.035156 -1.1875 2.015625 -2.0625 C 1.753906 -2.289062 1.550781 -2.539062 1.40625 -2.8125 C 1.269531 -3.09375 1.203125 -3.375 1.203125 -3.65625 C 1.203125 -4.113281 1.363281 -4.519531 1.6875 -4.875 C 2.019531 -5.226562 2.4375 -5.40625 2.9375 -5.40625 C 3.320312 -5.40625 3.660156 -5.285156 3.953125 -5.046875 C 4.710938 -4.421875 5.46875 -3.945312 6.21875 -3.625 C 6.96875 -3.3125 7.894531 -3.15625 9 -3.15625 C 9.738281 -3.15625 10.414062 -3.269531 11.03125 -3.5 C 11.65625 -3.726562 12.15625 -4.035156 12.53125 -4.421875 C 12.914062 -4.816406 13.109375 -5.265625 13.109375 -5.765625 C 13.109375 -6.359375 12.925781 -6.863281 12.5625 -7.28125 C 12.207031 -7.707031 11.660156 -8.066406 10.921875 -8.359375 C 10.179688 -8.648438 9.238281 -8.875 8.09375 -9.03125 C 7.019531 -9.1875 6.070312 -9.429688 5.25 -9.765625 C 4.425781 -10.097656 3.738281 -10.519531 3.1875 -11.03125 C 2.644531 -11.539062 2.234375 -12.140625 1.953125 -12.828125 C 1.671875 -13.515625 1.53125 -14.289062 1.53125 -15.15625 C 1.53125 -16.445312 1.863281 -17.550781 2.53125 -18.46875 C 3.207031 -19.394531 4.113281 -20.097656 5.25 -20.578125 C 6.382812 -21.054688 7.644531 -21.296875 9.03125 -21.296875 C 10.332031 -21.296875 11.535156 -21.097656 12.640625 -20.703125 C 13.753906 -20.316406 14.660156 -19.828125 15.359375 -19.234375 C 15.941406 -18.773438 16.234375 -18.242188 16.234375 -17.640625 C 16.234375 -17.203125 16.0625 -16.800781 15.71875 -16.4375 C 15.375 -16.082031 14.972656 -15.90625 14.515625 -15.90625 C 14.210938 -15.90625 13.941406 -15.992188 13.703125 -16.171875 C 13.390625 -16.453125 12.960938 -16.71875 12.421875 -16.96875 C 11.878906 -17.21875 11.304688 -17.425781 10.703125 -17.59375 C 10.109375 -17.757812 9.550781 -17.84375 9.03125 -17.84375 C 8.164062 -17.84375 7.4375 -17.734375 6.84375 -17.515625 C 6.257812 -17.296875 5.816406 -16.992188 5.515625 -16.609375 C 5.210938 -16.234375 5.0625 -15.796875 5.0625 -15.296875 C 5.0625 -14.703125 5.238281 -14.207031 5.59375 -13.8125 C 5.945312 -13.425781 6.453125 -13.117188 7.109375 -12.890625 C 7.765625 -12.660156 8.554688 -12.453125 9.484375 -12.265625 C 10.679688 -12.046875 11.734375 -11.785156 12.640625 -11.484375 C 13.554688 -11.191406 14.3125 -10.804688 14.90625 -10.328125 C 15.507812 -9.859375 15.957031 -9.269531 16.25 -8.5625 C 16.550781 -7.851562 16.703125 -6.988281 16.703125 -5.96875 C 16.703125 -4.664062 16.34375 -3.546875 15.625 -2.609375 C 14.90625 -1.671875 13.960938 -0.953125 12.796875 -0.453125 C 11.628906 0.046875 10.363281 0.296875 9 0.296875 Z M 9 0.296875 "/></g></g></g><g fill="#8f68ff" fill-opacity="1"><g transform="translate(516.359125, 84.950006)"><g><path d="M 5.34375 -1.828125 C 5.34375 -1.304688 5.171875 -0.867188 4.828125 -0.515625 C 4.484375 -0.171875 4.054688 0 3.546875 0 C 3.023438 0 2.59375 -0.171875 2.25 -0.515625 C 1.90625 -0.867188 1.734375 -1.304688 1.734375 -1.828125 L 1.734375 -14.21875 C 1.734375 -14.738281 1.90625 -15.171875 2.25 -15.515625 C 2.59375 -15.867188 3.023438 -16.046875 3.546875 -16.046875 C 4.054688 -16.046875 4.484375 -15.867188 4.828125 -15.515625 C 5.171875 -15.171875 5.34375 -14.738281 5.34375 -14.21875 Z M 3.515625 -18 C 2.835938 -18 2.359375 -18.109375 2.078125 -18.328125 C 1.796875 -18.546875 1.65625 -18.9375 1.65625 -19.5 L 1.65625 -20.0625 C 1.65625 -20.644531 1.8125 -21.039062 2.125 -21.25 C 2.4375 -21.457031 2.910156 -21.5625 3.546875 -21.5625 C 4.242188 -21.5625 4.734375 -21.453125 5.015625 -21.234375 C 5.296875 -21.015625 5.4375 -20.625 5.4375 -20.0625 L 5.4375 -19.5 C 5.4375 -18.914062 5.285156 -18.519531 4.984375 -18.3125 C 4.679688 -18.101562 4.191406 -18 3.515625 -18 Z M 3.515625 -18 "/></g></g></g><g fill="#8f68ff" fill-opacity="1"><g transform="translate(523.43638, 84.950006)"><g><path d="M 10.375 -16.34375 C 11.976562 -16.34375 13.160156 -15.957031 13.921875 -15.1875 C 14.679688 -14.425781 15.179688 -13.429688 15.421875 -12.203125 L 14.90625 -12.484375 L 15.15625 -12.953125 C 15.394531 -13.421875 15.765625 -13.914062 16.265625 -14.4375 C 16.765625 -14.96875 17.367188 -15.414062 18.078125 -15.78125 C 18.785156 -16.15625 19.578125 -16.34375 20.453125 -16.34375 C 21.898438 -16.34375 23 -16.03125 23.75 -15.40625 C 24.5 -14.789062 25.007812 -13.96875 25.28125 -12.9375 C 25.5625 -11.914062 25.703125 -10.773438 25.703125 -9.515625 L 25.703125 -1.828125 C 25.703125 -1.304688 25.53125 -0.867188 25.1875 -0.515625 C 24.851562 -0.171875 24.425781 0 23.90625 0 C 23.382812 0 22.953125 -0.171875 22.609375 -0.515625 C 22.273438 -0.867188 22.109375 -1.304688 22.109375 -1.828125 L 22.109375 -9.515625 C 22.109375 -10.171875 22.023438 -10.765625 21.859375 -11.296875 C 21.703125 -11.828125 21.414062 -12.25 21 -12.5625 C 20.582031 -12.882812 19.984375 -13.046875 19.203125 -13.046875 C 18.441406 -13.046875 17.789062 -12.882812 17.25 -12.5625 C 16.707031 -12.25 16.300781 -11.828125 16.03125 -11.296875 C 15.757812 -10.765625 15.625 -10.171875 15.625 -9.515625 L 15.625 -1.828125 C 15.625 -1.304688 15.453125 -0.867188 15.109375 -0.515625 C 14.773438 -0.171875 14.347656 0 13.828125 0 C 13.304688 0 12.875 -0.171875 12.53125 -0.515625 C 12.195312 -0.867188 12.03125 -1.304688 12.03125 -1.828125 L 12.03125 -9.515625 C 12.03125 -10.171875 11.945312 -10.765625 11.78125 -11.296875 C 11.625 -11.828125 11.335938 -12.25 10.921875 -12.5625 C 10.503906 -12.882812 9.90625 -13.046875 9.125 -13.046875 C 8.363281 -13.046875 7.710938 -12.882812 7.171875 -12.5625 C 6.628906 -12.25 6.222656 -11.828125 5.953125 -11.296875 C 5.679688 -10.765625 5.546875 -10.171875 5.546875 -9.515625 L 5.546875 -1.828125 C 5.546875 -1.304688 5.375 -0.867188 5.03125 -0.515625 C 4.695312 -0.171875 4.269531 0 3.75 0 C 3.226562 0 2.796875 -0.171875 2.453125 -0.515625 C 2.117188 -0.867188 1.953125 -1.304688 1.953125 -1.828125 L 1.953125 -14.21875 C 1.953125 -14.738281 2.117188 -15.171875 2.453125 -15.515625 C 2.796875 -15.867188 3.226562 -16.046875 3.75 -16.046875 C 4.269531 -16.046875 4.695312 -15.867188 5.03125 -15.515625 C 5.375 -15.171875 5.546875 -14.738281 5.546875 -14.21875 L 5.546875 -12.9375 L 5.09375 -13.015625 C 5.28125 -13.359375 5.53125 -13.722656 5.84375 -14.109375 C 6.164062 -14.503906 6.554688 -14.867188 7.015625 -15.203125 C 7.472656 -15.546875 7.984375 -15.820312 8.546875 -16.03125 C 9.109375 -16.238281 9.71875 -16.34375 10.375 -16.34375 Z M 10.375 -16.34375 "/></g></g></g><g fill="#8f68ff" fill-opacity="1"><g transform="translate(551.085636, 84.950006)"><g><path d="M 10.265625 -16.34375 C 11.660156 -16.34375 12.910156 -15.988281 14.015625 -15.28125 C 15.128906 -14.570312 16.007812 -13.597656 16.65625 -12.359375 C 17.3125 -11.117188 17.640625 -9.679688 17.640625 -8.046875 C 17.640625 -6.398438 17.3125 -4.953125 16.65625 -3.703125 C 16.007812 -2.453125 15.140625 -1.472656 14.046875 -0.765625 C 12.960938 -0.0546875 11.738281 0.296875 10.375 0.296875 C 9.582031 0.296875 8.832031 0.164062 8.125 -0.09375 C 7.425781 -0.351562 6.8125 -0.679688 6.28125 -1.078125 C 5.75 -1.484375 5.335938 -1.890625 5.046875 -2.296875 C 4.765625 -2.703125 4.625 -3.046875 4.625 -3.328125 L 5.546875 -3.71875 L 5.546875 4.171875 C 5.546875 4.691406 5.375 5.125 5.03125 5.46875 C 4.695312 5.820312 4.269531 6 3.75 6 C 3.226562 6 2.796875 5.828125 2.453125 5.484375 C 2.117188 5.148438 1.953125 4.710938 1.953125 4.171875 L 1.953125 -14.21875 C 1.953125 -14.738281 2.117188 -15.171875 2.453125 -15.515625 C 2.796875 -15.867188 3.226562 -16.046875 3.75 -16.046875 C 4.269531 -16.046875 4.695312 -15.867188 5.03125 -15.515625 C 5.375 -15.171875 5.546875 -14.738281 5.546875 -14.21875 L 5.546875 -12.75 L 5.046875 -13.015625 C 5.046875 -13.273438 5.179688 -13.585938 5.453125 -13.953125 C 5.734375 -14.328125 6.113281 -14.695312 6.59375 -15.0625 C 7.070312 -15.4375 7.625 -15.742188 8.25 -15.984375 C 8.882812 -16.222656 9.554688 -16.34375 10.265625 -16.34375 Z M 9.8125 -13.046875 C 8.925781 -13.046875 8.15625 -12.828125 7.5 -12.390625 C 6.84375 -11.953125 6.328125 -11.359375 5.953125 -10.609375 C 5.585938 -9.859375 5.40625 -9.003906 5.40625 -8.046875 C 5.40625 -7.097656 5.585938 -6.238281 5.953125 -5.46875 C 6.328125 -4.695312 6.84375 -4.09375 7.5 -3.65625 C 8.15625 -3.21875 8.925781 -3 9.8125 -3 C 10.6875 -3 11.445312 -3.21875 12.09375 -3.65625 C 12.75 -4.09375 13.257812 -4.695312 13.625 -5.46875 C 14 -6.238281 14.1875 -7.097656 14.1875 -8.046875 C 14.1875 -9.003906 14 -9.859375 13.625 -10.609375 C 13.257812 -11.359375 12.75 -11.953125 12.09375 -12.390625 C 11.445312 -12.828125 10.6875 -13.046875 9.8125 -13.046875 Z M 9.8125 -13.046875 "/></g></g></g><g fill="#8f68ff" fill-opacity="1"><g transform="translate(569.918319, 84.950006)"><g><path d="M 5.84375 -1.828125 C 5.84375 -1.304688 5.664062 -0.867188 5.3125 -0.515625 C 4.96875 -0.171875 4.535156 0 4.015625 0 C 3.515625 0 3.09375 -0.171875 2.75 -0.515625 C 2.414062 -0.867188 2.25 -1.304688 2.25 -1.828125 L 2.25 -20.375 C 2.25 -20.894531 2.421875 -21.328125 2.765625 -21.671875 C 3.117188 -22.023438 3.554688 -22.203125 4.078125 -22.203125 C 4.597656 -22.203125 5.019531 -22.023438 5.34375 -21.671875 C 5.675781 -21.328125 5.84375 -20.894531 5.84375 -20.375 Z M 5.84375 -1.828125 "/></g></g></g><g fill="#8f68ff" fill-opacity="1"><g transform="translate(578.015174, 84.950006)"><g><path d="M 17.515625 -8.015625 C 17.515625 -6.367188 17.148438 -4.921875 16.421875 -3.671875 C 15.691406 -2.421875 14.710938 -1.445312 13.484375 -0.75 C 12.253906 -0.0507812 10.878906 0.296875 9.359375 0.296875 C 7.835938 0.296875 6.460938 -0.0507812 5.234375 -0.75 C 4.003906 -1.445312 3.023438 -2.421875 2.296875 -3.671875 C 1.566406 -4.921875 1.203125 -6.367188 1.203125 -8.015625 C 1.203125 -9.648438 1.566406 -11.09375 2.296875 -12.34375 C 3.023438 -13.59375 4.003906 -14.570312 5.234375 -15.28125 C 6.460938 -15.988281 7.835938 -16.34375 9.359375 -16.34375 C 10.878906 -16.34375 12.253906 -15.988281 13.484375 -15.28125 C 14.710938 -14.570312 15.691406 -13.59375 16.421875 -12.34375 C 17.148438 -11.09375 17.515625 -9.648438 17.515625 -8.015625 Z M 13.921875 -8.015625 C 13.921875 -9.035156 13.710938 -9.921875 13.296875 -10.671875 C 12.890625 -11.421875 12.34375 -12.003906 11.65625 -12.421875 C 10.96875 -12.835938 10.203125 -13.046875 9.359375 -13.046875 C 8.515625 -13.046875 7.75 -12.835938 7.0625 -12.421875 C 6.375 -12.003906 5.820312 -11.421875 5.40625 -10.671875 C 5 -9.921875 4.796875 -9.035156 4.796875 -8.015625 C 4.796875 -7.015625 5 -6.140625 5.40625 -5.390625 C 5.820312 -4.640625 6.375 -4.050781 7.0625 -3.625 C 7.75 -3.207031 8.515625 -3 9.359375 -3 C 10.203125 -3 10.96875 -3.207031 11.65625 -3.625 C 12.34375 -4.050781 12.890625 -4.640625 13.296875 -5.390625 C 13.710938 -6.140625 13.921875 -7.015625 13.921875 -8.015625 Z M 13.921875 -8.015625 "/></g></g></g><g fill="#8f68ff" fill-opacity="1"><g transform="translate(596.727899, 84.950006)"><g><path d="M 10.53125 -16.34375 C 12.007812 -16.34375 13.132812 -16.03125 13.90625 -15.40625 C 14.675781 -14.789062 15.207031 -13.96875 15.5 -12.9375 C 15.789062 -11.914062 15.9375 -10.773438 15.9375 -9.515625 L 15.9375 -1.828125 C 15.9375 -1.304688 15.765625 -0.867188 15.421875 -0.515625 C 15.078125 -0.171875 14.644531 0 14.125 0 C 13.601562 0 13.171875 -0.171875 12.828125 -0.515625 C 12.492188 -0.867188 12.328125 -1.304688 12.328125 -1.828125 L 12.328125 -9.515625 C 12.328125 -10.171875 12.238281 -10.765625 12.0625 -11.296875 C 11.894531 -11.828125 11.59375 -12.25 11.15625 -12.5625 C 10.71875 -12.882812 10.085938 -13.046875 9.265625 -13.046875 C 8.460938 -13.046875 7.785156 -12.882812 7.234375 -12.5625 C 6.691406 -12.25 6.273438 -11.828125 5.984375 -11.296875 C 5.691406 -10.765625 5.546875 -10.171875 5.546875 -9.515625 L 5.546875 -1.828125 C 5.546875 -1.304688 5.375 -0.867188 5.03125 -0.515625 C 4.695312 -0.171875 4.269531 0 3.75 0 C 3.226562 0 2.796875 -0.171875 2.453125 -0.515625 C 2.117188 -0.867188 1.953125 -1.304688 1.953125 -1.828125 L 1.953125 -14.21875 C 1.953125 -14.738281 2.117188 -15.171875 2.453125 -15.515625 C 2.796875 -15.867188 3.226562 -16.046875 3.75 -16.046875 C 4.269531 -16.046875 4.695312 -15.867188 5.03125 -15.515625 C 5.375 -15.171875 5.546875 -14.738281 5.546875 -14.21875 L 5.546875 -12.9375 L 5.09375 -13.015625 C 5.28125 -13.359375 5.539062 -13.722656 5.875 -14.109375 C 6.21875 -14.503906 6.617188 -14.867188 7.078125 -15.203125 C 7.535156 -15.546875 8.054688 -15.820312 8.640625 -16.03125 C 9.222656 -16.238281 9.851562 -16.34375 10.53125 -16.34375 Z M 10.53125 -16.34375 "/></g></g></g><g fill="#8f68ff" fill-opacity="1"><g transform="translate(659.296192, 85.700006)"><g><path d="M 6.59375 -0.09375 L 6.59375 -24 L 2.09375 -24 L 2.09375 -0.09375 Z M 6.59375 -0.09375 "/></g></g></g><g fill="#8f68ff" fill-opacity="1"><g transform="translate(667.992809, 85.700006)"><g><path d="M 12.453125 -24 C 14.492188 -24 16.128906 -23.59375 17.359375 -22.78125 C 18.585938 -21.96875 19.472656 -20.878906 20.015625 -19.515625 C 20.566406 -18.160156 20.84375 -16.65625 20.84375 -15 C 20.84375 -13.34375 20.582031 -11.828125 20.0625 -10.453125 C 19.550781 -9.085938 18.679688 -8 17.453125 -7.1875 C 16.234375 -6.375 14.566406 -5.96875 12.453125 -5.96875 L 6.59375 -5.96875 L 6.59375 0 L 2.09375 0 L 2.09375 -24 Z M 15.515625 -11.4375 C 16.066406 -12.113281 16.34375 -13.300781 16.34375 -15 C 16.34375 -16.625 16.054688 -17.804688 15.484375 -18.546875 C 15.421875 -18.617188 15.289062 -18.734375 15.09375 -18.890625 C 14.894531 -19.054688 14.585938 -19.203125 14.171875 -19.328125 C 13.765625 -19.460938 13.191406 -19.53125 12.453125 -19.53125 L 6.59375 -19.53125 L 6.59375 -10.46875 L 12.453125 -10.46875 C 13.992188 -10.46875 15.015625 -10.789062 15.515625 -11.4375 Z M 15.515625 -11.4375 "/></g></g></g><g fill="#8f68ff" fill-opacity="1"><g transform="translate(690.933898, 85.700006)"><g><path d="M 12.0625 0.296875 C 11.582031 0.296875 10.898438 0.242188 10.015625 0.140625 C 9.140625 0.046875 8.195312 -0.171875 7.1875 -0.515625 C 6.175781 -0.867188 5.210938 -1.414062 4.296875 -2.15625 C 3.429688 -2.875 2.695312 -3.675781 2.09375 -4.5625 L 5.765625 -7.046875 C 5.960938 -6.765625 6.164062 -6.503906 6.375 -6.265625 C 6.582031 -6.023438 6.816406 -5.804688 7.078125 -5.609375 C 7.578125 -5.191406 8.128906 -4.878906 8.734375 -4.671875 C 9.347656 -4.472656 9.929688 -4.332031 10.484375 -4.25 C 11.035156 -4.175781 11.488281 -4.140625 11.84375 -4.140625 C 12.207031 -4.140625 12.390625 -4.140625 12.390625 -4.140625 L 12.546875 -4.140625 C 13.785156 -4.140625 14.742188 -4.410156 15.421875 -4.953125 C 16.097656 -5.492188 16.457031 -6.082031 16.5 -6.71875 C 16.539062 -7.414062 16.175781 -8.113281 15.40625 -8.8125 C 14.632812 -9.519531 13.367188 -9.992188 11.609375 -10.234375 C 8.972656 -10.515625 6.875 -11.375 5.3125 -12.8125 C 4.53125 -13.53125 3.941406 -14.34375 3.546875 -15.25 C 3.160156 -16.164062 3.007812 -17.101562 3.09375 -18.0625 C 3.1875 -19.15625 3.59375 -20.195312 4.3125 -21.1875 C 5.039062 -22.1875 6.109375 -22.976562 7.515625 -23.5625 C 8.921875 -24.15625 10.6875 -24.390625 12.8125 -24.265625 C 13.769531 -24.265625 14.722656 -24.144531 15.671875 -23.90625 C 16.617188 -23.664062 17.503906 -23.351562 18.328125 -22.96875 C 19.148438 -22.59375 19.84375 -22.195312 20.40625 -21.78125 L 17.8125 -18.1875 C 17.457031 -18.457031 16.992188 -18.71875 16.421875 -18.96875 C 15.847656 -19.21875 15.242188 -19.425781 14.609375 -19.59375 C 13.972656 -19.769531 13.351562 -19.859375 12.75 -19.859375 L 12.65625 -19.859375 C 11.019531 -19.941406 9.757812 -19.75 8.875 -19.28125 C 8 -18.820312 7.539062 -18.296875 7.5 -17.703125 C 7.457031 -17.140625 7.660156 -16.640625 8.109375 -16.203125 C 8.566406 -15.773438 9.15625 -15.425781 9.875 -15.15625 C 10.59375 -14.894531 11.332031 -14.710938 12.09375 -14.609375 L 12.15625 -14.609375 C 14.269531 -14.347656 15.988281 -13.785156 17.3125 -12.921875 C 18.632812 -12.066406 19.582031 -11.054688 20.15625 -9.890625 C 20.738281 -8.734375 20.988281 -7.578125 20.90625 -6.421875 C 20.84375 -5.316406 20.476562 -4.25 19.8125 -3.21875 C 19.144531 -2.195312 18.207031 -1.359375 17 -0.703125 C 15.789062 -0.0546875 14.320312 0.273438 12.59375 0.296875 Z M 12.0625 0.296875 "/></g></g></g><g fill="#8f68ff" fill-opacity="1"><g transform="translate(713.934964, 85.700006)"><g><path d="M 12.0625 0.296875 C 11.582031 0.296875 10.898438 0.242188 10.015625 0.140625 C 9.140625 0.046875 8.195312 -0.171875 7.1875 -0.515625 C 6.175781 -0.867188 5.210938 -1.414062 4.296875 -2.15625 C 3.429688 -2.875 2.695312 -3.675781 2.09375 -4.5625 L 5.765625 -7.046875 C 5.960938 -6.765625 6.164062 -6.503906 6.375 -6.265625 C 6.582031 -6.023438 6.816406 -5.804688 7.078125 -5.609375 C 7.578125 -5.191406 8.128906 -4.878906 8.734375 -4.671875 C 9.347656 -4.472656 9.929688 -4.332031 10.484375 -4.25 C 11.035156 -4.175781 11.488281 -4.140625 11.84375 -4.140625 C 12.207031 -4.140625 12.390625 -4.140625 12.390625 -4.140625 L 12.546875 -4.140625 C 13.785156 -4.140625 14.742188 -4.410156 15.421875 -4.953125 C 16.097656 -5.492188 16.457031 -6.082031 16.5 -6.71875 C 16.539062 -7.414062 16.175781 -8.113281 15.40625 -8.8125 C 14.632812 -9.519531 13.367188 -9.992188 11.609375 -10.234375 C 8.972656 -10.515625 6.875 -11.375 5.3125 -12.8125 C 4.53125 -13.53125 3.941406 -14.34375 3.546875 -15.25 C 3.160156 -16.164062 3.007812 -17.101562 3.09375 -18.0625 C 3.1875 -19.15625 3.59375 -20.195312 4.3125 -21.1875 C 5.039062 -22.1875 6.109375 -22.976562 7.515625 -23.5625 C 8.921875 -24.15625 10.6875 -24.390625 12.8125 -24.265625 C 13.769531 -24.265625 14.722656 -24.144531 15.671875 -23.90625 C 16.617188 -23.664062 17.503906 -23.351562 18.328125 -22.96875 C 19.148438 -22.59375 19.84375 -22.195312 20.40625 -21.78125 L 17.8125 -18.1875 C 17.457031 -18.457031 16.992188 -18.71875 16.421875 -18.96875 C 15.847656 -19.21875 15.242188 -19.425781 14.609375 -19.59375 C 13.972656 -19.769531 13.351562 -19.859375 12.75 -19.859375 L 12.65625 -19.859375 C 11.019531 -19.941406 9.757812 -19.75 8.875 -19.28125 C 8 -18.820312 7.539062 -18.296875 7.5 -17.703125 C 7.457031 -17.140625 7.660156 -16.640625 8.109375 -16.203125 C 8.566406 -15.773438 9.15625 -15.425781 9.875 -15.15625 C 10.59375 -14.894531 11.332031 -14.710938 12.09375 -14.609375 L 12.15625 -14.609375 C 14.269531 -14.347656 15.988281 -13.785156 17.3125 -12.921875 C 18.632812 -12.066406 19.582031 -11.054688 20.15625 -9.890625 C 20.738281 -8.734375 20.988281 -7.578125 20.90625 -6.421875 C 20.84375 -5.316406 20.476562 -4.25 19.8125 -3.21875 C 19.144531 -2.195312 18.207031 -1.359375 17 -0.703125 C 15.789062 -0.0546875 14.320312 0.273438 12.59375 0.296875 Z M 12.0625 0.296875 "/></g></g></g><g fill="#8f68ff" fill-opacity="1"><g transform="translate(736.936031, 85.700006)"><g><path d="M 6.59375 -0.09375 L 6.59375 -24 L 2.09375 -24 L 2.09375 -0.09375 Z M 6.59375 -0.09375 "/></g></g></g><g fill="#8f68ff" fill-opacity="1"><g transform="translate(745.639937, 85.700006)"><g/></g></g></svg>