<svg xmlns="http://www.w3.org/2000/svg" xmlns:xlink="http://www.w3.org/1999/xlink" width="1080" zoomAndPan="magnify" viewBox="0 0 810 149.999998" height="200" preserveAspectRatio="xMidYMid meet" version="1.0"><defs><g/></defs><rect x="-81" width="972" fill="#ffffff" y="-15" height="179.999997" fill-opacity="1"/><rect x="-81" width="972" fill="#ffffff" y="-15" height="179.999997" fill-opacity="1"/><g fill="#8f68ff" fill-opacity="1"><g transform="translate(321.503308, 84.474957)"><g><path d="M 3.59375 -21 L 3.59375 0 L 17.15625 0 L 17.15625 -1.65625 L 6.328125 -1.65625 L 6.328125 -10.4375 L 15.625 -10.4375 L 15.625 -11.8125 L 6.328125 -11.8125 L 6.328125 -19.34375 L 17.15625 -19.34375 L 17.15625 -21 Z M 3.59375 -21 "/></g></g></g><g fill="#8f68ff" fill-opacity="1"><g transform="translate(339.556293, 84.474957)"><g><path d="M 1.109375 -5.3125 C 1.148438 -4.445312 1.375 -3.664062 1.78125 -2.96875 C 2.195312 -2.269531 2.757812 -1.675781 3.46875 -1.1875 C 4.175781 -0.695312 5.007812 -0.316406 5.96875 -0.046875 C 6.925781 0.222656 7.976562 0.359375 9.125 0.359375 C 10.28125 0.359375 11.320312 0.21875 12.25 -0.0625 C 13.1875 -0.34375 13.984375 -0.742188 14.640625 -1.265625 C 15.296875 -1.785156 15.800781 -2.414062 16.15625 -3.15625 C 16.519531 -3.894531 16.703125 -4.710938 16.703125 -5.609375 C 16.703125 -6.847656 16.390625 -7.863281 15.765625 -8.65625 C 15.148438 -9.445312 14.378906 -10.109375 13.453125 -10.640625 C 12.523438 -11.171875 11.515625 -11.613281 10.421875 -11.96875 C 9.335938 -12.332031 8.328125 -12.710938 7.390625 -13.109375 C 6.460938 -13.503906 5.6875 -13.960938 5.0625 -14.484375 C 4.445312 -15.003906 4.140625 -15.695312 4.140625 -16.5625 C 4.140625 -17.039062 4.242188 -17.488281 4.453125 -17.90625 C 4.660156 -18.332031 4.96875 -18.695312 5.375 -19 C 5.789062 -19.3125 6.296875 -19.5625 6.890625 -19.75 C 7.492188 -19.945312 8.1875 -20.046875 8.96875 -20.046875 C 10.269531 -20.046875 11.375 -19.769531 12.28125 -19.21875 C 13.195312 -18.664062 13.734375 -17.800781 13.890625 -16.625 L 15.9375 -16.625 C 15.8125 -17.363281 15.535156 -18.023438 15.109375 -18.609375 C 14.691406 -19.203125 14.160156 -19.703125 13.515625 -20.109375 C 12.878906 -20.523438 12.15625 -20.835938 11.34375 -21.046875 C 10.539062 -21.253906 9.695312 -21.359375 8.8125 -21.359375 C 7.894531 -21.359375 7.019531 -21.238281 6.1875 -21 C 5.363281 -20.757812 4.632812 -20.410156 4 -19.953125 C 3.375 -19.492188 2.875 -18.910156 2.5 -18.203125 C 2.132812 -17.503906 1.953125 -16.707031 1.953125 -15.8125 C 1.953125 -14.632812 2.25 -13.679688 2.84375 -12.953125 C 3.445312 -12.234375 4.203125 -11.632812 5.109375 -11.15625 C 6.023438 -10.675781 7.007812 -10.265625 8.0625 -9.921875 C 9.125 -9.585938 10.109375 -9.203125 11.015625 -8.765625 C 11.929688 -8.335938 12.6875 -7.8125 13.28125 -7.1875 C 13.882812 -6.570312 14.1875 -5.742188 14.1875 -4.703125 C 14.1875 -3.410156 13.710938 -2.460938 12.765625 -1.859375 C 11.816406 -1.253906 10.550781 -0.953125 8.96875 -0.953125 C 7.707031 -0.953125 6.695312 -1.117188 5.9375 -1.453125 C 5.175781 -1.785156 4.59375 -2.179688 4.1875 -2.640625 C 3.789062 -3.097656 3.523438 -3.570312 3.390625 -4.0625 C 3.253906 -4.550781 3.175781 -4.96875 3.15625 -5.3125 Z M 1.109375 -5.3125 "/></g></g></g><g fill="#8f68ff" fill-opacity="1"><g transform="translate(358.299013, 84.474957)"><g><path d="M 21.265625 -3.875 C 19.222656 -1.945312 16.804688 -0.984375 14.015625 -0.984375 C 12.453125 -0.984375 11.066406 -1.253906 9.859375 -1.796875 C 8.660156 -2.335938 7.660156 -3.054688 6.859375 -3.953125 C 6.066406 -4.859375 5.460938 -5.898438 5.046875 -7.078125 C 4.640625 -8.253906 4.4375 -9.484375 4.4375 -10.765625 C 4.4375 -12.128906 4.648438 -13.375 5.078125 -14.5 C 5.515625 -15.632812 6.117188 -16.609375 6.890625 -17.421875 C 7.671875 -18.242188 8.597656 -18.882812 9.671875 -19.34375 C 10.742188 -19.8125 11.910156 -20.046875 13.171875 -20.046875 C 14.023438 -20.046875 14.804688 -19.941406 15.515625 -19.734375 C 16.234375 -19.535156 16.863281 -19.273438 17.40625 -18.953125 C 17.957031 -18.640625 18.410156 -18.273438 18.765625 -17.859375 C 19.117188 -17.453125 19.363281 -17.039062 19.5 -16.625 L 21.71875 -16.625 C 21.414062 -17.300781 21.03125 -17.925781 20.5625 -18.5 C 20.09375 -19.082031 19.507812 -19.582031 18.8125 -20 C 18.113281 -20.425781 17.289062 -20.757812 16.34375 -21 C 15.40625 -21.238281 14.335938 -21.359375 13.140625 -21.359375 C 11.398438 -21.359375 9.8125 -21.109375 8.375 -20.609375 C 6.945312 -20.109375 5.722656 -19.390625 4.703125 -18.453125 C 3.691406 -17.523438 2.90625 -16.40625 2.34375 -15.09375 C 1.78125 -13.789062 1.5 -12.328125 1.5 -10.703125 C 1.5 -9.304688 1.722656 -7.941406 2.171875 -6.609375 C 2.617188 -5.285156 3.3125 -4.109375 4.25 -3.078125 C 5.195312 -2.046875 6.398438 -1.210938 7.859375 -0.578125 C 9.316406 0.046875 11.054688 0.359375 13.078125 0.359375 C 14.359375 0.359375 15.503906 0.238281 16.515625 0 C 17.523438 -0.238281 18.40625 -0.53125 19.15625 -0.875 C 19.90625 -1.226562 20.53125 -1.601562 21.03125 -2 C 21.53125 -2.40625 21.910156 -2.757812 22.171875 -3.0625 Z M 21.265625 -3.875 "/></g></g></g><g fill="#8f68ff" fill-opacity="1"><g transform="translate(381.060167, 84.474957)"><g><path d="M 3.59375 -21 L 3.59375 0 L 17.15625 0 L 17.15625 -1.65625 L 6.328125 -1.65625 L 6.328125 -10.4375 L 15.625 -10.4375 L 15.625 -11.8125 L 6.328125 -11.8125 L 6.328125 -19.34375 L 17.15625 -19.34375 L 17.15625 -21 Z M 3.59375 -21 "/></g></g></g><g fill="#8f68ff" fill-opacity="1"><g transform="translate(399.113152, 84.474957)"><g><path d="M 20.515625 -21 L 20.515625 -4.953125 L 20.40625 -4.953125 L 3.75 -21.359375 L 3.59375 -21.359375 L 3.59375 0 L 4.984375 0 L 4.984375 -16.046875 L 5.09375 -16.046875 L 21.75 0.359375 L 21.90625 0.359375 L 21.90625 -21 Z M 20.515625 -21 "/></g></g></g><g fill="#8f68ff" fill-opacity="1"><g transform="translate(56.834933, 84.474957)"><g><path d="M 18.453125 1.65625 L 11.765625 -16.109375 L 5.0625 1.65625 L 0.296875 -20.40625 L 2.453125 -20.40625 L 5.609375 -5.578125 L 11.765625 -21.59375 L 17.875 -5.578125 L 21.0625 -20.40625 L 23.1875 -20.40625 Z M 18.453125 1.65625 "/></g></g></g><g fill="#8f68ff" fill-opacity="1"><g transform="translate(80.315805, 84.474957)"><g><path d="M 15.15625 -6.90625 L 15.15625 -5.796875 L 3.546875 -5.796875 C 3.742188 -4.648438 4.289062 -3.71875 5.1875 -3 C 6.101562 -2.257812 7.125 -1.890625 8.25 -1.890625 C 9.007812 -1.890625 9.738281 -2.070312 10.4375 -2.4375 C 11.113281 -2.769531 11.6875 -3.25 12.15625 -3.875 L 14.546875 -3.875 C 13.984375 -2.613281 13.144531 -1.625 12.03125 -0.90625 C 10.882812 -0.164062 9.734375 0.203125 8.578125 0.203125 C 7.398438 0.203125 6.398438 0.0234375 5.578125 -0.328125 C 4.734375 -0.691406 4.003906 -1.179688 3.390625 -1.796875 C 2.023438 -3.117188 1.34375 -4.738281 1.34375 -6.65625 C 1.34375 -8.5625 2.023438 -10.191406 3.390625 -11.546875 C 4.734375 -12.890625 6.351562 -13.5625 8.25 -13.5625 C 10.09375 -13.5625 11.703125 -12.910156 13.078125 -11.609375 C 14.460938 -10.285156 15.15625 -8.71875 15.15625 -6.90625 Z M 12.9375 -7.59375 C 12.6875 -8.707031 12.125 -9.632812 11.25 -10.375 C 10.375 -11.09375 9.375 -11.453125 8.25 -11.453125 C 6.53125 -11.453125 5.179688 -10.6875 4.203125 -9.15625 C 3.898438 -8.675781 3.6875 -8.15625 3.5625 -7.59375 Z M 12.9375 -7.59375 "/></g></g></g><g fill="#8f68ff" fill-opacity="1"><g transform="translate(96.659454, 84.474957)"><g><path d="M 4.34375 0 L 2.25 0 L 2.25 -22.5 L 4.34375 -22.5 L 4.34375 -10.953125 C 4.46875 -11.109375 4.597656 -11.257812 4.734375 -11.40625 C 5.972656 -12.800781 7.503906 -13.5 9.328125 -13.5 C 11.148438 -13.5 12.691406 -12.800781 13.953125 -11.40625 C 15.148438 -10.039062 15.75 -8.4375 15.75 -6.59375 C 15.75 -4.757812 15.148438 -3.160156 13.953125 -1.796875 C 12.691406 -0.398438 11.148438 0.296875 9.328125 0.296875 C 7.503906 0.296875 5.972656 -0.398438 4.734375 -1.796875 C 4.597656 -1.941406 4.46875 -2.09375 4.34375 -2.25 Z M 13.65625 -6.59375 C 13.65625 -7.875 13.210938 -8.992188 12.328125 -9.953125 C 11.429688 -10.921875 10.320312 -11.40625 9 -11.40625 C 7.675781 -11.40625 6.578125 -10.921875 5.703125 -9.953125 C 4.796875 -8.992188 4.34375 -7.875 4.34375 -6.59375 C 4.34375 -5.320312 4.796875 -4.203125 5.703125 -3.234375 C 6.578125 -2.273438 7.675781 -1.796875 9 -1.796875 C 10.320312 -1.796875 11.429688 -2.273438 12.328125 -3.234375 C 13.210938 -4.203125 13.65625 -5.320312 13.65625 -6.59375 Z M 13.65625 -6.59375 "/></g></g></g><g fill="#8f68ff" fill-opacity="1"><g transform="translate(113.752807, 84.474957)"><g><path d="M 0.59375 -11.25 L 0.59375 -13.203125 L 3.90625 -13.203125 L 3.90625 -18.328125 L 6 -18.328125 L 6 -13.203125 L 9.265625 -13.203125 L 9.265625 -11.25 L 6 -11.25 L 6 0 L 3.90625 0 L 3.90625 -11.25 Z M 0.59375 -11.25 "/></g></g></g><g fill="#8f68ff" fill-opacity="1"><g transform="translate(123.618975, 84.474957)"><g><path d="M 15.15625 -6.90625 L 15.15625 -5.796875 L 3.546875 -5.796875 C 3.742188 -4.648438 4.289062 -3.71875 5.1875 -3 C 6.101562 -2.257812 7.125 -1.890625 8.25 -1.890625 C 9.007812 -1.890625 9.738281 -2.070312 10.4375 -2.4375 C 11.113281 -2.769531 11.6875 -3.25 12.15625 -3.875 L 14.546875 -3.875 C 13.984375 -2.613281 13.144531 -1.625 12.03125 -0.90625 C 10.882812 -0.164062 9.734375 0.203125 8.578125 0.203125 C 7.398438 0.203125 6.398438 0.0234375 5.578125 -0.328125 C 4.734375 -0.691406 4.003906 -1.179688 3.390625 -1.796875 C 2.023438 -3.117188 1.34375 -4.738281 1.34375 -6.65625 C 1.34375 -8.5625 2.023438 -10.191406 3.390625 -11.546875 C 4.734375 -12.890625 6.351562 -13.5625 8.25 -13.5625 C 10.09375 -13.5625 11.703125 -12.910156 13.078125 -11.609375 C 14.460938 -10.285156 15.15625 -8.71875 15.15625 -6.90625 Z M 12.9375 -7.59375 C 12.6875 -8.707031 12.125 -9.632812 11.25 -10.375 C 10.375 -11.09375 9.375 -11.453125 8.25 -11.453125 C 6.53125 -11.453125 5.179688 -10.6875 4.203125 -9.15625 C 3.898438 -8.675781 3.6875 -8.15625 3.5625 -7.59375 Z M 12.9375 -7.59375 "/></g></g></g><g fill="#8f68ff" fill-opacity="1"><g transform="translate(139.962625, 84.474957)"><g><path d="M 14.578125 -8.453125 L 12.296875 -8.453125 C 11.941406 -9.296875 11.382812 -9.976562 10.625 -10.5 C 9.863281 -11.019531 9.09375 -11.28125 8.3125 -11.28125 C 7.53125 -11.28125 6.859375 -11.160156 6.296875 -10.921875 C 5.734375 -10.660156 5.253906 -10.320312 4.859375 -9.90625 C 3.960938 -8.957031 3.515625 -7.851562 3.515625 -6.59375 C 3.515625 -5.320312 3.960938 -4.222656 4.859375 -3.296875 C 5.742188 -2.359375 6.820312 -1.890625 8.09375 -1.890625 C 8.9375 -1.890625 9.71875 -2.109375 10.4375 -2.546875 C 11.132812 -2.984375 11.6875 -3.570312 12.09375 -4.3125 L 14.453125 -4.3125 C 13.710938 -2.195312 12.285156 -0.78125 10.171875 -0.0625 C 9.515625 0.175781 8.765625 0.296875 7.921875 0.296875 C 7.078125 0.296875 6.25 0.109375 5.4375 -0.265625 C 4.613281 -0.628906 3.898438 -1.128906 3.296875 -1.765625 C 1.992188 -3.128906 1.34375 -4.738281 1.34375 -6.59375 C 1.34375 -8.476562 1.992188 -10.09375 3.296875 -11.4375 C 4.617188 -12.789062 6.21875 -13.46875 8.09375 -13.46875 C 9.613281 -13.46875 10.984375 -13 12.203125 -12.0625 C 13.367188 -11.15625 14.160156 -9.953125 14.578125 -8.453125 Z M 14.578125 -8.453125 "/></g></g></g><g fill="#8f68ff" fill-opacity="1"><g transform="translate(155.586556, 84.474957)"><g><path d="M 4.34375 0 L 2.25 0 L 2.25 -22.5 L 4.34375 -22.5 L 4.34375 -10.921875 C 4.789062 -11.660156 5.351562 -12.269531 6.03125 -12.75 C 6.75 -13.226562 7.578125 -13.46875 8.515625 -13.46875 C 9.460938 -13.46875 10.222656 -13.335938 10.796875 -13.078125 C 11.378906 -12.796875 11.867188 -12.425781 12.265625 -11.96875 C 13.066406 -11.03125 13.46875 -9.789062 13.46875 -8.25 L 13.46875 0 L 11.375 0 L 11.375 -8.25 C 11.375 -9.113281 11.179688 -9.851562 10.796875 -10.46875 C 10.398438 -11.070312 9.75 -11.375 8.84375 -11.375 C 7.945312 -11.375 7.21875 -11.234375 6.65625 -10.953125 C 6.09375 -10.648438 5.644531 -10.238281 5.3125 -9.71875 C 4.664062 -8.757812 4.34375 -7.359375 4.34375 -5.515625 Z M 4.34375 0 "/></g></g></g><g fill="#8f68ff" fill-opacity="1"><g transform="translate(170.850628, 84.474957)"><g/></g></g><g fill="#8f68ff" fill-opacity="1"><g transform="translate(178.947482, 84.474957)"><g><path d="M 4.34375 0 L 2.25 0 L 2.25 -20.40625 L 4.34375 -20.40625 Z M 4.34375 0 "/></g></g></g><g fill="#8f68ff" fill-opacity="1"><g transform="translate(185.544921, 84.474957)"><g><path d="M 11.375 0 L 11.375 -8.25 C 11.375 -9.113281 11.179688 -9.851562 10.796875 -10.46875 C 10.398438 -11.070312 9.75 -11.375 8.84375 -11.375 C 7.945312 -11.375 7.21875 -11.203125 6.65625 -10.859375 C 6.09375 -10.515625 5.644531 -10.078125 5.3125 -9.546875 C 4.664062 -8.546875 4.34375 -7.203125 4.34375 -5.515625 L 4.34375 0 L 2.25 0 L 2.25 -13.203125 L 4.34375 -13.203125 L 4.34375 -10.921875 C 4.789062 -11.660156 5.351562 -12.269531 6.03125 -12.75 C 6.75 -13.226562 7.578125 -13.46875 8.515625 -13.46875 C 9.460938 -13.46875 10.222656 -13.335938 10.796875 -13.078125 C 11.378906 -12.796875 11.867188 -12.425781 12.265625 -11.96875 C 13.066406 -11.03125 13.46875 -9.789062 13.46875 -8.25 L 13.46875 0 Z M 11.375 0 "/></g></g></g><g fill="#8f68ff" fill-opacity="1"><g transform="translate(200.808993, 84.474957)"><g><path d="M 4.171875 -1.890625 C 4.691406 -1.523438 5.367188 -1.34375 6.203125 -1.34375 C 8.128906 -1.34375 9.09375 -2.066406 9.09375 -3.515625 C 9.09375 -4.347656 8.398438 -4.988281 7.015625 -5.4375 C 6.441406 -5.632812 5.820312 -5.8125 5.15625 -5.96875 C 4.476562 -6.125 3.847656 -6.332031 3.265625 -6.59375 C 2.585938 -6.914062 2.078125 -7.316406 1.734375 -7.796875 C 1.398438 -8.273438 1.234375 -8.847656 1.234375 -9.515625 C 1.234375 -10.828125 1.691406 -11.816406 2.609375 -12.484375 C 3.523438 -13.160156 4.625 -13.5 5.90625 -13.5 C 7.1875 -13.5 8.25 -13.238281 9.09375 -12.71875 C 9.925781 -12.195312 10.492188 -11.269531 10.796875 -9.9375 L 8.546875 -9.9375 C 8.304688 -10.675781 7.957031 -11.164062 7.5 -11.40625 C 7.0625 -11.644531 6.507812 -11.765625 5.84375 -11.765625 C 5.1875 -11.765625 4.628906 -11.625 4.171875 -11.34375 C 3.691406 -11.039062 3.453125 -10.597656 3.453125 -10.015625 C 3.453125 -9.421875 3.648438 -8.984375 4.046875 -8.703125 C 4.429688 -8.441406 4.910156 -8.210938 5.484375 -8.015625 C 6.066406 -7.828125 6.695312 -7.664062 7.375 -7.53125 C 8.039062 -7.375 8.671875 -7.15625 9.265625 -6.875 C 10.628906 -6.226562 11.3125 -5.195312 11.3125 -3.78125 C 11.3125 -2.363281 10.800781 -1.3125 9.78125 -0.625 C 9.257812 -0.289062 8.6875 -0.03125 8.0625 0.15625 C 7.46875 0.3125 6.8125 0.390625 6.09375 0.390625 C 3.03125 0.390625 1.269531 -0.96875 0.8125 -3.6875 L 3.03125 -3.6875 C 3.25 -2.832031 3.628906 -2.234375 4.171875 -1.890625 Z M 4.171875 -1.890625 "/></g></g></g><g fill="#8f68ff" fill-opacity="1"><g transform="translate(212.864313, 84.474957)"><g><path d="M 0.59375 -11.25 L 0.59375 -13.203125 L 3.90625 -13.203125 L 3.90625 -18.328125 L 6 -18.328125 L 6 -13.203125 L 9.265625 -13.203125 L 9.265625 -11.25 L 6 -11.25 L 6 0 L 3.90625 0 L 3.90625 -11.25 Z M 0.59375 -11.25 "/></g></g></g><g fill="#8f68ff" fill-opacity="1"><g transform="translate(222.730481, 84.474957)"><g><path d="M 4.375 -17.765625 C 4.632812 -17.503906 4.765625 -17.191406 4.765625 -16.828125 C 4.765625 -16.453125 4.632812 -16.132812 4.375 -15.875 C 4.113281 -15.613281 3.804688 -15.484375 3.453125 -15.484375 C 3.066406 -15.484375 2.742188 -15.613281 2.484375 -15.875 C 2.222656 -16.132812 2.09375 -16.453125 2.09375 -16.828125 C 2.09375 -17.191406 2.222656 -17.503906 2.484375 -17.765625 C 2.742188 -18.023438 3.066406 -18.15625 3.453125 -18.15625 C 3.804688 -18.15625 4.113281 -18.023438 4.375 -17.765625 Z M 4.5 0 L 2.40625 0 L 2.40625 -13.203125 L 4.5 -13.203125 Z M 4.5 0 "/></g></g></g><g fill="#8f68ff" fill-opacity="1"><g transform="translate(229.597817, 84.474957)"><g><path d="M 0.59375 -11.25 L 0.59375 -13.203125 L 3.90625 -13.203125 L 3.90625 -18.328125 L 6 -18.328125 L 6 -13.203125 L 9.265625 -13.203125 L 9.265625 -11.25 L 6 -11.25 L 6 0 L 3.90625 0 L 3.90625 -11.25 Z M 0.59375 -11.25 "/></g></g></g><g fill="#8f68ff" fill-opacity="1"><g transform="translate(239.463985, 84.474957)"><g><path d="M 11.375 -2.25 C 10.394531 -0.570312 8.921875 0.265625 6.953125 0.265625 C 5.472656 0.265625 4.316406 -0.222656 3.484375 -1.203125 C 2.660156 -2.179688 2.25 -3.429688 2.25 -4.953125 L 2.25 -13.203125 L 4.34375 -13.203125 L 4.34375 -4.953125 C 4.34375 -4.085938 4.546875 -3.359375 4.953125 -2.765625 C 5.328125 -2.140625 5.96875 -1.828125 6.875 -1.828125 C 8.507812 -1.828125 9.664062 -2.347656 10.34375 -3.390625 C 11.03125 -4.410156 11.375 -5.84375 11.375 -7.6875 L 11.375 -13.203125 L 13.46875 -13.203125 L 13.46875 0 L 11.375 0 Z M 11.375 -2.25 "/></g></g></g><g fill="#8f68ff" fill-opacity="1"><g transform="translate(254.728057, 84.474957)"><g><path d="M 0.59375 -11.25 L 0.59375 -13.203125 L 3.90625 -13.203125 L 3.90625 -18.328125 L 6 -18.328125 L 6 -13.203125 L 9.265625 -13.203125 L 9.265625 -11.25 L 6 -11.25 L 6 0 L 3.90625 0 L 3.90625 -11.25 Z M 0.59375 -11.25 "/></g></g></g><g fill="#8f68ff" fill-opacity="1"><g transform="translate(264.594214, 84.474957)"><g><path d="M 15.15625 -6.90625 L 15.15625 -5.796875 L 3.546875 -5.796875 C 3.742188 -4.648438 4.289062 -3.71875 5.1875 -3 C 6.101562 -2.257812 7.125 -1.890625 8.25 -1.890625 C 9.007812 -1.890625 9.738281 -2.070312 10.4375 -2.4375 C 11.113281 -2.769531 11.6875 -3.25 12.15625 -3.875 L 14.546875 -3.875 C 13.984375 -2.613281 13.144531 -1.625 12.03125 -0.90625 C 10.882812 -0.164062 9.734375 0.203125 8.578125 0.203125 C 7.398438 0.203125 6.398438 0.0234375 5.578125 -0.328125 C 4.734375 -0.691406 4.003906 -1.179688 3.390625 -1.796875 C 2.023438 -3.117188 1.34375 -4.738281 1.34375 -6.65625 C 1.34375 -8.5625 2.023438 -10.191406 3.390625 -11.546875 C 4.734375 -12.890625 6.351562 -13.5625 8.25 -13.5625 C 10.09375 -13.5625 11.703125 -12.910156 13.078125 -11.609375 C 14.460938 -10.285156 15.15625 -8.71875 15.15625 -6.90625 Z M 12.9375 -7.59375 C 12.6875 -8.707031 12.125 -9.632812 11.25 -10.375 C 10.375 -11.09375 9.375 -11.453125 8.25 -11.453125 C 6.53125 -11.453125 5.179688 -10.6875 4.203125 -9.15625 C 3.898438 -8.675781 3.6875 -8.15625 3.5625 -7.59375 Z M 12.9375 -7.59375 "/></g></g></g><g fill="#8f68ff" fill-opacity="1"><g transform="translate(470.004706, 86.624997)"><g><path d="M 16.671875 -22.34375 L 15.96875 -18.34375 L 10.828125 -18.34375 L 10.828125 0 L 5.375 0 L 5.375 -18.34375 L 0.0625 -18.34375 L 0.0625 -22.34375 Z M 16.671875 -22.34375 "/></g></g></g><g fill="#8f68ff" fill-opacity="1"><g transform="translate(486.729776, 86.624997)"><g><path d="M 10.125 -11.8125 C 9.882812 -11.8125 9.617188 -11.742188 9.328125 -11.609375 C 9.046875 -11.484375 8.773438 -11.28125 8.515625 -11 C 8.253906 -10.726562 8.035156 -10.378906 7.859375 -9.953125 C 7.679688 -9.523438 7.59375 -9.015625 7.59375 -8.421875 L 7.59375 0 L 2.375 0 L 2.375 -8.578125 C 2.375 -9.898438 2.28125 -10.992188 2.09375 -11.859375 C 1.90625 -12.734375 1.691406 -13.441406 1.453125 -13.984375 C 1.191406 -14.609375 0.894531 -15.109375 0.5625 -15.484375 L 4.75 -16.796875 C 4.925781 -16.578125 5.113281 -16.320312 5.3125 -16.03125 C 5.46875 -15.789062 5.632812 -15.484375 5.8125 -15.109375 C 5.988281 -14.734375 6.128906 -14.304688 6.234375 -13.828125 C 6.785156 -14.878906 7.441406 -15.632812 8.203125 -16.09375 C 8.960938 -16.5625 9.859375 -16.796875 10.890625 -16.796875 C 11.347656 -16.796875 11.757812 -16.753906 12.125 -16.671875 C 12.488281 -16.597656 12.789062 -16.519531 13.03125 -16.4375 L 11.6875 -11.453125 C 11.53125 -11.535156 11.320312 -11.613281 11.0625 -11.6875 C 10.8125 -11.769531 10.5 -11.8125 10.125 -11.8125 Z M 10.125 -11.8125 "/></g></g></g><g fill="#8f68ff" fill-opacity="1"><g transform="translate(499.859124, 86.624997)"><g><path d="M 5.90625 0.125 C 4.65625 0.125 3.644531 -0.195312 2.875 -0.84375 C 2.101562 -1.488281 1.71875 -2.40625 1.71875 -3.59375 L 1.71875 -16.5625 L 6.9375 -16.5625 L 6.9375 -5.078125 C 6.9375 -4.578125 7.007812 -4.238281 7.15625 -4.0625 C 7.3125 -3.882812 7.546875 -3.796875 7.859375 -3.796875 C 8.035156 -3.796875 8.207031 -3.8125 8.375 -3.84375 C 8.550781 -3.875 8.664062 -3.898438 8.71875 -3.921875 L 9.171875 -0.65625 C 9.148438 -0.632812 9.050781 -0.582031 8.875 -0.5 C 8.695312 -0.425781 8.460938 -0.335938 8.171875 -0.234375 C 7.890625 -0.140625 7.550781 -0.0546875 7.15625 0.015625 C 6.757812 0.0859375 6.34375 0.125 5.90625 0.125 Z M 4.390625 -24.515625 C 5.316406 -24.515625 6.019531 -24.238281 6.5 -23.6875 C 6.988281 -23.144531 7.234375 -22.453125 7.234375 -21.609375 C 7.234375 -20.753906 6.984375 -20.039062 6.484375 -19.46875 C 5.984375 -18.894531 5.238281 -18.609375 4.25 -18.609375 C 3.332031 -18.609375 2.625 -18.890625 2.125 -19.453125 C 1.632812 -20.015625 1.390625 -20.679688 1.390625 -21.453125 C 1.390625 -22.328125 1.640625 -23.054688 2.140625 -23.640625 C 2.648438 -24.222656 3.398438 -24.515625 4.390625 -24.515625 Z M 4.390625 -24.515625 "/></g></g></g><g fill="#8f68ff" fill-opacity="1"><g transform="translate(509.260788, 86.624997)"><g><path d="M 19.375 0 L 19.375 -10.296875 C 19.375 -11.066406 19.304688 -11.6875 19.171875 -12.15625 C 19.035156 -12.632812 18.738281 -12.875 18.28125 -12.875 C 17.75 -12.875 17.253906 -12.492188 16.796875 -11.734375 C 16.335938 -10.972656 16.109375 -9.96875 16.109375 -8.71875 L 16.109375 0 L 10.859375 0 L 10.859375 -10.296875 C 10.859375 -11.066406 10.796875 -11.6875 10.671875 -12.15625 C 10.554688 -12.632812 10.253906 -12.875 9.765625 -12.875 C 9.210938 -12.875 8.710938 -12.484375 8.265625 -11.703125 C 7.816406 -10.921875 7.59375 -9.867188 7.59375 -8.546875 L 7.59375 0 L 2.375 0 L 2.375 -8.578125 C 2.375 -9.898438 2.28125 -10.992188 2.09375 -11.859375 C 1.90625 -12.734375 1.691406 -13.441406 1.453125 -13.984375 C 1.191406 -14.609375 0.894531 -15.109375 0.5625 -15.484375 L 4.75 -16.796875 C 4.925781 -16.578125 5.113281 -16.320312 5.3125 -16.03125 C 5.488281 -15.789062 5.660156 -15.476562 5.828125 -15.09375 C 5.992188 -14.707031 6.140625 -14.273438 6.265625 -13.796875 C 6.796875 -14.828125 7.523438 -15.582031 8.453125 -16.0625 C 9.390625 -16.550781 10.429688 -16.796875 11.578125 -16.796875 C 12.546875 -16.796875 13.332031 -16.601562 13.9375 -16.21875 C 14.539062 -15.832031 15.03125 -15.273438 15.40625 -14.546875 C 15.976562 -15.335938 16.660156 -15.910156 17.453125 -16.265625 C 18.242188 -16.617188 19.125 -16.796875 20.09375 -16.796875 C 20.957031 -16.796875 21.671875 -16.65625 22.234375 -16.375 C 22.804688 -16.101562 23.265625 -15.71875 23.609375 -15.21875 C 23.953125 -14.726562 24.195312 -14.125 24.34375 -13.40625 C 24.5 -12.695312 24.578125 -11.914062 24.578125 -11.0625 L 24.578125 0 Z M 19.375 0 "/></g></g></g><g fill="#8f68ff" fill-opacity="1"><g transform="translate(535.58546, 86.624997)"><g><path d="M 15.734375 -7.953125 C 15.734375 -6.628906 15.820312 -5.523438 16 -4.640625 C 16.175781 -3.765625 16.382812 -3.066406 16.625 -2.546875 C 16.894531 -1.898438 17.207031 -1.40625 17.5625 -1.0625 L 13.359375 0.265625 C 13.117188 0.046875 12.898438 -0.226562 12.703125 -0.5625 C 12.523438 -0.84375 12.351562 -1.1875 12.1875 -1.59375 C 12.03125 -2.007812 11.894531 -2.488281 11.78125 -3.03125 C 11.40625 -2 10.851562 -1.203125 10.125 -0.640625 C 9.40625 -0.078125 8.453125 0.203125 7.265625 0.203125 C 6.179688 0.203125 5.238281 0.00390625 4.4375 -0.390625 C 3.632812 -0.785156 2.96875 -1.34375 2.4375 -2.0625 C 1.914062 -2.78125 1.523438 -3.644531 1.265625 -4.65625 C 1.015625 -5.664062 0.890625 -6.785156 0.890625 -8.015625 C 0.890625 -9.273438 1.09375 -10.441406 1.5 -11.515625 C 1.90625 -12.597656 2.472656 -13.53125 3.203125 -14.3125 C 3.929688 -15.09375 4.800781 -15.703125 5.8125 -16.140625 C 6.820312 -16.578125 7.941406 -16.796875 9.171875 -16.796875 C 9.859375 -16.796875 10.582031 -16.742188 11.34375 -16.640625 C 12.113281 -16.546875 12.816406 -16.4375 13.453125 -16.3125 C 14.097656 -16.195312 14.632812 -16.085938 15.0625 -15.984375 C 15.488281 -15.890625 15.710938 -15.84375 15.734375 -15.84375 Z M 8.125 -3.625 C 8.445312 -3.625 8.753906 -3.765625 9.046875 -4.046875 C 9.347656 -4.335938 9.609375 -4.722656 9.828125 -5.203125 C 10.046875 -5.691406 10.21875 -6.25 10.34375 -6.875 C 10.46875 -7.507812 10.53125 -8.175781 10.53125 -8.875 L 10.53125 -12.703125 C 10.375 -12.765625 10.15625 -12.820312 9.875 -12.875 C 9.601562 -12.9375 9.367188 -12.96875 9.171875 -12.96875 C 8.640625 -12.96875 8.195312 -12.851562 7.84375 -12.625 C 7.5 -12.394531 7.222656 -12.078125 7.015625 -11.671875 C 6.804688 -11.265625 6.65625 -10.773438 6.5625 -10.203125 C 6.476562 -9.628906 6.4375 -9.007812 6.4375 -8.34375 C 6.4375 -7.726562 6.445312 -7.140625 6.46875 -6.578125 C 6.488281 -6.015625 6.554688 -5.515625 6.671875 -5.078125 C 6.796875 -4.640625 6.96875 -4.285156 7.1875 -4.015625 C 7.414062 -3.753906 7.726562 -3.625 8.125 -3.625 Z M 8.125 -3.625 "/></g></g></g><g fill="#8f68ff" fill-opacity="1"><g transform="translate(553.531099, 86.624997)"><g><path d="M 11.421875 0 L 11.421875 -10.296875 C 11.421875 -11.066406 11.328125 -11.6875 11.140625 -12.15625 C 10.953125 -12.632812 10.601562 -12.875 10.09375 -12.875 C 9.476562 -12.875 8.90625 -12.472656 8.375 -11.671875 C 7.851562 -10.867188 7.59375 -9.738281 7.59375 -8.28125 L 7.59375 0 L 2.375 0 L 2.375 -8.578125 C 2.375 -9.898438 2.28125 -10.992188 2.09375 -11.859375 C 1.90625 -12.734375 1.691406 -13.441406 1.453125 -13.984375 C 1.191406 -14.609375 0.894531 -15.109375 0.5625 -15.484375 L 4.75 -16.796875 C 4.945312 -16.578125 5.144531 -16.320312 5.34375 -16.03125 C 5.519531 -15.789062 5.691406 -15.476562 5.859375 -15.09375 C 6.023438 -14.707031 6.160156 -14.273438 6.265625 -13.796875 C 6.835938 -14.828125 7.625 -15.582031 8.625 -16.0625 C 9.625 -16.550781 10.71875 -16.796875 11.90625 -16.796875 C 13.625 -16.796875 14.847656 -16.269531 15.578125 -15.21875 C 16.304688 -14.175781 16.671875 -12.789062 16.671875 -11.0625 L 16.671875 0 Z M 11.421875 0 "/></g></g></g><g fill="#8f68ff" fill-opacity="1"><g transform="translate(571.905583, 86.624997)"><g><path d="M 0.890625 -7.828125 C 0.890625 -9.296875 1.101562 -10.597656 1.53125 -11.734375 C 1.957031 -12.867188 2.550781 -13.8125 3.3125 -14.5625 C 4.070312 -15.320312 4.957031 -15.898438 5.96875 -16.296875 C 6.976562 -16.691406 8.078125 -16.890625 9.265625 -16.890625 C 10.304688 -16.890625 11.1875 -16.765625 11.90625 -16.515625 C 12.632812 -16.265625 13.226562 -15.910156 13.6875 -15.453125 C 14.15625 -15.003906 14.5 -14.476562 14.71875 -13.875 C 14.9375 -13.269531 15.046875 -12.613281 15.046875 -11.90625 C 15.046875 -11.113281 14.847656 -10.363281 14.453125 -9.65625 C 14.054688 -8.957031 13.488281 -8.335938 12.75 -7.796875 C 12.019531 -7.265625 11.128906 -6.820312 10.078125 -6.46875 C 9.035156 -6.113281 7.851562 -5.882812 6.53125 -5.78125 C 6.6875 -5.113281 6.96875 -4.578125 7.375 -4.171875 C 7.78125 -3.765625 8.398438 -3.5625 9.234375 -3.5625 C 9.722656 -3.5625 10.238281 -3.613281 10.78125 -3.71875 C 11.332031 -3.832031 11.84375 -3.957031 12.3125 -4.09375 C 12.863281 -4.25 13.398438 -4.425781 13.921875 -4.625 L 14.921875 -1.1875 C 14.328125 -0.90625 13.675781 -0.648438 12.96875 -0.421875 C 12.375 -0.253906 11.6875 -0.09375 10.90625 0.0625 C 10.125 0.21875 9.296875 0.296875 8.421875 0.296875 C 7.078125 0.296875 5.925781 0.0976562 4.96875 -0.296875 C 4.007812 -0.691406 3.226562 -1.238281 2.625 -1.9375 C 2.019531 -2.644531 1.578125 -3.5 1.296875 -4.5 C 1.023438 -5.5 0.890625 -6.609375 0.890625 -7.828125 Z M 8.609375 -13.171875 C 8.191406 -13.171875 7.832031 -13.046875 7.53125 -12.796875 C 7.238281 -12.554688 7.003906 -12.238281 6.828125 -11.84375 C 6.648438 -11.445312 6.515625 -11.003906 6.421875 -10.515625 C 6.335938 -10.035156 6.285156 -9.566406 6.265625 -9.109375 C 6.929688 -9.128906 7.488281 -9.226562 7.9375 -9.40625 C 8.382812 -9.582031 8.75 -9.800781 9.03125 -10.0625 C 9.320312 -10.332031 9.53125 -10.617188 9.65625 -10.921875 C 9.789062 -11.234375 9.859375 -11.519531 9.859375 -11.78125 C 9.859375 -12.195312 9.742188 -12.53125 9.515625 -12.78125 C 9.285156 -13.039062 8.984375 -13.171875 8.609375 -13.171875 Z M 8.609375 -13.171875 "/></g></g></g><g fill="#8f68ff" fill-opacity="1"><g transform="translate(633.095946, 85.874997)"><g><path d="M 20.515625 0.09375 L 20.515625 -4.65625 C 20.117188 -3.832031 19.625 -3.113281 19.03125 -2.5 C 18.4375 -1.894531 17.773438 -1.394531 17.046875 -1 C 16.316406 -0.601562 15.535156 -0.304688 14.703125 -0.109375 C 13.878906 0.0859375 13.039062 0.1875 12.1875 0.1875 C 10.644531 0.1875 9.222656 -0.0664062 7.921875 -0.578125 C 6.617188 -1.097656 5.4375 -1.921875 4.375 -3.046875 C 3.320312 -4.171875 2.515625 -5.503906 1.953125 -7.046875 C 1.398438 -8.585938 1.125 -10.195312 1.125 -11.875 C 1.125 -13.5625 1.398438 -15.15625 1.953125 -16.65625 C 2.515625 -18.15625 3.296875 -19.460938 4.296875 -20.578125 C 5.304688 -21.691406 6.503906 -22.566406 7.890625 -23.203125 C 9.285156 -23.835938 10.796875 -24.15625 12.421875 -24.15625 C 13.921875 -24.15625 15.207031 -23.941406 16.28125 -23.515625 C 17.363281 -23.085938 18.285156 -22.566406 19.046875 -21.953125 C 19.816406 -21.347656 20.429688 -20.769531 20.890625 -20.21875 L 22.40625 -20.21875 L 22.40625 -17.4375 L 19.046875 -17.4375 C 18.347656 -18.625 17.421875 -19.5625 16.265625 -20.25 C 15.117188 -20.9375 13.832031 -21.269531 12.40625 -21.25 C 11.207031 -21.25 10.109375 -20.992188 9.109375 -20.484375 C 8.109375 -19.972656 7.25 -19.285156 6.53125 -18.421875 C 5.820312 -17.554688 5.269531 -16.5625 4.875 -15.4375 C 4.476562 -14.3125 4.28125 -13.125 4.28125 -11.875 C 4.28125 -10.488281 4.5 -9.203125 4.9375 -8.015625 C 5.375 -6.828125 5.929688 -5.863281 6.609375 -5.125 C 7.285156 -4.382812 8.117188 -3.769531 9.109375 -3.28125 C 10.109375 -2.800781 11.210938 -2.5625 12.421875 -2.5625 C 14.421875 -2.5625 16.0625 -3.046875 17.34375 -4.015625 C 18.625 -4.992188 19.519531 -6.515625 20.03125 -8.578125 L 13.40625 -8.578125 L 13.40625 -11.265625 L 23.421875 -11.265625 L 23.421875 0.09375 Z M 20.515625 0.09375 "/></g></g></g><g fill="#8f68ff" fill-opacity="1"><g transform="translate(659.386399, 85.874997)"><g><path d="M 4.3125 -7.71875 C 4.3125 -7.257812 4.34375 -6.835938 4.40625 -6.453125 C 4.476562 -6.078125 4.578125 -5.71875 4.703125 -5.375 C 5.085938 -4.332031 5.703125 -3.546875 6.546875 -3.015625 C 7.398438 -2.492188 8.363281 -2.234375 9.4375 -2.234375 C 10.28125 -2.234375 11.097656 -2.347656 11.890625 -2.578125 C 12.691406 -2.816406 13.53125 -3.1875 14.40625 -3.6875 L 15.578125 -1.703125 C 14.515625 -0.972656 13.445312 -0.429688 12.375 -0.078125 C 11.300781 0.273438 10.1875 0.453125 9.03125 0.453125 C 7.9375 0.453125 6.921875 0.269531 5.984375 -0.09375 C 5.054688 -0.457031 4.253906 -1 3.578125 -1.71875 C 2.910156 -2.4375 2.382812 -3.332031 2 -4.40625 C 1.625 -5.476562 1.4375 -6.726562 1.4375 -8.15625 C 1.4375 -9.3125 1.597656 -10.398438 1.921875 -11.421875 C 2.242188 -12.453125 2.722656 -13.347656 3.359375 -14.109375 C 4.003906 -14.878906 4.800781 -15.488281 5.75 -15.9375 C 6.695312 -16.382812 7.800781 -16.609375 9.0625 -16.609375 C 10.28125 -16.609375 11.296875 -16.421875 12.109375 -16.046875 C 12.929688 -15.679688 13.597656 -15.191406 14.109375 -14.578125 C 14.628906 -13.972656 15.019531 -13.28125 15.28125 -12.5 C 15.550781 -11.71875 15.738281 -10.921875 15.84375 -10.109375 C 15.894531 -9.710938 15.925781 -9.3125 15.9375 -8.90625 C 15.957031 -8.5 15.96875 -8.101562 15.96875 -7.71875 Z M 8.859375 -14.171875 C 8.179688 -14.171875 7.585938 -14.070312 7.078125 -13.875 C 6.578125 -13.6875 6.148438 -13.410156 5.796875 -13.046875 C 5.441406 -12.691406 5.15625 -12.253906 4.9375 -11.734375 C 4.726562 -11.210938 4.570312 -10.628906 4.46875 -9.984375 L 12.859375 -9.984375 C 12.816406 -10.585938 12.71875 -11.144531 12.5625 -11.65625 C 12.414062 -12.164062 12.1875 -12.609375 11.875 -12.984375 C 11.5625 -13.359375 11.160156 -13.648438 10.671875 -13.859375 C 10.179688 -14.066406 9.578125 -14.171875 8.859375 -14.171875 Z M 8.859375 -14.171875 "/></g></g></g><g fill="#8f68ff" fill-opacity="1"><g transform="translate(677.741291, 85.874997)"><g><path d="M 1.34375 -8.09375 C 1.351562 -9.375 1.554688 -10.539062 1.953125 -11.59375 C 2.359375 -12.644531 2.921875 -13.546875 3.640625 -14.296875 C 4.359375 -15.054688 5.210938 -15.640625 6.203125 -16.046875 C 7.191406 -16.453125 8.28125 -16.65625 9.46875 -16.65625 C 10.664062 -16.65625 11.757812 -16.453125 12.75 -16.046875 C 13.75 -15.640625 14.601562 -15.0625 15.3125 -14.3125 C 16.019531 -13.570312 16.570312 -12.675781 16.96875 -11.625 C 17.363281 -10.570312 17.5625 -9.40625 17.5625 -8.125 C 17.5625 -6.863281 17.363281 -5.703125 16.96875 -4.640625 C 16.570312 -3.585938 16.019531 -2.679688 15.3125 -1.921875 C 14.601562 -1.160156 13.75 -0.566406 12.75 -0.140625 C 11.757812 0.273438 10.664062 0.484375 9.46875 0.484375 C 8.25 0.484375 7.144531 0.273438 6.15625 -0.140625 C 5.164062 -0.554688 4.316406 -1.140625 3.609375 -1.890625 C 2.898438 -2.648438 2.347656 -3.554688 1.953125 -4.609375 C 1.554688 -5.660156 1.351562 -6.820312 1.34375 -8.09375 Z M 4.421875 -8.09375 C 4.421875 -7.164062 4.550781 -6.328125 4.8125 -5.578125 C 5.082031 -4.828125 5.445312 -4.1875 5.90625 -3.65625 C 6.375 -3.132812 6.910156 -2.726562 7.515625 -2.4375 C 8.128906 -2.15625 8.78125 -2.015625 9.46875 -2.015625 C 10.1875 -2.015625 10.851562 -2.15625 11.46875 -2.4375 C 12.09375 -2.71875 12.632812 -3.117188 13.09375 -3.640625 C 13.550781 -4.171875 13.910156 -4.8125 14.171875 -5.5625 C 14.429688 -6.3125 14.5625 -7.15625 14.5625 -8.09375 C 14.5625 -9.070312 14.429688 -9.941406 14.171875 -10.703125 C 13.910156 -11.460938 13.550781 -12.097656 13.09375 -12.609375 C 12.644531 -13.117188 12.109375 -13.503906 11.484375 -13.765625 C 10.859375 -14.023438 10.1875 -14.15625 9.46875 -14.15625 C 8.78125 -14.15625 8.128906 -14.023438 7.515625 -13.765625 C 6.910156 -13.503906 6.375 -13.117188 5.90625 -12.609375 C 5.445312 -12.097656 5.082031 -11.460938 4.8125 -10.703125 C 4.550781 -9.941406 4.421875 -9.070312 4.421875 -8.09375 Z M 4.421875 -8.09375 "/></g></g></g><g fill="#8f68ff" fill-opacity="1"><g transform="translate(696.877242, 85.874997)"><g><path d="M 11.109375 -24.3125 L 16.21875 -24.3125 L 16.21875 -2.6875 L 18.59375 -2.6875 L 18.59375 0 L 13.3125 0 L 13.3125 -1.328125 C 12.789062 -0.796875 12.1875 -0.378906 11.5 -0.078125 C 10.8125 0.210938 10.03125 0.359375 9.15625 0.359375 C 8.0625 0.359375 7.039062 0.171875 6.09375 -0.203125 C 5.15625 -0.585938 4.335938 -1.144531 3.640625 -1.875 C 2.953125 -2.613281 2.410156 -3.515625 2.015625 -4.578125 C 1.628906 -5.648438 1.4375 -6.875 1.4375 -8.25 C 1.4375 -9.5 1.625 -10.632812 2 -11.65625 C 2.375 -12.6875 2.90625 -13.5625 3.59375 -14.28125 C 4.28125 -15.007812 5.109375 -15.570312 6.078125 -15.96875 C 7.046875 -16.375 8.125 -16.578125 9.3125 -16.578125 C 10.09375 -16.578125 10.804688 -16.488281 11.453125 -16.3125 C 12.097656 -16.144531 12.71875 -15.847656 13.3125 -15.421875 L 13.3125 -21.625 L 11.109375 -21.625 Z M 9.53125 -2.171875 C 10.394531 -2.171875 11.117188 -2.296875 11.703125 -2.546875 C 12.285156 -2.804688 12.820312 -3.191406 13.3125 -3.703125 L 13.3125 -12.765625 C 12.789062 -13.203125 12.191406 -13.519531 11.515625 -13.71875 C 10.835938 -13.914062 10.144531 -14.015625 9.4375 -14.015625 C 8.75 -14.015625 8.101562 -13.882812 7.5 -13.625 C 6.894531 -13.375 6.363281 -13.003906 5.90625 -12.515625 C 5.457031 -12.023438 5.101562 -11.425781 4.84375 -10.71875 C 4.582031 -10.007812 4.453125 -9.195312 4.453125 -8.28125 C 4.453125 -7.28125 4.578125 -6.398438 4.828125 -5.640625 C 5.078125 -4.878906 5.425781 -4.238281 5.875 -3.71875 C 6.320312 -3.207031 6.859375 -2.820312 7.484375 -2.5625 C 8.109375 -2.300781 8.789062 -2.171875 9.53125 -2.171875 Z M 9.53125 -2.171875 "/></g></g></g><g fill="#8f68ff" fill-opacity="1"><g transform="translate(716.684903, 85.874997)"><g><path d="M 1.4375 -16.1875 L 6.71875 -16.1875 L 6.71875 -2.6875 L 9.15625 -2.6875 L 9.15625 0 L 1.46875 0 L 1.46875 -2.6875 L 3.78125 -2.6875 L 3.78125 -13.5 L 1.4375 -13.5 Z M 3.234375 -21.921875 C 3.234375 -22.191406 3.285156 -22.445312 3.390625 -22.6875 C 3.503906 -22.9375 3.648438 -23.148438 3.828125 -23.328125 C 4.015625 -23.515625 4.234375 -23.660156 4.484375 -23.765625 C 4.734375 -23.878906 5 -23.9375 5.28125 -23.9375 C 5.550781 -23.9375 5.804688 -23.878906 6.046875 -23.765625 C 6.296875 -23.660156 6.507812 -23.515625 6.6875 -23.328125 C 6.875 -23.148438 7.019531 -22.9375 7.125 -22.6875 C 7.238281 -22.445312 7.296875 -22.191406 7.296875 -21.921875 C 7.296875 -21.640625 7.238281 -21.375 7.125 -21.125 C 7.019531 -20.875 6.875 -20.648438 6.6875 -20.453125 C 6.507812 -20.265625 6.296875 -20.113281 6.046875 -20 C 5.804688 -19.894531 5.550781 -19.84375 5.28125 -19.84375 C 5 -19.84375 4.734375 -19.894531 4.484375 -20 C 4.234375 -20.113281 4.015625 -20.265625 3.828125 -20.453125 C 3.648438 -20.648438 3.503906 -20.875 3.390625 -21.125 C 3.285156 -21.375 3.234375 -21.640625 3.234375 -21.921875 Z M 3.234375 -21.921875 "/></g></g></g><g fill="#8f68ff" fill-opacity="1"><g transform="translate(726.948022, 85.874997)"><g><path d="M 10.90625 -11.84375 C 10.90625 -12.28125 10.800781 -12.648438 10.59375 -12.953125 C 10.394531 -13.265625 10.132812 -13.515625 9.8125 -13.703125 C 9.488281 -13.898438 9.128906 -14.039062 8.734375 -14.125 C 8.335938 -14.21875 7.953125 -14.265625 7.578125 -14.265625 C 7.160156 -14.265625 6.773438 -14.21875 6.421875 -14.125 C 6.078125 -14.03125 5.78125 -13.894531 5.53125 -13.71875 C 5.28125 -13.539062 5.082031 -13.320312 4.9375 -13.0625 C 4.800781 -12.8125 4.734375 -12.53125 4.734375 -12.21875 C 4.734375 -11.675781 4.894531 -11.242188 5.21875 -10.921875 C 5.550781 -10.609375 6.101562 -10.316406 6.875 -10.046875 L 9.984375 -8.953125 C 11.316406 -8.503906 12.289062 -7.894531 12.90625 -7.125 C 13.519531 -6.351562 13.828125 -5.429688 13.828125 -4.359375 C 13.828125 -3.640625 13.679688 -2.976562 13.390625 -2.375 C 13.109375 -1.78125 12.703125 -1.269531 12.171875 -0.84375 C 11.648438 -0.425781 11.019531 -0.101562 10.28125 0.125 C 9.539062 0.363281 8.71875 0.484375 7.8125 0.484375 C 6.550781 0.484375 5.523438 0.28125 4.734375 -0.125 C 3.941406 -0.53125 3.332031 -1.066406 2.90625 -1.734375 L 1.28125 -1.734375 L 1.28125 -4.421875 L 4.515625 -4.421875 C 4.515625 -3.972656 4.609375 -3.585938 4.796875 -3.265625 C 4.992188 -2.953125 5.25 -2.695312 5.5625 -2.5 C 5.882812 -2.300781 6.242188 -2.15625 6.640625 -2.0625 C 7.046875 -1.96875 7.457031 -1.921875 7.875 -1.921875 C 8.28125 -1.921875 8.671875 -1.96875 9.046875 -2.0625 C 9.421875 -2.164062 9.75 -2.3125 10.03125 -2.5 C 10.320312 -2.695312 10.550781 -2.929688 10.71875 -3.203125 C 10.882812 -3.472656 10.96875 -3.78125 10.96875 -4.125 C 10.96875 -4.644531 10.796875 -5.085938 10.453125 -5.453125 C 10.117188 -5.816406 9.546875 -6.144531 8.734375 -6.4375 L 5.640625 -7.59375 C 4.378906 -8.039062 3.441406 -8.609375 2.828125 -9.296875 C 2.222656 -9.992188 1.921875 -10.863281 1.921875 -11.90625 C 1.921875 -12.59375 2.046875 -13.226562 2.296875 -13.8125 C 2.554688 -14.394531 2.925781 -14.894531 3.40625 -15.3125 C 3.894531 -15.738281 4.488281 -16.070312 5.1875 -16.3125 C 5.882812 -16.550781 6.679688 -16.671875 7.578125 -16.671875 C 8.734375 -16.671875 9.703125 -16.507812 10.484375 -16.1875 C 11.265625 -15.863281 11.96875 -15.3125 12.59375 -14.53125 L 14.109375 -14.53125 L 14.109375 -11.84375 Z M 10.90625 -11.84375 "/></g></g></g></svg>